<?xml version="1.0" encoding="UTF-8"?>
<svg width="666px" height="143px" viewBox="0 0 666 143" version="1.1" xmlns="http://www.w3.org/2000/svg" xmlns:xlink="http://www.w3.org/1999/xlink">
    <!-- Generator: Sketch 62 (91390) - https://sketch.com -->
    <title>Monica</title>
    <desc>Created with Sketch.</desc>
    <g id="Page-1" stroke="none" stroke-width="1" fill="none" fill-rule="evenodd">
        <g id="Desktop-HD-Copy-2" transform="translate(-387.000000, -449.000000)" fill="#E41300" fill-rule="nonzero">
            <path d="M434.44375,588 L434.44375,582.921875 C425.980208,582.596354 420.511458,580.903646 418.0375,577.84375 C415.563542,574.783854 414.326563,569.933594 414.326563,563.292969 L414.326563,563.292969 L414.326563,472.765625 L415.205469,472.765625 L464.717188,588 L470.088281,588 L519.111719,470.421875 L520.576563,470.421875 L520.576563,568.175781 C520.576563,574.230469 519.079167,578.152995 516.084375,579.943359 C513.089583,581.733724 508.629948,582.726562 502.705469,582.921875 L502.705469,582.921875 L502.705469,588 L569.111719,588 L569.111719,582.921875 C562.340885,582.661458 557.71849,581.391927 555.244531,579.113281 C552.770573,576.834635 551.533594,572.016927 551.533594,564.660156 L551.533594,564.660156 L551.533594,476.28125 C551.533594,468.533854 552.770573,463.667318 555.244531,461.681641 C557.71849,459.695964 562.340885,458.442708 569.111719,457.921875 L569.111719,457.921875 L569.111719,452.84375 L518.721094,452.84375 L479.560938,545.421875 L477.900781,545.421875 L438.545313,452.84375 L388.154688,452.84375 L388.154688,457.921875 C394.795313,458.442708 399.417708,459.565755 402.021875,461.291016 C404.626042,463.016276 405.928125,466.613281 405.928125,472.082031 L405.928125,472.082031 L405.928125,567.003906 C405.928125,572.277344 404.788802,576.232422 402.510156,578.869141 C400.23151,581.505859 395.283594,582.856771 387.666406,582.921875 L387.666406,582.921875 L387.666406,588 L434.44375,588 Z M618.213281,591.027344 C631.62474,591.027344 642.497135,586.225911 650.830469,576.623047 C659.163802,567.020182 663.330469,555.545573 663.330469,542.199219 C663.330469,528.657552 659.114974,517.134115 650.683984,507.628906 C642.252995,498.123698 631.429427,493.371094 618.213281,493.371094 C605.257552,493.371094 594.499089,498.026042 585.937891,507.335938 C577.376693,516.645833 573.096094,528.266927 573.096094,542.199219 C573.096094,556.066406 577.360417,567.671224 585.889063,577.013672 C594.417708,586.35612 605.192448,591.027344 618.213281,591.027344 Z M618.213281,584.582031 C611.442448,584.582031 606.917708,580.252604 604.639063,571.59375 C603.206771,565.994792 602.490625,556.196615 602.490625,542.199219 C602.490625,528.397135 603.239323,518.598958 604.736719,512.804688 C607.015365,504.145833 611.540104,499.816406 618.310938,499.816406 C624.495833,499.816406 628.646224,503.152995 630.762109,509.826172 C632.877995,516.499349 633.935938,527.290365 633.935938,542.199219 C633.935938,557.173177 632.926823,567.980469 630.908594,574.621094 C628.890365,581.261719 624.658594,584.582031 618.213281,584.582031 Z M715.06875,588 L715.06875,583.214844 C711.488021,582.498698 709.046615,581.522135 707.744531,580.285156 C706.442448,579.048177 705.791406,576.248698 705.791406,571.886719 L705.791406,571.886719 L705.791406,518.371094 C707.353906,515.832031 709.583724,513.309245 712.480859,510.802734 C715.377995,508.296224 718.551823,507.042969 722.002344,507.042969 C726.62474,507.042969 729.717188,509.09375 731.279688,513.195312 C732.191146,515.473958 732.646875,518.891927 732.646875,523.449219 L732.646875,523.449219 L732.646875,571.886719 C732.646875,576.248698 731.995833,579.048177 730.69375,580.285156 C729.391667,581.522135 726.95026,582.498698 723.369531,583.214844 L723.369531,583.214844 L723.369531,588 L770.342188,588 L770.342188,583.214844 C766.761458,582.759115 764.20612,581.880208 762.676172,580.578125 C761.146224,579.276042 760.38125,576.378906 760.38125,571.886719 L760.38125,571.886719 L760.38125,523.546875 C760.38125,512.414062 758.021224,504.634115 753.301172,500.207031 C748.58112,495.779948 741.924219,493.566406 733.330469,493.566406 C727.340885,493.566406 721.888411,495.145182 716.973047,498.302734 C712.057682,501.460286 708.004948,505.447917 704.814844,510.265625 L704.814844,510.265625 L704.814844,495.910156 L666.924219,495.910156 L666.924219,500.792969 C671.221094,501.313802 674.069401,502.355469 675.469141,503.917969 C676.86888,505.480469 677.56875,508.279948 677.56875,512.316406 L677.56875,512.316406 L677.56875,571.105469 C677.56875,575.66276 676.70612,578.70638 674.980859,580.236328 C673.255599,581.766276 670.570052,582.759115 666.924219,583.214844 L666.924219,583.214844 L666.924219,588 L715.06875,588 Z M797.471094,480.871094 C801.702865,480.871094 805.332422,479.357422 808.359766,476.330078 C811.387109,473.302734 812.900781,469.640625 812.900781,465.34375 C812.900781,461.046875 811.387109,457.384766 808.359766,454.357422 C805.332422,451.330078 801.702865,449.816406 797.471094,449.816406 C793.174219,449.816406 789.512109,451.330078 786.484766,454.357422 C783.457422,457.384766 781.94375,461.046875 781.94375,465.34375 C781.94375,469.640625 783.457422,473.302734 786.484766,476.330078 C789.512109,479.357422 793.174219,480.871094 797.471094,480.871094 Z M820.810938,588 L820.810938,583.214844 C817.230208,582.498698 814.788802,581.522135 813.486719,580.285156 C812.184635,579.048177 811.533594,576.248698 811.533594,571.886719 L811.533594,571.886719 L811.533594,495.910156 L773.154688,495.910156 L773.154688,500.792969 C777.191146,501.509115 779.892969,502.599609 781.260156,504.064453 C782.627344,505.529297 783.310938,508.279948 783.310938,512.316406 L783.310938,512.316406 L783.310938,571.105469 C783.310938,575.66276 782.334375,578.820312 780.38125,580.578125 C779.079167,581.75 776.670313,582.628906 773.154688,583.214844 L773.154688,583.214844 L773.154688,588 L820.810938,588 Z M868.252344,591.027344 C873.460677,591.027344 878.376042,590.148438 882.998438,588.390625 C891.722396,585.005208 899.339583,578.78776 905.85,569.738281 L905.85,569.738281 L902.139063,566.320312 C898.883854,569.966146 896.149479,572.472656 893.935938,573.839844 C890.225,576.183594 885.732813,577.355469 880.459375,577.355469 C872.060938,577.355469 865.38776,573.123698 860.439844,564.660156 C855.491927,556.196615 853.017969,545.714844 853.017969,533.214844 C853.017969,524.425781 854.320052,516.629557 856.924219,509.826172 C859.528385,503.022786 863.922917,499.621094 870.107813,499.621094 C872.25625,499.621094 874.176823,500.272135 875.869531,501.574219 C877.497135,502.876302 878.310938,505.285156 878.310938,508.800781 C878.310938,510.102865 878.278385,511.323568 878.213281,512.462891 C878.148177,513.602214 878.115625,514.464844 878.115625,515.050781 C878.115625,520.519531 879.90599,524.295573 883.486719,526.378906 C885.37474,527.550781 887.588281,528.136719 890.127344,528.136719 C893.903385,528.136719 897.012109,526.867188 899.453516,524.328125 C901.894922,521.789062 903.115625,518.794271 903.115625,515.34375 C903.115625,508.898438 900.039453,503.625 893.887109,499.523438 C887.734766,495.421875 880.459375,493.371094 872.060938,493.371094 C857.672917,493.371094 846.165755,498.270182 837.539453,508.068359 C828.913151,517.866536 824.6,529.731771 824.6,543.664062 C824.6,556.880208 828.66901,568.078125 836.807031,577.257812 C844.945052,586.4375 855.426823,591.027344 868.252344,591.027344 Z M979.463281,590.832031 C982.783594,590.832031 985.941146,590.246094 988.935938,589.074219 C993.688542,587.251302 998.017969,584.061198 1001.92422,579.503906 L1001.92422,579.503906 L998.896875,575.304688 C997.594792,576.606771 996.634505,577.404297 996.016016,577.697266 C995.397526,577.990234 994.697656,578.136719 993.916406,578.136719 C993.004948,578.136719 992.17487,577.632161 991.426172,576.623047 C990.677474,575.613932 990.303125,574.393229 990.303125,572.960938 L990.303125,572.960938 L990.303125,524.523438 C990.303125,512.674479 986.527083,504.536458 978.975,500.109375 C971.357813,495.747396 961.885156,493.566406 950.557031,493.566406 C940.010156,493.566406 931.123438,495.8125 923.896875,500.304688 C916.670313,504.796875 913.057031,510.884115 913.057031,518.566406 C913.057031,522.863281 914.407943,526.151042 917.109766,528.429688 C919.811589,530.708333 923.083073,531.847656 926.924219,531.847656 C930.244531,531.847656 933.157943,530.822266 935.664453,528.771484 C938.170964,526.720703 939.424219,523.807292 939.424219,520.03125 C939.424219,518.533854 939.147526,517.117839 938.594141,515.783203 C938.040755,514.448568 937.308333,513.227865 936.396875,512.121094 L936.396875,512.121094 L935.225,510.753906 C934.704167,510.167969 934.313542,509.614583 934.053125,509.09375 C933.792708,508.572917 933.6625,507.921875 933.6625,507.140625 C933.6625,505.122396 934.818099,503.445964 937.129297,502.111328 C939.440495,500.776693 942.386458,500.109375 945.967188,500.109375 C952.347396,500.109375 956.790755,501.525391 959.297266,504.357422 C961.803776,507.189453 963.057031,511.567708 963.057031,517.492188 L963.057031,517.492188 L963.057031,532.042969 C944.567448,537.38151 930.993229,542.6875 922.334375,547.960938 C913.675521,553.234375 909.346094,560.363281 909.346094,569.347656 C909.346094,576.704427 911.722396,582.124349 916.475,585.607422 C921.227604,589.090495 926.338281,590.832031 931.807031,590.832031 C935.908594,590.832031 940.07526,590.115885 944.307031,588.683594 C951.273177,586.404948 957.523177,582.498698 963.057031,576.964844 C963.773177,580.80599 964.9125,583.703125 966.475,585.65625 C969.209375,589.106771 973.538802,590.832031 979.463281,590.832031 Z M948.115625,576.574219 C945.641667,576.574219 943.411849,575.451172 941.426172,573.205078 C939.440495,570.958984 938.447656,567.654948 938.447656,563.292969 C938.447656,555.936198 941.865625,549.88151 948.701563,545.128906 C952.738021,542.329427 957.425521,540.278646 962.764063,538.976562 L962.764063,538.976562 L962.764063,568.175781 C960.615625,570.64974 958.760156,572.472656 957.197656,573.644531 C954.398177,575.597656 951.370833,576.574219 948.115625,576.574219 Z M1031.46797,591.2 L1052.26797,570.4 L1031.46797,549.2 L1010.66797,570 L1031.46797,591.2 Z" id="Monica."></path>
        </g>
    </g>
</svg>