<?xml version="1.0" encoding="UTF-8"?>
<svg width="110px" height="34px" viewBox="0 0 110 34" version="1.1" xmlns="http://www.w3.org/2000/svg" xmlns:xlink="http://www.w3.org/1999/xlink">
    <title>monica</title>
    <g id="Page-1" stroke="none" stroke-width="1" fill="none" fill-rule="evenodd">
        <g id="monica-logo-design" transform="translate(-483.000000, -673.000000)" fill="#00FFA2" fill-rule="nonzero">
            <path d="M503.732,705.76 C504.684,705.032 505.188,703.912 505.86,702.96 C506.588,702.064 507.148,700.944 507.596,699.824 C508.436,697.696 509.164,695.568 509.948,693.384 C510.564,691.648 511.068,689.856 511.684,688.064 C511.74,687.784 511.796,687.392 511.852,687.056 C511.908,686.664 511.852,686.272 511.46,686.16 C511.068,686.048 510.844,686.44 510.732,686.832 C510.508,687.616 510.34,688.4 510.116,689.128 C509.444,690.92 508.828,692.712 508.156,694.504 C507.26,696.688 506.42,698.928 505.412,701.056 C504.964,702.008 504.348,702.904 503.676,703.744 C503.452,704.08 503.004,704.304 502.5,704.696 C502.332,700.888 502.892,697.472 503.396,693.72 C503.9,690.248 504.236,686.888 504.908,683.472 C504.933846,683.342769 504.963669,683.213538 504.994409,683.084308 L505.086323,682.696615 C505.219148,682.115077 505.308615,681.533538 505.076,680.952 C504.572,679.608 503.788,678.544 502.556,677.984 C501.884,677.704 501.212,677.648 500.652,678.208 C499.924,678.992 499.14,679.664 498.524,680.56 C496.844,682.912 496.004,685.824 495.164,688.68 C494.996,689.24 494.828,689.856 494.66,690.472 C494.548,690.416 494.492,690.416 494.38,690.416 C494.548,689.016 494.66,687.616 494.828,686.216 C494.884,685.712 494.996,685.264 494.996,684.816 C495.052,683.584 494.212,682.576 492.924,682.072 C491.972,681.736 491.468,682.016 490.74,683.136 L490.404,683.808 L490.404,683.808 C489.396,685.656 488.724,687.672 488.164,689.744 C487.996,690.304 487.828,690.864 487.66,691.48 C487.492,691.312 487.492,691.144 487.492,691.032 C487.66,689.576 487.884,688.176 488.052,686.72 C488.22,685.768 488.332,684.872 488.5,683.92 C488.724,682.632 488.388,681.848 487.324,681.4 C486.708,681.176 486.092,681.12 485.42,680.952 C485.308,681.232 485.196,681.456 485.14,681.68 C484.748,683.024 484.356,684.368 484.132,685.768 C483.74,687.952 483.46,690.08 483.236,692.264 C483.124,693.664 483.236,695.12 483.292,696.576 C483.292,697.024 483.46,697.472 483.628,697.92 C483.74,698.2 483.964,698.536 484.188,698.592 C485.532,700.272 486.372,699.6 487.604,699.32 C487.884,698.704 488.22,698.256 488.332,697.696 C488.668,696.296 489.004,694.896 489.228,693.44 C489.508,691.312 490.348,689.464 490.964,687.448 C491.132,686.944 491.356,686.44 491.58,685.936 C491.636,685.992 491.636,685.992 491.692,685.992 C491.692,686.44 491.692,686.888 491.58,687.28 C491.244,689.464 491.412,691.648 491.468,693.888 C491.524,695.232 491.804,696.408 493.148,696.8 C493.204,696.856 493.26,696.912 493.372,696.968 C494.38,697.584 495.164,697.192 495.612,695.96 C496.396,693.944 496.732,691.76 497.516,689.744 C498.244,687.728 499.14,685.768 500.036,683.92 C500.204,683.696 500.26,683.472 500.372,683.248 C500.316,684.48 500.092,685.712 499.868,686.944 C499.14,691.256 498.636,695.624 498.804,700.048 C498.86,701.336 499.028,702.736 499.364,703.968 C500.036,706.6 502.108,706.992 503.732,705.76 Z M517.34,700.832 C517.788,700.216 518.124,699.488 518.46,698.76 C519.412,696.8 519.972,694.616 520.42,692.432 C520.588,691.704 520.532,690.92 520.532,690.136 C520.476,689.52 520.42,688.848 520.42,688.12 C520.98,688.232 521.372,688.4 521.764,688.456 C524.06,688.904 526.188,688.624 528.036,686.888 C528.54,686.44 528.708,685.824 528.484,685.432 C528.148,684.984 527.7,685.208 527.308,685.32 C527.252,685.376 527.14,685.488 527.028,685.488 C526.076,685.824 525.124,686.328 524.116,686.384 C521.82,686.552 520.252,686.216 519.132,682.856 C519.02,682.52 518.964,682.128 518.796,681.792 C518.628,681.512 518.404,681.176 518.18,681.064 C517.452,680.84 516.724,680.728 515.996,680.56 C515.716,680.448 515.436,680.504 515.156,680.336 C514.26,679.944 513.868,680.056 513.252,680.952 C511.572,683.528 510.228,686.328 509.388,689.352 C508.604,692.04 508.212,694.84 508.436,697.64 C508.548,698.816 508.828,699.992 509.276,701 C509.836,702.288 510.9,702.904 512.188,703.016 C514.204,703.24 515.996,702.736 517.34,700.832 Z M513.588,700.16 C512.916,699.096 512.692,697.92 512.804,696.8 C512.916,695.008 513.196,693.16 513.7,691.424 C514.372,688.848 515.268,686.328 516.388,683.864 C516.948,684.48 517.172,685.04 517.172,685.768 C517.228,688.456 517.228,691.144 516.612,693.72 C516.276,695.176 515.828,696.632 515.324,697.976 C514.988,698.928 514.428,699.656 513.588,700.16 Z M541.476,703.688 C542.652,702.68 543.38,701.336 544.164,700.048 C545.34,698.2 545.676,695.904 546.516,693.832 C547.132,692.32 547.468,690.752 547.86,689.184 C548.084,688.4 548.196,687.56 548.364,686.776 C548.42,686.328 548.42,685.824 547.86,685.768 C547.468,685.712 547.3,686.104 547.244,686.496 C547.02,687.504 546.852,688.512 546.516,689.52 C545.956,691.088 545.284,692.656 544.724,694.224 C543.772,696.912 542.652,699.488 540.86,701.56 C540.524,701.896 540.3,702.344 539.74,702.344 C539.74,702.12 539.684,701.952 539.684,701.784 C539.292,698.592 539.684,695.4 540.02,692.264 C540.188,690.528 540.468,688.736 540.692,687 C540.748,686.272 540.86,685.488 540.972,684.704 C541.252,683.024 541.252,681.344 540.692,679.776 C539.908,677.592 537.22,677.032 536.1,678.824 C535.82,679.272 535.484,679.608 535.316,680.056 C534.588,681.512 533.916,682.912 533.3,684.424 C532.684,685.88 532.18,687.392 531.62,688.904 C531.564,688.568 531.564,688.232 531.62,687.896 C531.676,686.496 531.844,685.04 531.396,683.64 C531.116,682.744 530.668,681.904 529.884,681.512 C529.324,681.232 528.596,681.232 527.924,681.12 C527.812,681.4 527.7,681.624 527.644,681.848 C526.58,685.488 526.076,689.24 526.076,693.048 C526.076,693.888 526.188,694.784 526.356,695.568 C526.58,696.576 527.028,697.304 528.036,697.472 C528.82,697.64 529.604,697.92 530.388,698.144 C531.116,698.368 531.34,698.144 531.564,697.304 C531.956,695.904 532.348,694.56 532.796,693.16 C533.356,691.368 533.916,689.576 534.532,687.84 C535.036,686.384 535.652,684.928 536.156,683.472 C536.212,683.528 536.324,683.528 536.38,683.584 C536.044,685.432 535.708,687.28 535.428,689.128 C534.924,692.152 534.7,695.232 535.148,698.256 C535.26,699.488 535.54,700.776 535.932,701.896 C536.996,704.808 539.628,705.256 541.476,703.688 Z M552.508,678.544 C552.62,678.544 552.732,678.488 552.844,678.376 C553.404,677.816 553.684,677.088 553.796,676.08 C553.74,675.744 553.572,675.296 553.404,674.904 C552.956,673.672 551.836,673.112 550.828,673.504 C550.044,673.784 549.092,675.688 549.26,676.584 C549.484,677.816 551.5,679.048 552.508,678.544 Z M553.516,699.264 C554.692,698.928 555.476,698.088 556.204,697.08 C557.548,695.064 558.332,692.712 559.228,690.472 C559.564,689.632 559.788,688.736 560.012,687.896 C560.236,687.112 560.012,686.496 559.564,685.936 C559.452,686.048 559.284,686.104 559.284,686.216 L558.78,687.392 L558.78,687.392 C557.884,690.024 556.652,692.432 555.308,694.728 C554.58,696.016 553.684,697.136 552.34,697.416 C551.556,696.24 551.5,696.016 551.556,694.504 C551.556,693.664 551.5,692.824 551.444,691.984 C551.444,691.76 551.388,691.536 551.388,691.312 C551.668,689.352 551.948,687.448 552.172,685.488 C552.452,683.024 552.172,682.24 550.548,681.12 C550.212,680.896 549.708,680.784 549.26,680.616 C549.092,680.896 548.98,681.008 548.924,681.12 C547.748,684.424 546.908,687.84 546.796,691.424 C546.796,693.328 547.02,695.176 547.916,696.856 C549.036,698.872 551.556,699.936 553.516,699.264 Z M564.212,700.496 C565.892,699.88 567.404,698.928 568.636,697.472 C570.316,695.456 571.884,693.272 573.06,690.808 C573.676,689.464 574.292,688.064 574.908,686.776 C574.18,685.544 574.012,685.544 573.452,686.664 C573.172,687.336 572.948,688.008 572.668,688.68 C571.324,691.872 569.42,694.448 567.18,696.8 C566.34,697.64 565.388,698.2 564.324,698.592 C563.54,698.816 563.372,698.816 562.924,698.032 C562.756,697.752 562.644,697.416 562.532,697.136 C561.972,695.512 561.972,693.832 562.364,692.264 C562.868,690.024 563.596,687.84 564.324,685.712 C564.772,684.368 565.556,683.192 566.564,682.016 C567.124,682.912 567.404,683.696 567.348,684.592 C567.292,685.04 567.18,685.544 567.684,685.712 C568.044,685.792 568.204,685.500571 568.347673,685.184653 L568.433388,684.994939 C568.462286,684.932571 568.492,684.872 568.524,684.816 C568.58,684.76 568.58,684.648 568.636,684.592 C568.972,682.744 568.468,680.784 566.732,679.832 C565.164,678.936 563.428,678.88 561.972,680.896 C559.9,683.808 558.556,687.168 557.716,690.752 C557.212,692.936 557.324,695.12 558.164,697.192 C559.004,699.264 561.804,701.336 564.212,700.496 Z M586.78,700.384 C587.732,699.152 588.46,697.64 589.076,696.128 C590.14,693.72 591.092,691.256 592.044,688.736 C592.268,688.12 592.492,687.392 592.66,686.664 C592.772,686.216 592.716,685.712 592.324,685.6 C592.044,685.544 591.652,685.712 591.428,685.936 C591.204,686.104 591.148,686.44 591.036,686.72 C590.868,687.224 590.7,687.728 590.532,688.288 C589.3,692.04 587.844,695.68 585.772,698.984 C585.38,699.656 584.932,700.272 583.98,700.664 C583.868,700.16 583.7,699.768 583.7,699.376 C583.756,697.976 583.756,696.632 583.924,695.232 C584.26,692.88 584.708,690.528 584.988,688.12 C585.156,686.888 585.268,685.544 585.268,684.312 C585.268,682.968 584.82,681.904 583.7,681.232 C582.524,680.616 582.244,680.672 581.46,681.904 C581.46,681.96 581.348,681.96 581.18,682.016 C580.956,681.848 580.676,681.68 580.34,681.512 C578.94,680.84 576.308,680.672 575.132,682.576 C573.116,685.936 571.996,689.632 571.548,693.608 C571.268,696.24 571.996,698.312 574.124,699.656 C575.244,700.328 576.42,700.104 577.26,699.04 C577.988,698.088 578.38,696.912 578.828,695.792 C578.94,695.512 579.108,695.288 579.164,695.12 C579.444,696.576 579.612,698.032 580.004,699.432 C580.452,701.112 581.572,702.12 583.028,702.344 C584.596,702.624 585.828,701.56 586.78,700.384 Z M576.364,694.504 C576.084,692.544 576.42,690.696 576.868,688.904 C577.036,688.204 577.26,687.504 577.498,686.804 L577.980222,685.404 C578.059556,685.170667 578.137333,684.937333 578.212,684.704 C578.212,684.648 578.268,684.648 578.268,684.592 C578.884,683.248 579.332,683.136 580.508,684.032 C579.052,687.448 578.044,691.144 576.364,694.504 Z" id="monica"></path>
        </g>
    </g>
</svg>