<?xml version="1.0" encoding="UTF-8"?>
<svg width="588px" height="151px" viewBox="0 0 588 151" version="1.1" xmlns="http://www.w3.org/2000/svg" xmlns:xlink="http://www.w3.org/1999/xlink">
    <title>monica</title>
    <g id="Page-1" stroke="none" stroke-width="1" fill="none" fill-rule="evenodd">
        <g id="color-16" transform="translate(-388.000000, -149.000000)" fill="#000000" fill-rule="nonzero">
            <path d="M553.715154,285.238431 C555.949629,284.964072 557.482548,284.253901 558.473514,283.088321 C559.320659,282.070888 559.673203,280.983697 559.546932,279.955297 L559.468012,279.312547 C559.166351,278.175193 558.27362,277.501879 556.805603,277.421152 C551.428137,277.168006 548.127307,275.355 546.552334,271.764228 C545.152751,268.28241 544.088162,264.889948 543.677779,261.547647 C543.346316,258.848096 543.286712,255.723701 543.370929,252.451159 C543.604265,245.115178 544.077893,237.097252 544.951416,228.377785 C546.195034,217.39458 546.733563,208.585757 546.726608,201.93172 C546.719653,195.277683 546.470642,190.610688 546.139179,187.911137 C545.318413,181.226536 543.490897,175.578964 540.625063,170.711322 C536.724442,164.013415 529.356323,160.742488 518.664526,160.750395 C517.850715,160.71983 517.052688,160.817816 516.254661,160.915801 C510.03005,161.680087 504.105334,164.886824 498.305124,170.427058 C491.785807,176.708028 486.699407,185.422819 483.380918,196.660787 C482.795146,193.209533 481.891929,188.492376 480.511661,182.528913 C478.971788,176.585047 476.809277,170.84812 473.832955,165.080627 C470.856633,159.313135 467.287476,155.314778 463.093915,152.828458 C458.900354,150.342137 454.561206,149.309061 449.932649,149.877376 C447.857779,150.132138 445.654871,150.663597 443.323925,151.471754 C435.005128,154.972446 429.076881,160.789378 425.714572,169.031501 C422.192658,177.293221 420.186113,186.021317 419.551114,195.363937 C418.916116,204.706557 418.7617,212.685289 419.072081,219.171582 C419.054532,220.348129 419.036982,221.524676 419.003648,222.572674 C418.780907,222.078071 418.272288,220.574664 417.812788,218.151811 C417.193682,215.748555 416.543008,213.088198 416.004587,210.022594 C415.306562,206.976588 414.799709,204.168084 414.308641,201.488131 C413.89535,199.269519 413.686288,197.716505 413.566134,196.757451 L413.486109,196.108627 C413.154646,193.409076 411.002621,191.71599 406.886214,191.177517 C404.907814,190.898482 402.960981,190.876547 401.045716,191.111712 C398.81124,191.386071 396.767938,191.897933 394.612382,192.815042 C390.588913,194.352967 388.622764,196.812676 388.570115,200.342318 L388.727954,201.627819 C389.454017,207.54112 391.165747,216.204134 394.006969,227.468713 C397.102499,239.484995 401.139877,251.255144 405.991067,263.055859 C410.842257,274.856573 416.112659,283.474101 421.946094,288.760296 C423.699988,289.849825 426.332594,290.179022 429.524702,289.78708 L430.801546,289.630304 C434.760113,288.883277 438.176728,287.680841 441.035608,285.894446 C443.910271,284.236601 445.316917,282.49803 445.111726,280.826879 C445.080158,280.569779 444.873201,280.203726 444.841633,279.946626 C442.423047,274.763093 440.516611,268.472771 439.106541,260.94711 C437.856077,253.401853 436.826588,247.656296 436.321501,243.542695 C435.406032,236.086793 434.793989,228.463147 434.453805,220.414657 C433.736572,207.975869 434.182163,197.090648 435.630972,187.778593 C437.079782,178.466537 439.959743,172.8934 444.127033,171.207329 L444.286638,171.187732 C446.840325,170.874179 449.165973,173.981314 451.119761,180.657286 C453.089332,187.461808 454.771261,194.562625 455.86212,202.127479 C456.714766,208.025238 457.367734,213.126728 457.892775,217.358041 L458.026887,218.442073 C458.048771,218.619439 458.070425,218.795148 458.091855,218.969194 L458.278832,220.490537 C458.862838,225.246888 459.415277,229.746139 459.80811,234.264987 C460.737598,243.154536 461.36719,249.601635 461.665319,253.349183 L461.886295,255.148883 C462.424715,258.214487 464.57674,259.907572 468.023157,260.267334 C471.469574,260.627095 474.389824,260.659998 476.624299,260.385639 C478.858775,260.11128 481.221288,259.560223 483.392628,258.771664 C487.87913,257.046399 490.30831,254.399348 490.680171,250.830511 C490.508313,248.111364 490.850371,242.98033 491.578307,235.714108 C492.306244,228.447885 493.609466,220.589074 495.328368,212.157272 C497.047271,203.72547 499.515083,196.115129 502.428377,189.493995 C505.357456,183.001411 508.90564,178.912083 513.264104,177.463514 L513.423709,177.443917 C515.49858,177.189155 516.915713,179.494426 517.515503,184.379327 L517.594423,185.022078 C518.097744,190.440776 518.280088,197.203766 517.997634,205.459194 C517.555575,213.73422 517.113516,222.009246 516.480283,230.046768 C516.268028,233.596007 516.008422,236.759596 515.892637,239.775038 C515.519011,244.648972 515.655769,249.721214 516.287127,254.863216 C516.523886,256.791466 516.77643,258.848267 517.188579,260.88547 C518.726686,268.134433 522.229176,274.228785 527.83987,279.020376 C533.290958,283.831565 541.809649,285.917315 553.236337,285.297222 L553.715154,285.238431 Z M595.269531,270.751953 C597.466797,270.751953 599.664062,270.633852 602.007812,270.397648 C610.650391,269.334735 617.681641,266.145993 622.808594,261.067626 C627.935547,255.98926 631.597656,250.320386 634.087891,244.061004 C636.578125,237.919724 638.042969,232.605154 638.482422,228.235397 L639.361328,228.235397 C643.755859,228.235397 648.443359,227.644889 653.277344,226.463874 C658.550781,225.164757 662.798828,223.15703 665.875,220.558796 C666.314453,220.08639 666.607422,219.495882 666.607422,218.787273 C666.607422,218.55107 666.607422,218.314867 666.460938,217.960562 C666.167969,216.897648 665.582031,216.070938 664.849609,215.598531 C663.970703,215.008024 663.238281,214.771821 662.359375,214.771821 C661.773438,214.771821 661.041016,214.889922 660.162109,215.244227 C657.818359,216.189039 655.181641,216.897648 652.105469,217.488156 C649.029297,218.078664 646.246094,218.314867 643.902344,218.314867 C642.583984,218.314867 641.119141,218.196765 639.654297,218.078664 L639.654297,217.133852 C639.800781,215.716633 639.800781,214.181313 639.800781,212.527891 C639.800781,209.929657 639.654297,206.977119 639.507812,203.670275 C639.214844,198.119503 638.189453,192.56873 636.578125,186.781754 C634.820312,180.994779 631.890625,176.034514 627.789062,171.782858 C623.248047,167.767406 618.707031,165.405375 614.166016,164.814867 C609.625,164.106258 606.255859,163.751953 604.058594,163.751953 C599.517578,163.751953 595.123047,164.460562 590.875,165.877781 C584.576172,167.885507 580.328125,171.428554 578.130859,176.50692 C577.105469,179.341357 576.519531,182.293896 576.519531,185.246434 L576.519531,185.955044 C576.666016,189.143785 576.8125,192.096324 577.251953,194.81266 C577.398438,195.403167 577.398438,195.993675 577.544922,196.584183 C576.373047,196.34798 575.054688,196.34798 573.882812,196.34798 C571.978516,196.34798 570.074219,196.466081 568.023438,196.938487 C564.800781,197.765198 562.310547,199.772924 560.699219,203.079768 C558.501953,207.921931 557.330078,212.645993 556.890625,217.370055 C556.451172,222.094116 556.304688,225.282858 556.304688,226.818178 C556.304688,233.07756 557.183594,239.336942 559.087891,245.596324 C561.285156,253.509128 565.533203,259.650408 571.685547,264.020165 C577.837891,268.508024 585.748047,270.751953 595.269531,270.751953 Z M613.873047,211.751953 C607.427734,207.914744 603.619141,203.496139 602.59375,198.728697 C601.421875,193.844976 600.982422,190.472883 600.982422,188.496139 C600.982422,183.961255 602.154297,180.007767 604.791016,176.751953 C606.988281,178.37986 608.746094,181.286837 610.357422,185.589162 C611.96875,189.891488 612.994141,194.077535 613.433594,197.914744 C613.873047,201.751953 614.166016,204.891488 614.166016,207.217069 C614.166016,208.844976 614.019531,210.356604 613.873047,211.751953 Z M597.466797,259.751953 C595.123047,259.751953 593.072266,258.698089 591.021484,256.590361 C588.384766,253.897152 586.333984,250.501368 584.722656,246.168815 C582.818359,240.665302 581.792969,234.693405 581.792969,228.487316 C581.792969,222.515419 582.671875,216.30933 584.429688,209.751953 C588.824219,214.318698 593.511719,217.831578 598.492188,220.290595 C603.472656,222.749611 608.453125,224.506051 613.287109,225.559916 C613.287109,228.37022 612.847656,231.883101 612.115234,235.981461 C611.382812,240.079822 610.064453,244.295279 608.453125,248.393639 C605.669922,254.83392 603.326172,258.229705 601.421875,258.815185 C599.517578,259.400665 598.199219,259.751953 597.466797,259.751953 Z M751.714844,299.751953 C755.376953,299.751953 757.574219,299.278605 758.599609,298.213573 C758.746094,297.976899 758.892578,297.858562 758.892578,297.621888 C758.892578,296.556856 756.841797,295.136813 753.033203,293.480096 C748.492188,291.231694 746.148438,288.27327 746.001953,284.368151 C745.877011,281.037315 745.858637,278.911754 745.855935,277.991469 L745.855469,277.622946 L745.855469,277.622946 C745.855469,270.641067 747.027344,262.594155 749.224609,253.363874 C751.568359,243.423572 754.351562,233.364932 757.427734,223.069619 C759.185547,216.797761 760.796875,210.880914 762.408203,205.200741 C763.580078,200.585601 764.166016,196.207134 764.166016,192.183678 C764.166016,186.030158 762.847656,180.586659 760.210938,175.971518 C757.427734,170.291345 753.619141,166.149552 748.931641,163.54614 C744.390625,160.942727 739.117188,159.641021 733.404297,159.759358 C727.837891,159.759358 722.271484,161.179401 716.412109,164.137824 C707.476562,168.634628 700.005859,177.154887 693.707031,189.81694 C690.484375,196.917156 687.994141,203.780698 686.382812,210.525903 C684.771484,217.271109 683.599609,222.714608 683.013672,226.738064 C681.695312,226.383053 681.109375,224.489662 680.962891,221.294565 C680.838942,218.490889 680.819873,216.449752 680.81694,215.02777 L680.816406,214.312685 L680.816406,214.312685 C680.816406,210.289229 680.962891,205.792426 681.402344,201.177285 C681.988281,194.905428 682.867188,189.935276 683.892578,186.266831 C683.892578,185.911821 684.039062,185.675147 684.039062,185.438473 C684.039062,182.953397 681.988281,181.178343 678.179688,179.994974 C675.542969,179.166615 672.759766,178.811604 669.830078,178.811604 C668.21875,178.811604 666.607422,178.929941 664.849609,179.166615 C660.015625,179.876637 657.232422,181.770028 656.353516,184.846788 C655.474609,190.17195 655.035156,195.733786 655.035156,201.413959 C655.035156,212.18262 656.646484,223.542966 659.722656,235.37666 C664.556641,253.482211 670.5625,266.499274 677.886719,274.546186 C679.498047,275.966229 681.841797,276.676251 684.917969,276.676251 C685.503906,276.676251 686.236328,276.676251 686.96875,276.557914 C690.923828,276.202903 694.292969,275.13787 697.076172,273.59949 C699.859375,272.06111 701.177734,270.404393 701.177734,268.629339 C701.177734,268.274328 701.177734,267.80098 701.03125,267.44597 C699.273438,262.830829 698.394531,256.558971 698.394531,248.630397 C698.394531,247.092017 698.541016,245.553636 698.541016,243.896919 C698.980469,233.719943 700.591797,223.187955 703.375,212.419294 C706.011719,201.650633 709.673828,192.420352 714.361328,184.965125 C719.048828,177.509898 724.615234,173.841453 730.914062,173.723116 C734.722656,174.196464 736.480469,177.154887 736.480469,182.480049 C736.480469,183.545082 736.480469,184.728451 736.333984,185.911821 C735.455078,193.603721 733.550781,203.070676 730.474609,214.549359 C727.544922,225.554694 725.347656,235.258323 723.882812,243.896919 C722.417969,252.417179 721.832031,259.280721 721.832031,264.369209 C721.832031,269.457697 722.271484,274.191175 723.150391,278.687979 C725.054688,287.681586 730.181641,293.953443 738.677734,297.503551 C742.925781,298.923595 746.001953,299.633616 748.199219,299.751953 L751.714844,299.751953 L751.714844,299.751953 Z M796.685547,185.751953 C799.615234,185.751953 801.8125,184.922323 803.277344,183.144546 C807.085938,177.574175 810.162109,170.81862 812.652344,163.114916 C812.798828,162.759361 812.798828,162.285286 812.798828,161.929731 C812.798828,159.677879 811.041016,157.781583 807.525391,156.240842 C803.570312,154.581583 799.46875,153.751953 795.074219,153.751953 L794.488281,153.751953 C789.800781,153.751953 786.871094,154.937138 785.845703,157.18899 C784.673828,161.100101 783.941406,164.537138 783.501953,167.381583 C783.0625,170.226027 782.769531,173.070472 782.769531,175.796398 C782.769531,176.863064 782.916016,178.048249 782.916016,179.233435 C783.0625,181.129731 784.527344,182.670472 787.310547,183.855657 C790.09375,185.159361 792.291016,185.751953 793.902344,185.751953 L796.685547,185.751953 L796.685547,185.751953 Z M794.195312,276.751953 C800.201172,276.751953 805.767578,274.400678 810.894531,269.815693 C816.021484,265.230707 820.708984,259.470083 824.664062,252.651387 C828.619141,245.950253 831.988281,239.366684 834.771484,233.018242 C837.408203,226.6698 839.3125,221.849687 840.337891,218.557902 C840.484375,218.205211 840.484375,217.734956 840.484375,217.382265 C840.484375,216.089064 839.751953,215.03099 838.433594,214.09048 C836.822266,213.032406 834.917969,212.562151 832.720703,212.562151 L832.28125,212.562151 C830.083984,212.679715 828.326172,213.620225 827.300781,215.618809 C820.5625,229.961585 814.849609,240.542321 810.308594,247.361018 C805.767578,254.179715 802.544922,257.589064 800.640625,257.589064 C796.978516,257.353936 795.074219,255.120225 794.78125,250.88793 C794.341797,246.655636 794.195312,243.598979 794.195312,241.600395 C794.195312,236.427591 794.78125,230.784531 795.953125,224.78878 C797.564453,216.441755 799.615234,209.740622 802.398438,204.567817 C802.691406,203.744871 802.837891,203.039489 802.837891,202.334106 C802.837891,199.982831 801.226562,198.101811 797.857422,196.455919 C794.195312,194.692463 790.240234,193.751953 785.992188,193.751953 C785.113281,193.751953 784.380859,193.751953 783.501953,193.869517 C778.375,194.222208 775.005859,196.338355 773.6875,200.335523 C772.515625,204.685381 771.490234,210.210877 770.464844,217.147137 C769.585938,223.965834 769.146484,230.43184 769.146484,236.427591 C769.146484,239.013993 769.146484,241.482831 769.292969,244.069234 C769.732422,252.76895 771.929688,260.175466 775.591797,266.406344 C779.253906,272.637222 785.259766,276.164134 793.902344,276.751953 L794.195312,276.751953 Z M860.699219,269.751953 C867.730469,269.633547 873.589844,267.620652 878.423828,263.831672 C880.621094,261.818776 882.525391,258.503419 884.136719,253.885599 C885.601562,249.26778 886.480469,245.241988 886.919922,241.689819 C887.212891,238.256056 887.359375,235.532727 887.359375,233.756642 C887.359375,231.625341 887.212891,229.849257 886.919922,228.309984 C886.1875,225.70506 885.015625,224.165787 883.404297,223.573759 C881.646484,222.98173 880.328125,222.626514 879.15625,222.626514 C878.130859,222.626514 876.958984,222.863325 875.933594,223.218542 C873.736328,223.928975 872.564453,225.113032 872.125,226.889116 C871.978516,228.428389 871.246094,231.506936 869.927734,235.887944 C868.609375,240.268952 866.998047,244.531555 865.240234,248.675751 C863.482422,252.819948 861.871094,255.069655 860.40625,255.543278 L860.259766,255.543278 C857.769531,255.543278 856.011719,252.938354 854.839844,247.728506 C853.814453,242.873876 853.228516,236.835189 853.228516,229.612446 L853.228516,227.836361 C853.375,219.903184 854.107422,211.970007 855.425781,204.155236 C856.744141,196.340464 858.794922,189.94656 861.285156,184.973524 C861.871094,183.907873 862.457031,183.315845 863.042969,183.315845 C863.335938,183.315845 863.482422,183.434251 863.775391,183.552657 C864.507812,184.144685 865.386719,185.210335 866.265625,186.98642 C866.998047,188.762504 867.876953,190.656994 868.609375,192.906701 C869.927734,196.340464 871.246094,199.182199 872.564453,201.313501 C873.443359,202.379151 874.46875,203.089585 875.787109,203.207991 C876.958984,203.444802 877.837891,203.444802 878.570312,203.444802 C879.742188,203.444802 880.914062,203.326396 882.085938,202.852774 C883.697266,202.260746 884.869141,201.076689 885.308594,199.419011 C885.748047,197.761332 886.041016,195.748436 886.041016,193.025107 C886.041016,191.959456 886.041016,190.656994 885.894531,189.354532 C885.455078,184.855118 883.990234,180.592516 881.353516,176.566725 C878.570312,172.659339 874.029297,170.172821 867.730469,169.225576 C865.240234,168.870359 862.896484,168.751953 860.40625,168.751953 C857.330078,168.751953 854.107422,168.988764 850.884766,169.580793 C845.464844,170.646443 841.216797,173.251367 838.140625,177.51397 C831.402344,188.170476 827.447266,197.998143 826.275391,207.115376 C825.103516,216.23261 824.517578,222.863325 824.517578,227.125927 C824.517578,235.887944 825.689453,244.057932 828.179688,251.754298 C830.523438,257.792985 834.625,262.410804 840.630859,265.370945 C846.490234,268.331086 852.789062,269.751953 859.234375,269.751953 L860.699219,269.751953 Z M954.742188,276.751953 C955.914062,276.751953 957.085938,276.633742 958.257812,276.515531 C962.505859,275.924477 965.289062,274.269525 966.460938,271.314253 C968.072266,265.994765 969.830078,257.956426 972.027344,247.081027 C974.224609,236.323838 975.25,227.694445 975.396484,221.429269 C975.508502,216.638253 975.534859,213.506278 975.541061,212.033346 L975.541864,211.819831 C975.541975,211.786426 975.542074,211.754113 975.542969,211.72289 L975.542969,211.144924 L975.542969,211.144924 C975.542969,199.796682 973.492188,189.866969 969.537109,181.355787 C965.289062,172.489972 957.671875,167.288694 946.539062,165.988375 C944.634766,165.870164 942.730469,165.751953 940.826172,165.751953 C931.158203,165.751953 922.662109,167.761538 915.337891,171.898918 C906.695312,176.863774 901.861328,183.956426 901.128906,193.176873 L901.128906,193.767928 C901.128906,197.077832 902.740234,199.796682 906.109375,201.688055 C909.039062,203.343007 912.847656,204.170483 917.828125,204.170483 C919,204.170483 920.171875,204.170483 921.490234,204.052273 C922.808594,203.934062 923.6875,203.461218 924.126953,202.751953 C924.419922,202.160899 924.566406,201.333423 924.566406,200.387736 C924.566406,198.378151 924.859375,195.659301 925.591797,192.231186 C926.324219,188.803071 927.496094,185.729589 929.400391,182.774317 C931.304688,179.937257 933.941406,178.164094 937.457031,177.336618 L938.189453,177.336618 C941.851562,177.336618 944.634766,179.700835 946.539062,184.311059 C948.443359,189.275915 949.615234,194.004349 949.761719,198.496362 C950.054688,202.870164 950.201172,206.298279 950.201172,208.426075 C950.201172,211.735979 949.908203,214.573039 949.615234,216.937257 C944.78125,212.208822 939.361328,209.371761 933.355469,208.426075 C927.496094,207.362177 923.248047,206.889333 920.611328,206.889333 C914.458984,206.889333 908.599609,208.189653 903.033203,210.55387 C897.466797,213.509142 894.097656,216.819046 893.072266,220.601793 C891.900391,224.26633 891.314453,227.221602 891.314453,229.112975 C891.314453,232.777512 892.339844,236.442049 894.244141,240.224797 C897.027344,245.898918 901.861328,250.154509 908.599609,252.99157 C915.191406,255.946841 922.662109,257.365372 930.865234,257.365372 C934.527344,257.365372 938.482422,257.12895 942.583984,256.656106 C942.4375,257.956426 942.4375,259.020324 942.291016,259.729589 C942.144531,260.557065 941.998047,261.148119 941.851562,261.502752 C941.705078,261.975595 941.705078,262.448439 941.558594,262.803071 C941.412109,263.275915 941.119141,263.866969 940.972656,264.694445 C940.826172,265.521921 940.533203,266.70403 940.386719,268.358982 L940.386719,268.831825 C940.386719,271.668886 942.291016,273.796682 945.953125,275.215212 C948.736328,276.27911 951.666016,276.751953 954.742188,276.751953 Z M942.4375,246.751953 L940.533203,246.751953 C933.501953,246.751953 927.935547,245.134175 923.833984,241.783064 C919.292969,238.200842 916.802734,234.965286 916.216797,232.307509 C915.484375,229.649731 915.191406,227.685286 915.191406,226.760842 C915.191406,224.334175 916.070312,222.600842 917.681641,221.676398 C919,221.09862 920.318359,220.751953 921.783203,220.751953 C924.859375,220.751953 928.375,222.13862 932.037109,224.796398 C937.603516,228.725286 941.119141,236.005286 942.4375,246.751953 Z" id="monica"></path>
        </g>
    </g>
</svg>