<?xml version="1.0" encoding="UTF-8"?>
<svg width="609px" height="169px" viewBox="0 0 609 169" version="1.1" xmlns="http://www.w3.org/2000/svg" xmlns:xlink="http://www.w3.org/1999/xlink">
    <!-- Generator: Sketch 62 (91390) - https://sketch.com -->
    <title>Monica</title>
    <desc>Created with Sketch.</desc>
    <g id="Page-1" stroke="none" stroke-width="1" fill="none" fill-rule="evenodd">
        <g id="Desktop-HD-Copy-2" transform="translate(-412.000000, -443.000000)" fill="#670502" fill-rule="nonzero">
            <path d="M540.033594,609.435547 C544.81875,612.593099 551.93138,612.316406 561.371484,608.605469 C559.353255,606.58724 558.913802,601.378906 560.053125,592.980469 C561.192448,584.582031 563.308333,574.376953 566.400781,562.365234 C569.493229,550.353516 572.960026,537.967448 576.801172,525.207031 C580.642318,512.446615 584.223047,500.727865 587.543359,490.050781 C592.361068,474.946615 595.290755,465.018229 596.332422,460.265625 C594.379297,453.625 590.21263,448.839844 583.832422,445.910156 C577.452214,442.980469 571.169661,442.296875 564.984766,443.859375 C547.536849,466.776042 531.293359,491.841146 516.254297,519.054688 C519.835026,507.726562 523.383203,497.049479 526.898828,487.023438 C531.130599,474.914062 533.767318,466.580729 534.808984,462.023438 C532.855859,455.382812 528.689193,450.597656 522.308984,447.667969 C515.928776,444.738281 509.646224,444.054688 503.461328,445.617188 C484.320703,470.747396 466.677474,497.635417 450.531641,526.28125 C454.828516,512.869792 459.027734,500.272135 463.129297,488.488281 C467.947005,474.55599 470.941797,465.148438 472.113672,460.265625 C470.160547,453.625 465.99388,448.839844 459.613672,445.910156 C453.233464,442.980469 446.950911,442.296875 440.766016,443.859375 C439.398828,447.505208 437.136458,454.129557 433.978906,463.732422 C430.821354,473.335286 427.517318,484.386719 424.066797,496.886719 C420.616276,509.386719 417.735417,521.837891 415.424219,534.240234 C413.113021,546.642578 412.120182,557.53125 412.445703,566.90625 C412.771224,576.28125 415.163802,582.645182 419.623438,585.998047 C424.083073,589.350911 431.325911,588.195312 441.351953,582.53125 C455.349349,549.067708 471.592839,517.817708 490.082422,488.78125 C487.022526,500.109375 484.483464,511.535156 482.465234,523.058594 C480.447005,534.582031 479.665755,544.819661 480.121484,553.771484 C480.577214,562.723307 482.953516,568.973307 487.250391,572.521484 C491.547266,576.069661 498.480859,575.532552 508.051172,570.910156 L508.051172,570.910156 L508.148828,570.910156 C508.213932,570.845052 508.26276,570.8125 508.295313,570.8125 C508.327865,570.8125 508.360417,570.779948 508.392969,570.714844 C508.425521,570.64974 508.441797,570.584635 508.441797,570.519531 L508.441797,570.519531 L508.539453,570.519531 C521.430078,544.08724 534.58112,518.501302 547.992578,493.761719 C544.476953,505.089844 541.221745,516.82487 538.226953,528.966797 C535.232161,541.108724 533.002344,552.729818 531.5375,563.830078 C530.072656,574.930339 529.926172,584.516927 531.098047,592.589844 C532.269922,600.66276 535.248438,606.277995 540.033594,609.435547 Z M605.414453,588.195312 C614.984766,588.520833 623.871484,586.014323 632.074609,580.675781 C640.277734,575.33724 647.195052,568.273438 652.826563,559.484375 C658.458073,550.695312 662.217839,541.28776 664.105859,531.261719 C664.822005,527.485677 665.196354,523.302734 665.228906,518.712891 C665.261458,514.123047 664.51276,509.826172 662.982813,505.822266 C661.452865,501.818359 658.734766,498.839844 654.828516,496.886719 C650.401432,494.998698 645.567448,494.803385 640.326563,496.300781 C635.085677,497.798177 630.349349,500.858073 626.117578,505.480469 C626.117578,505.285156 626.085026,504.992188 626.019922,504.601562 C625.889714,503.690104 625.726953,502.534505 625.531641,501.134766 C625.336328,499.735026 625.108464,498.481771 624.848047,497.375 C624.58763,496.268229 624.327214,495.682292 624.066797,495.617188 C618.272526,495.291667 612.803776,497.000651 607.660547,500.744141 C602.517318,504.48763 597.992578,509.484375 594.086328,515.734375 C590.180078,521.984375 587.217839,528.755208 585.199609,536.046875 C582.139714,547.570312 581.211979,557.140625 582.416406,564.757812 C583.620833,572.375 586.290104,578.104167 590.424219,581.945312 C594.558333,585.786458 599.555078,587.869792 605.414453,588.195312 Z M620.160547,567.296875 C617.100651,567.101562 615.310286,565.115885 614.789453,561.339844 C614.26862,557.563802 614.561589,553.071615 615.668359,547.863281 C616.77513,542.654948 618.17487,537.804688 619.867578,533.3125 C621.560286,528.820312 623.090234,525.792969 624.457422,524.230469 C624.522526,526.183594 625.027083,528.332031 625.971094,530.675781 C626.915104,533.019531 628.103255,534.679688 629.535547,535.65625 C629.795964,535.786458 629.975,535.851562 630.072656,535.851562 C630.170313,535.851562 630.219141,535.786458 630.219141,535.65625 L630.219141,535.65625 L630.219141,535.167969 C630.219141,528.78776 631.211979,524.149089 633.197656,521.251953 C635.183333,518.354818 636.892318,517.166667 638.324609,517.6875 C640.017318,518.46875 641.042708,520.356771 641.400781,523.351562 C641.758854,526.346354 641.61237,529.894531 640.961328,533.996094 C640.180078,538.813802 638.698958,543.761719 636.517969,548.839844 C634.336979,553.917969 631.797917,558.23112 628.900781,561.779297 C626.003646,565.327474 623.090234,567.166667 620.160547,567.296875 Z M685.297266,588.195312 C687.70612,588.390625 690.407943,588.195312 693.402734,587.609375 C696.397526,587.023438 699.099349,585.753906 701.508203,583.800781 C701.703516,583.670573 701.817448,583.572917 701.85,583.507812 C701.882552,583.442708 701.898828,583.361328 701.898828,583.263672 C701.898828,583.166016 701.866276,583.052083 701.801172,582.921875 C701.736068,582.856771 701.670964,582.726562 701.605859,582.53125 C700.564193,580.317708 700.36888,576.11849 701.019922,569.933594 C703.038151,563.813802 707.009505,556.343099 712.933984,547.521484 C718.858464,538.69987 725.303776,530.154948 732.269922,521.886719 C729.340234,533.540365 727.614974,543.501302 727.094141,551.769531 C726.573307,560.03776 726.898828,566.90625 728.070703,572.375 C729.437891,578.494792 732.204818,582.759115 736.371484,585.167969 C740.538151,587.576823 745.127995,588.569661 750.141016,588.146484 C755.154036,587.723307 759.58112,586.307292 763.422266,583.898438 C764.138411,583.442708 764.594141,583.084635 764.789453,582.824219 C764.984766,582.563802 765.001042,582.335938 764.838281,582.140625 C764.675521,581.945312 764.43138,581.717448 764.105859,581.457031 C763.910547,581.391927 763.747786,581.294271 763.617578,581.164062 C760.36237,579.080729 758.669661,575.548828 758.539453,570.568359 C758.409245,565.587891 759.125391,559.809896 760.687891,553.234375 C762.055078,547.244792 763.552474,541.125 765.180078,534.875 C767.198307,527.127604 768.858464,519.998698 770.160547,513.488281 C768.272526,506.847656 764.284896,502.029948 758.197656,499.035156 C752.110417,496.040365 746.104557,495.291667 740.180078,496.789062 C740.114974,496.789062 740.082422,496.821615 740.082422,496.886719 L740.082422,496.886719 L739.887109,496.886719 C730.251693,503.397135 721.267318,512.251302 712.933984,523.449219 C713.780339,519.803385 714.529036,516.385417 715.180078,513.195312 C713.226953,506.554688 709.04401,501.753255 702.63125,498.791016 C696.21849,495.828776 689.952214,495.161458 683.832422,496.789062 C673.155339,526.671875 668.272526,549.263021 669.183984,564.5625 C670.095443,579.861979 675.466536,587.739583 685.297266,588.195312 Z M809.320703,491.417969 C815.180078,491.417969 820.176823,489.350911 824.310938,485.216797 C828.445052,481.082682 830.512109,476.085938 830.512109,470.226562 C830.512109,464.367188 828.445052,459.370443 824.310938,455.236328 C820.176823,451.102214 815.180078,449.035156 809.320703,449.035156 C803.526432,449.035156 798.56224,451.102214 794.428125,455.236328 C790.29401,459.370443 788.226953,464.367188 788.226953,470.226562 C788.226953,476.085938 790.29401,481.082682 794.428125,485.216797 C798.56224,489.350911 803.526432,491.417969 809.320703,491.417969 Z M779.730859,584.484375 C783.897526,586.893229 788.48737,587.886068 793.500391,587.462891 C798.513411,587.039714 802.940495,585.623698 806.781641,583.214844 C807.497786,582.759115 807.953516,582.401042 808.148828,582.140625 C808.344141,581.880208 808.360417,581.652344 808.197656,581.457031 C808.034896,581.261719 807.790755,581.066406 807.465234,580.871094 C807.269922,580.740885 807.107161,580.610677 806.976953,580.480469 C803.721745,578.397135 802.029036,574.865234 801.898828,569.884766 C801.76862,564.904297 802.484766,559.126302 804.047266,552.550781 C805.414453,546.561198 806.976953,540.115885 808.734766,533.214844 C811.013411,524.10026 812.86888,516.125 814.301172,509.289062 C813.129297,504.861979 810.801823,501.509115 807.31875,499.230469 C803.835677,496.951823 799.913151,495.600911 795.551172,495.177734 C791.189193,494.754557 787.08763,495.096354 783.246484,496.203125 C776.866276,514.888021 772.894922,530.35026 771.332422,542.589844 C769.769922,554.829427 769.769922,564.529948 771.332422,571.691406 C772.764714,577.811198 775.564193,582.075521 779.730859,584.484375 Z M847.308984,587.804688 C858.116276,587.739583 866.872786,586.242188 873.578516,583.3125 C880.284245,580.382812 885.183333,577.078776 888.275781,573.400391 C891.368229,569.722005 892.881901,566.694661 892.816797,564.318359 C892.751693,561.942057 891.384505,561.209635 888.715234,562.121094 C877.517318,568.761719 869.167708,571.59375 863.666406,570.617188 C858.165104,569.640625 854.763411,566.417969 853.461328,560.949219 C852.159245,555.480469 852.273177,549.311849 853.803125,542.443359 C855.333073,535.57487 857.562891,529.552734 860.492578,524.376953 C863.422266,519.201172 866.384505,516.417969 869.379297,516.027344 C870.941797,516.027344 871.902083,516.889974 872.260156,518.615234 C872.618229,520.340495 872.455469,522.277344 871.771875,524.425781 C871.088281,526.574219 869.997786,528.299479 868.500391,529.601562 C868.239974,529.796875 868.060938,530.02474 867.963281,530.285156 C867.865625,530.545573 867.979557,530.838542 868.305078,531.164062 C873.057682,535.330729 877.761458,536.925781 882.416406,535.949219 C887.071354,534.972656 890.961328,532.44987 894.086328,528.380859 C897.211328,524.311849 898.936589,519.754557 899.262109,514.708984 C899.58763,509.663411 897.813542,505.10612 893.939844,501.037109 C890.066146,496.968099 883.409245,494.477865 873.969141,493.566406 C865.04987,492.720052 855.870182,494.510417 846.430078,498.9375 C836.989974,503.364583 829.079818,510.884115 822.699609,521.496094 C817.621484,530.871094 815.147526,540.604167 815.277734,550.695312 C815.407943,560.786458 818.142318,569.396484 823.480859,576.525391 C828.819401,583.654297 836.762109,587.414062 847.308984,587.804688 Z M916.156641,587.707031 C923.187891,588.488281 930.853906,585.802734 939.154688,579.650391 C947.455469,573.498047 954.828516,563.748698 961.273828,550.402344 C960.427474,559.25651 960.818099,567.003906 962.445703,573.644531 C964.073307,580.285156 967.670313,584.614583 973.236719,586.632812 C978.803125,588.651042 987.022526,587.088542 997.894922,581.945312 C998.480859,581.619792 998.80638,581.343099 998.871484,581.115234 C998.936589,580.88737 998.871484,580.692057 998.676172,580.529297 C998.480859,580.366536 998.285547,580.252604 998.090234,580.1875 C994.639714,577.84375 992.914453,573.579427 992.914453,567.394531 C992.914453,561.209635 993.809635,554.341146 995.6,546.789062 C997.390365,539.236979 999.229557,532.238281 1001.11758,525.792969 C1002.61497,520.779948 1003.68919,516.841146 1004.34023,513.976562 C1002.38711,507.466146 998.269271,502.76237 991.986719,499.865234 C985.704167,496.968099 979.568099,496.300781 973.578516,497.863281 C964.333724,520.324219 956.521224,536.209635 950.141016,545.519531 C943.760807,554.829427 938.845443,559.533203 935.394922,559.630859 C931.944401,559.728516 929.942448,557.189453 929.389063,552.013672 C928.835677,546.837891 929.779688,540.96224 932.221094,534.386719 C934.6625,527.811198 938.601302,522.505208 944.0375,518.46875 C949.473698,514.432292 956.423568,513.61849 964.887109,516.027344 C966.384505,509.126302 965.863672,503.869141 963.324609,500.255859 C960.785547,496.642578 957.074609,494.575521 952.191797,494.054688 C947.308984,493.533854 942.133203,494.477865 936.664453,496.886719 C927.54987,501.183594 920.144271,507.417318 914.447656,515.587891 C908.751042,523.758464 904.795964,532.498698 902.582422,541.808594 C900.759505,549.425781 900.059635,556.58724 900.482813,563.292969 C900.90599,569.998698 902.419661,575.565104 905.023828,579.992188 C907.627995,584.419271 911.338932,586.990885 916.156641,587.707031 Z M1019.44258,584 C1021.04258,580.4 1019.24258,577.2 1018.44258,573.8 C1018.24258,573.6 1017.84258,573.2 1017.64258,573 C1014.84258,571.6 1012.24258,570.2 1009.04258,570.6 C1005.04258,571.2 1001.64258,574.6 1003.04258,580.2 C1003.44258,581.8 1004.04258,583.2 1004.44258,584.6 C1005.84258,588.6 1008.64258,590 1013.24258,590 C1015.84258,590.2 1018.04258,587.6 1019.44258,584 Z" id="Monica."></path>
        </g>
    </g>
</svg>