<?xml version="1.0" encoding="UTF-8"?>
<svg width="694px" height="157px" viewBox="0 0 694 157" version="1.1" xmlns="http://www.w3.org/2000/svg" xmlns:xlink="http://www.w3.org/1999/xlink">
    <title>monica</title>
    <g id="Page-1" stroke="none" stroke-width="1" fill="none" fill-rule="evenodd">
        <g id="landing-page-mockup" transform="translate(-356.000000, -346.000000)" fill="#00FFA2" fill-rule="nonzero">
            <path d="M490.7,502.4 C495.633333,502.4 500.3,501.066667 504.7,498.4 C509.1,495.733333 513.433333,491.2 517.7,484.8 L517.7,484.8 L528.9,467.8 L521.7,463.6 L503.7,486.4 L500.1,484.8 L515.7,429.8 C516.5,426.866667 517.133333,424.1 517.6,421.5 C518.066667,418.9 518.3,416.4 518.3,414 C518.3,407.6 516.733333,402.466667 513.6,398.6 C510.466667,394.733333 505.3,392.8 498.1,392.8 C493.433333,392.8 489.266667,393.666667 485.6,395.4 C481.933333,397.133333 478.566667,399.466667 475.5,402.4 C472.433333,405.333333 469.6,408.833333 467,412.9 C464.4,416.966667 461.833333,421.266667 459.3,425.8 L459.3,425.8 L456.9,425 L457.5,421.8 C457.766667,420.2 457.966667,418.666667 458.1,417.2 C458.233333,415.733333 458.3,414.333333 458.3,413 C458.3,406.466667 456.966667,401.466667 454.3,398 C451.633333,394.533333 447.366667,392.8 441.5,392.8 C437.1,392.8 433.133333,393.666667 429.6,395.4 C426.066667,397.133333 422.8,399.466667 419.8,402.4 C416.8,405.333333 414.033333,408.833333 411.5,412.9 C408.966667,416.966667 406.433333,421.266667 403.9,425.8 L403.9,425.8 L401.5,425 L409.5,392.8 L365.1,401.8 L362.1,413.8 L378.3,413.8 L356.7,500 L385.5,500 L391.9,474.4 C394.166667,465.2 396.833333,456.733333 399.9,449 C402.966667,441.266667 406.133333,434.6 409.4,429 C412.666667,423.4 415.966667,419.033333 419.3,415.9 C422.633333,412.766667 425.7,411.2 428.5,411.2 C431.433333,411.2 432.9,412.933333 432.9,416.4 C432.9,417.466667 432.7,418.866667 432.3,420.6 L432.3,420.6 L412.5,500 L441.3,500 L447.7,474.4 C450.1,465.066667 452.833333,456.5 455.9,448.7 C458.966667,440.9 462.166667,434.233333 465.5,428.7 C468.833333,423.166667 472.2,418.866667 475.6,415.8 C479,412.733333 482.1,411.2 484.9,411.2 C487.833333,411.2 489.3,412.933333 489.3,416.4 C489.3,417.6 489.1,419 488.7,420.6 L488.7,420.6 L473.5,475 C473.1,476.6 472.7,478.433333 472.3,480.5 C471.9,482.566667 471.7,484.466667 471.7,486.2 C471.7,488.066667 472,489.966667 472.6,491.9 C473.2,493.833333 474.266667,495.566667 475.8,497.1 C477.333333,498.633333 479.3,499.9 481.7,500.9 C484.1,501.9 487.1,502.4 490.7,502.4 Z M568.5,502.4 C578.1,502.4 586.633333,500.2 594.1,495.8 C601.566667,491.4 607.866667,485.766667 613,478.9 C618.133333,472.033333 622.033333,464.466667 624.7,456.2 C627.366667,447.933333 628.7,439.866667 628.7,432 C628.7,419.866667 625.6,410.3 619.4,403.3 C613.2,396.3 604.033333,392.8 591.9,392.8 C582.3,392.8 573.766667,395 566.3,399.4 C558.833333,403.8 552.533333,409.433333 547.4,416.3 C542.266667,423.166667 538.366667,430.766667 535.7,439.1 C533.033333,447.433333 531.7,455.466667 531.7,463.2 C531.7,475.333333 534.8,484.9 541,491.9 C547.2,498.9 556.366667,502.4 568.5,502.4 Z M569.9,491.2 C565.766667,491.2 562.8,489.966667 561,487.5 C559.2,485.033333 558.3,482.066667 558.3,478.6 C558.3,477.4 558.466667,475.8 558.8,473.8 C559.133333,471.8 559.733333,468.9 560.6,465.1 C561.466667,461.3 562.7,456.366667 564.3,450.3 C565.9,444.233333 567.9,436.533333 570.3,427.2 C572.033333,420.266667 574.533333,414.666667 577.8,410.4 C581.066667,406.133333 585.3,404 590.5,404 C594.633333,404 597.6,405.233333 599.4,407.7 C601.2,410.166667 602.1,413.133333 602.1,416.6 C602.1,417.8 601.933333,419.4 601.6,421.4 C601.266667,423.4 600.666667,426.3 599.8,430.1 C598.933333,433.9 597.7,438.833333 596.1,444.9 C594.5,450.966667 592.5,458.666667 590.1,468 C588.366667,474.933333 585.866667,480.533333 582.6,484.8 C579.333333,489.066667 575.1,491.2 569.9,491.2 Z M712.1,502.4 C717.166667,502.4 721.9,501.066667 726.3,498.4 C730.7,495.733333 735.033333,491.2 739.3,484.8 L739.3,484.8 L750.5,467.8 L743.3,463.6 L725.3,486.4 L721.7,484.8 L737.3,429.8 C738.1,426.866667 738.733333,424.066667 739.2,421.4 C739.666667,418.733333 739.9,416.2 739.9,413.8 C739.9,407.4 738.3,402.3 735.1,398.5 C731.9,394.7 726.7,392.8 719.5,392.8 C714.833333,392.8 710.666667,393.666667 707,395.4 C703.333333,397.133333 700,399.466667 697,402.4 C694,405.333333 691.233333,408.833333 688.7,412.9 C686.166667,416.966667 683.633333,421.266667 681.1,425.8 L681.1,425.8 L678.7,425 L686.7,392.8 L642.3,401.8 L639.3,413.8 L655.5,413.8 L633.9,500 L662.7,500 L669.1,474.4 C671.5,465.066667 674.233333,456.533333 677.3,448.8 C680.366667,441.066667 683.6,434.4 687,428.8 C690.4,423.2 693.766667,418.866667 697.1,415.8 C700.433333,412.733333 703.5,411.2 706.3,411.2 C709.366667,411.2 710.9,412.933333 710.9,416.4 C710.9,417.6 710.7,419 710.3,420.6 L710.3,420.6 L695.1,475 C694.7,476.6 694.3,478.433333 693.9,480.5 C693.5,482.566667 693.3,484.466667 693.3,486.2 C693.3,488.066667 693.6,489.966667 694.2,491.9 C694.8,493.833333 695.833333,495.566667 697.3,497.1 C698.766667,498.633333 700.7,499.9 703.1,500.9 C705.5,501.9 708.5,502.4 712.1,502.4 Z M797.1,378.4 C801.766667,378.4 805.766667,377.2 809.1,374.8 C812.433333,372.4 814.633333,369.066667 815.7,364.8 C816.1,363.2 816.3,361.466667 816.3,359.6 C816.3,356.133333 815,353.133333 812.4,350.6 C809.8,348.066667 806.033333,346.8 801.1,346.8 C796.433333,346.8 792.433333,348 789.1,350.4 C785.766667,352.8 783.566667,356.133333 782.5,360.4 C782.1,362 781.9,363.733333 781.9,365.6 C781.9,369.066667 783.2,372.066667 785.8,374.6 C788.4,377.133333 792.166667,378.4 797.1,378.4 Z M774.5,502.4 C778.366667,502.4 782.633333,501.233333 787.3,498.9 C791.966667,496.566667 796.633333,491.866667 801.3,484.8 L801.3,484.8 L812.5,467.8 L805.3,463.6 L787.3,486.4 L783.7,484.8 L806.7,392.8 L759.3,401.8 L756.3,413.8 L772.5,413.8 L757.3,474.8 C756.9,476.266667 756.5,478.1 756.1,480.3 C755.7,482.5 755.5,484.4 755.5,486 C755.5,488 755.8,489.966667 756.4,491.9 C757,493.833333 758.066667,495.566667 759.6,497.1 C761.133333,498.633333 763.1,499.9 765.5,500.9 C767.9,501.9 770.9,502.4 774.5,502.4 Z M845.1,502.4 C851.233333,502.4 856.666667,501.5 861.4,499.7 C866.133333,497.9 870.4,495.233333 874.2,491.7 C878,488.166667 881.5,483.866667 884.7,478.8 C887.9,473.733333 891.033333,467.933333 894.1,461.4 L894.1,461.4 L886.3,458 C881.633333,467.2 876.9,474.266667 872.1,479.2 C867.3,484.133333 861.9,486.6 855.9,486.6 C852.033333,486.6 849.033333,485.4 846.9,483 C844.766667,480.6 843.7,476.533333 843.7,470.8 C843.7,466.933333 844.166667,462.133333 845.1,456.4 C846.033333,450.666667 847.5,444.133333 849.5,436.8 C851.366667,429.733333 853.233333,423.966667 855.1,419.5 C856.966667,415.033333 858.9,411.533333 860.9,409 C862.9,406.466667 865,404.733333 867.2,403.8 C869.4,402.866667 871.766667,402.4 874.3,402.4 C876.566667,402.4 878.8,402.7 881,403.3 C883.2,403.9 885.1,404.8 886.7,406 L886.7,406 L886.7,408 C883.9,408.266667 881.466667,408.933333 879.4,410 C877.333333,411.066667 875.6,412.333333 874.2,413.8 C872.8,415.266667 871.766667,416.9 871.1,418.7 C870.433333,420.5 870.1,422.266667 870.1,424 C870.1,427.2 871.133333,430.166667 873.2,432.9 C875.266667,435.633333 878.3,437 882.3,437 C885.1,437 887.6,436.433333 889.8,435.3 C892,434.166667 893.866667,432.633333 895.4,430.7 C896.933333,428.766667 898.1,426.566667 898.9,424.1 C899.7,421.633333 900.1,419 900.1,416.2 C900.1,409.4 897.466667,403.8 892.2,399.4 C886.933333,395 879.366667,392.8 869.5,392.8 C860.033333,392.8 851.833333,395.2 844.9,400 C837.966667,404.8 832.166667,410.866667 827.5,418.2 C822.833333,425.533333 819.366667,433.6 817.1,442.4 C814.833333,451.2 813.7,459.6 813.7,467.6 C813.7,478.4 816.233333,486.9 821.3,493.1 C826.366667,499.3 834.3,502.4 845.1,502.4 Z M976.1,502.4 C980.366667,502.4 984.533333,501.033333 988.6,498.3 C992.666667,495.566667 996.766667,491.066667 1000.9,484.8 L1000.9,484.8 L1012.1,467.8 L1004.9,463.6 L986.9,486.4 L983.3,484.8 L1005.7,395.2 L991.5,395.2 L978.5,413.6 L976.1,413.6 C974.766667,406 972,400.633333 967.8,397.5 C963.6,394.366667 958.566667,392.8 952.7,392.8 C947.233333,392.8 942.133333,393.933333 937.4,396.2 C932.666667,398.466667 928.366667,401.566667 924.5,405.5 C920.633333,409.433333 917.166667,414 914.1,419.2 C911.033333,424.4 908.433333,429.9 906.3,435.7 C904.166667,441.5 902.566667,447.433333 901.5,453.5 C900.433333,459.566667 899.9,465.4 899.9,471 C899.9,480.733333 901.666667,488.4 905.2,494 C908.733333,499.6 914.7,502.4 923.1,502.4 C927.633333,502.4 931.733333,501.566667 935.4,499.9 C939.066667,498.233333 942.333333,495.966667 945.2,493.1 C948.066667,490.233333 950.666667,486.9 953,483.1 C955.333333,479.3 957.433333,475.333333 959.3,471.2 L959.3,471.2 L961.7,471.6 L960.9,474.8 C960.5,476.266667 960.1,478.1 959.7,480.3 C959.3,482.5 959.1,484.6 959.1,486.6 C959.1,488.466667 959.366667,490.366667 959.9,492.3 C960.433333,494.233333 961.333333,495.933333 962.6,497.4 C963.866667,498.866667 965.6,500.066667 967.8,501 C970,501.933333 972.766667,502.4 976.1,502.4 Z M935.7,484 C933.433333,484 931.866667,483.066667 931,481.2 C930.133333,479.333333 929.7,476.866667 929.7,473.8 C929.7,469.533333 930.233333,464.3 931.3,458.1 C932.366667,451.9 933.633333,446.266667 935.1,441.2 C938.433333,429.333333 942.4,420.8 947,415.6 C951.6,410.4 956.233333,407.8 960.9,407.8 C965.566667,407.8 968.433333,409.666667 969.5,413.4 C970.566667,417.133333 970.366667,422.2 968.9,428.6 L968.9,428.6 L967.5,434.4 C966.433333,438.933333 964.8,444.066667 962.6,449.8 C960.4,455.533333 957.866667,460.933333 955,466 C952.133333,471.066667 949,475.333333 945.6,478.8 C942.2,482.266667 938.9,484 935.7,484 Z M1029.3,502.4 C1034.36667,502.4 1038.63333,501.033333 1042.1,498.3 C1045.56667,495.566667 1047.83333,491.933333 1048.9,487.4 C1049.3,485.8 1049.5,484.066667 1049.5,482.2 C1049.5,478.333333 1048.06667,474.966667 1045.2,472.1 C1042.33333,469.233333 1038.36667,467.8 1033.3,467.8 C1028.23333,467.8 1023.96667,469.166667 1020.5,471.9 C1017.03333,474.633333 1014.76667,478.266667 1013.7,482.8 C1013.3,484.4 1013.1,486.133333 1013.1,488 C1013.1,491.866667 1014.53333,495.233333 1017.4,498.1 C1020.26667,500.966667 1024.23333,502.4 1029.3,502.4 Z" id="monica."></path>
        </g>
    </g>
</svg>