<?xml version="1.0" encoding="UTF-8"?>
<svg width="208px" height="55px" viewBox="0 0 208 55" version="1.1" xmlns="http://www.w3.org/2000/svg" xmlns:xlink="http://www.w3.org/1999/xlink">
    <title>logo-splash</title>
    <g id="Page-1" stroke="none" stroke-width="1" fill="none" fill-rule="evenodd">
        <g id="monica-logo-design" transform="translate(-443.000000, -492.000000)" fill="#00FFA2" fill-rule="nonzero">
            <g id="logo-splash" transform="translate(444.000000, 492.000000)">
                <g id="l-splash" transform="translate(0.000000, 2.000000)">
                    <path d="M23.9709388,16.2351965 C24.8330078,16.0635227 25.4192147,15.5485012 25.6950768,14.7588016 C25.7985251,14.5184583 25.8330078,14.2437802 25.8330078,13.9691021 C25.8330078,12.9733939 25.1088699,11.3939948 23.6261113,9.2652394 C23.1433526,8.47553983 22.6950768,7.82317932 22.2468009,7.23948833 C21.7985251,6.65579734 21.2123182,5.96910207 20.522663,5.21373726 C19.8330078,4.42403769 19.2123182,3.77167717 18.6950768,3.29099048 C18.1778354,2.81030378 17.5916285,2.29528232 16.9019733,1.81459563 C16.2812837,1.29957417 15.7640423,0.990561293 15.384732,0.784552709 C15.0054216,0.578544126 14.5571457,0.44120507 14.0743871,0.372535542 C13.7985251,0.303866014 13.522663,0.26953125 13.2812837,0.26953125 C12.0743871,0.26953125 11.2812837,0.887557001 10.9019733,2.08927374 C10.8674906,2.26094756 10.8330078,2.46695614 10.8330078,2.67296473 C10.8330078,3.63433812 11.4192147,4.90472438 12.522663,6.51845829 C12.9364561,7.10214928 13.3157664,7.6515055 13.7295595,8.13219219 C14.1433526,8.61287889 14.7295595,9.2652394 15.4881802,10.0892737 C16.4192147,11.0163124 17.4192147,11.9776858 18.4881802,12.9390591 C19.5571457,13.9004325 20.522663,14.7244669 21.384732,15.4111622 C22.1433526,15.9948531 22.8674906,16.2695312 23.522663,16.2695312 C23.660594,16.2695312 23.8330078,16.2695312 23.9709388,16.2351965 Z" id="Path"></path>
                    <path d="M10.9993886,29.2695312 C12.1880678,29.2695312 13.0885824,29.2352175 13.7369529,29.2009038 C14.3853234,29.1665901 15.1057351,29.0979626 15.8621673,28.9607077 C17.87932,28.6861979 19.2481022,28.2058058 19.9685138,27.553845 C20.1486167,27.4165901 20.2926991,27.2450214 20.4007608,27.0734528 C20.6889255,26.6273744 20.8330078,26.181296 20.8330078,25.7352175 C20.8330078,25.1861979 20.5808637,24.6371783 20.0765756,24.1224724 C19.8964726,23.9509038 19.6803492,23.7793352 19.4282051,23.6077665 C18.9959581,23.298943 18.5637111,23.0930607 18.1674847,22.9558058 C17.7352377,22.8185509 17.1228877,22.681296 16.2944143,22.5783548 C15.4299203,22.4410999 14.6734881,22.3381587 14.0611382,22.303845 C13.4487883,22.2695312 12.8004178,22.2695312 12.1520473,22.2695312 L11.1074504,22.2695312 C10.0268329,22.303845 9.09029769,22.3724724 8.33386545,22.4410999 C7.5774332,22.5097273 6.7129392,22.6469822 5.77640404,22.8185509 C3.0748603,23.2303156 1.34587231,23.7793352 0.589440059,24.4999234 C0.409337144,24.671492 0.229234228,24.8773744 0.121172478,25.0832567 C-0.0589304379,25.426394 -0.166992188,25.803845 -0.166992188,26.1469822 C-0.166992188,26.5587469 -0.0229098547,26.9361979 0.229234228,27.3479626 C0.301275394,27.4852175 0.409337144,27.6224724 0.517398893,27.7254136 C0.985666475,28.2058058 1.74209872,28.5146293 2.71465447,28.6518842 C3.83129255,28.8234528 5.16405412,28.9607077 6.67691862,29.0636489 C8.18978311,29.1665901 9.63060644,29.2352175 10.9993886,29.2695312 Z" id="Path"></path>
                    <path d="M13.1433526,50.2695312 C13.7985251,50.2695312 14.522663,49.9948531 15.2812837,49.4111622 C16.1433526,48.7244669 17.1088699,47.9004325 18.1778354,46.9390591 C19.2812837,45.9776858 20.2812837,45.0163124 21.1778354,44.0892737 C21.9709388,43.2652394 22.5571457,42.6128789 22.9364561,42.1321922 C23.3502492,41.6515055 23.7295595,41.1021493 24.1433526,40.5184583 C25.2812837,38.9047244 25.8330078,37.6343381 25.8330078,36.6729647 C25.8330078,36.4669561 25.7985251,36.2609476 25.7640423,36.0892737 C25.384732,34.887557 24.6261113,34.2695312 23.384732,34.2695312 C23.1433526,34.2695312 22.8674906,34.303866 22.5916285,34.3725355 C22.1088699,34.4412051 21.660594,34.5785441 21.2812837,34.7845527 C20.9019733,34.9905613 20.384732,35.2995742 19.7640423,35.8145956 C19.1088699,36.2952823 18.4881802,36.8103038 17.9709388,37.2909905 C17.4536975,37.7716772 16.8330078,38.4240377 16.1433526,39.2137373 C15.4536975,39.9691021 14.9019733,40.6557973 14.4192147,41.2394883 C13.9709388,41.8231793 13.522663,42.4755398 13.0399044,43.2652394 C11.5916285,45.3939948 10.8330078,46.9733939 10.8330078,47.9691021 C10.8330078,48.2437802 10.9019733,48.5184583 10.9709388,48.7588016 C11.2812837,49.5485012 11.8330078,50.0635227 12.6950768,50.2351965 C12.8330078,50.2695312 13.0054216,50.2695312 13.1433526,50.2695312 Z" id="Path"></path>
                </g>
                <path d="M70.3160431,52.6299113 C70.7737933,52.6299113 71.0906973,52.4904943 71.3723898,52.1419518 C71.6188707,51.7934094 71.7245053,51.4448669 71.7597169,51.0614702 L71.7597169,50.8523447 C71.7597169,50.3992395 71.5836591,50.1204056 71.2315435,50.0158428 C69.8230813,49.5627376 69.0132155,48.5868188 68.8019462,47.0880862 C68.5906768,45.5893536 68.5554653,44.1603295 68.6258884,42.7661597 C68.6963115,41.7205323 68.8371577,40.6051965 69.0132155,39.3852978 C69.4709657,36.5621039 70.0343506,33.599493 70.7033702,30.4626109 C71.6188707,26.3498099 72.2878902,22.5506971 72.6752174,19.0652725 L72.7104289,18.4727503 C72.9216983,15.0570342 72.4991596,12.4081115 71.4428129,10.5608365 C70.3160431,8.57414449 68.8019462,7.52851711 66.9005221,7.42395437 L66.4075603,7.38910013 C64.7526172,7.38910013 62.9568278,8.08618504 61.0906153,9.44550063 C59.0483451,10.9442332 57.3229788,13.4188847 55.8440934,16.869455 C55.879305,15.0918885 55.7736703,12.8263625 55.562401,10.0031686 C55.3159201,7.2148289 54.8581699,5.05386565 54.2243619,3.48542459 C52.9919574,1.21989861 51.829976,0.0697084918 50.7384178,0.0348542459 C49.974327,0.0104562738 49.4690412,0.00313688213 49.2225603,0.000941064639 L49.0482631,0 L49.0482631,0 C46.9707812,0 45.1397803,0.941064639 43.5200487,2.85804816 C42.3932789,4.35678074 41.4425669,6.34347275 40.6679127,8.8878327 C39.8932584,11.4321926 39.2594504,14.0462611 38.7664886,16.730038 C38.3087384,19.413815 37.9566228,21.6444867 37.7453535,23.4917617 C37.7101419,23.3174905 37.6397188,22.7598226 37.5692957,21.8536122 C37.5340842,20.982256 37.463661,19.9366286 37.4284495,18.7864385 C37.3932379,17.6362484 37.3932379,16.6603295 37.3580264,15.8238276 L37.3588476,15.1665761 C37.3609008,14.6686583 37.3680868,14.29522 37.3932379,14.0462611 L37.4284495,13.7325729 C37.4284495,12.9309252 37.1115455,12.4429658 36.4073144,12.2686946 C35.7382948,12.0944233 35.1749099,12.0247148 34.7875828,12.0247148 C34.1537748,12.0247148 33.5199667,12.1292776 32.8509472,12.3732573 C31.7946005,12.756654 31.196004,13.5234474 31.0199462,14.6387833 C30.9143116,16.9043093 31.2312156,20.3548796 31.9002351,24.9207858 C32.5692547,29.5215463 33.4847552,34.0525982 34.611525,38.4790875 C35.7735063,42.9404309 36.9706993,46.1121673 38.2031037,47.9942966 C38.5552193,48.3776933 39.0481811,48.5868188 39.6819891,48.5868188 C39.8932584,48.5868188 40.1045278,48.5519645 40.3510087,48.5171103 C41.3017207,48.3079848 42.1115865,47.9245881 42.7101829,47.4017744 C43.3439909,46.8441065 43.660895,46.3212928 43.6961065,45.7984791 C43.6961065,45.6242079 43.6961065,45.4150824 43.6256834,45.2059569 C42.1115865,40.9537389 41.4073554,36.8409379 41.51299,32.8326996 C41.6186247,28.8244613 41.6890478,26.3846641 41.7594709,25.513308 C42.1115865,19.5532319 43.1327216,14.2553866 44.8228763,9.61977186 C45.7383768,7.24968314 46.4073963,5.96007605 46.7595119,5.71609632 C47.146839,5.50697085 47.3933199,5.40240811 47.5341662,5.40240811 C47.9214933,5.40240811 48.2383973,5.78580482 48.4848782,6.58745247 C48.8369937,7.66793409 49.0834746,9.20152091 49.2243209,11.1533587 C49.4708017,14.743346 49.5412249,18.3681876 49.3651671,21.9930292 C49.2243209,25.6178707 49.0834746,28.8244613 48.9074168,31.5779468 C48.8017822,32.9721166 48.7313591,34.3662864 48.6257244,35.725602 L48.5905128,36.3529785 C48.5905128,37.1546261 49.0130515,37.712294 49.8581289,37.991128 C50.6679947,38.3048162 51.4074373,38.4442332 52.0764569,38.4442332 C52.4989956,38.4442332 52.8863227,38.409379 53.3088614,38.3048162 C54.4004196,38.0608365 55.0342276,37.4683143 55.2102854,36.4923954 C56.6891708,26.4543726 58.6610179,19.3441065 61.19625,15.1267427 C62.4990776,13.1400507 63.414578,12.1292776 63.9427514,12.0595691 C64.4709247,11.9898606 64.7878287,11.9550063 64.8230403,11.9550063 C65.7033292,11.9550063 66.2315026,12.8263625 66.4075603,14.6387833 C66.4427719,15.4752852 66.4427719,16.3814956 66.4075603,17.3225602 C66.3371372,18.4030418 66.196291,19.5532319 65.9850217,20.7731305 C65.5976945,23.0735108 65.1399443,25.513308 64.5765594,28.1273764 C64.2244438,29.765526 63.8723283,31.4385298 63.5554243,33.1115336 C63.0624625,35.586185 62.7455585,37.991128 62.6047123,40.256654 C62.5695007,40.7446134 62.5695007,41.2674271 62.5342891,41.7553866 C62.4990776,44.4740177 63.0272509,46.8092522 64.1188092,48.7262357 C65.2103674,50.6432193 67.2174261,51.9676806 70.0695622,52.6299113 L70.3160431,52.6299113 Z M83.5907998,46.4258555 C84.1189732,46.4258555 84.6471465,46.3910013 85.2105314,46.3212928 C87.2880132,46.0076046 88.9781679,45.0665399 90.2105724,43.5678074 C91.4429769,42.0690748 92.3232658,40.396071 92.9218622,38.5487959 C93.5204587,36.7363752 93.8725743,35.1679341 93.9782089,33.878327 L94.1894783,33.878327 C95.245825,33.878327 96.3725948,33.7040558 97.5345761,33.3555133 C98.8021921,32.9721166 99.8233273,32.3795944 100.56277,31.612801 C100.668405,31.473384 100.738828,31.2991128 100.738828,31.0899873 C100.738828,31.0202788 100.738828,30.9505703 100.703616,30.8460076 C100.633193,30.5323194 100.492347,30.2883397 100.316289,30.1489227 C100.10502,29.9746515 99.9289619,29.904943 99.7176926,29.904943 C99.5768464,29.904943 99.4007886,29.9397972 99.1895193,30.0443599 C98.6261344,30.3231939 97.9923263,30.5323194 97.2528837,30.7065906 C96.513441,30.8808619 95.8444214,30.9505703 95.2810365,30.9505703 C94.9641325,30.9505703 94.6120169,30.9157161 94.2599014,30.8808619 L94.2599014,30.6020279 C94.2951129,30.1837769 94.2951129,29.7306717 94.2951129,29.2427123 C94.2951129,28.4759189 94.2599014,27.6045627 94.2246898,26.6286439 C94.1542667,24.9904943 93.9077858,23.3523447 93.5204587,21.6444867 C93.09792,19.9366286 92.3936889,18.4727503 91.4077653,17.2179975 C90.3162071,16.0329531 89.2246488,15.3358682 88.1330906,15.161597 C87.0415323,14.9524715 86.2316665,14.8479087 85.7034932,14.8479087 C84.6119349,14.8479087 83.5555883,15.0570342 82.5344531,15.4752852 C81.0203562,16.0678074 79.9992211,17.1134347 79.4710477,18.6121673 C79.2245668,19.4486692 79.0837206,20.3200253 79.0837206,21.1913815 L79.0837206,21.400507 C79.1189322,22.3415716 79.1541437,23.2129278 79.2597784,24.0145754 C79.2949899,24.1888466 79.2949899,24.3631179 79.3302015,24.5373891 C79.0485091,24.4676806 78.731605,24.4676806 78.4499126,24.4676806 C77.9921624,24.4676806 77.5344121,24.5025349 77.0414503,24.6419518 C76.2667961,24.8859316 75.6681996,25.4784537 75.2808725,26.4543726 C74.7526992,27.8833967 74.4710067,29.2775665 74.3653721,30.6717364 C74.2597374,32.0659062 74.2245258,33.0069708 74.2245258,33.460076 C74.2245258,35.3073511 74.4357952,37.1546261 74.8935454,39.0019011 C75.4217187,41.3371356 76.4428539,43.1495564 77.9217392,44.4391635 C79.4006246,45.7636248 81.3020487,46.4258555 83.5907998,46.4258555 Z M88.0626675,29.1381496 C86.513359,27.9879594 85.5978585,26.6634981 85.3513776,25.234474 C85.0696852,23.7705957 84.9640505,22.7598226 84.9640505,22.1673004 C84.9640505,20.8079848 85.245743,19.6229404 85.879551,18.6470215 C86.4077243,19.134981 86.830263,20.0063371 87.2175901,21.2959442 C87.6049172,22.5855513 87.8513981,23.8403042 87.9570328,24.9904943 C88.0626675,26.1406844 88.1330906,27.081749 88.1330906,27.778834 C88.1330906,28.2667934 88.097879,28.7198986 88.0626675,29.1381496 Z M84.1189732,43.3238276 C83.5555883,43.3238276 83.0626265,43.0101394 82.5696647,42.382763 C81.9358567,41.5811153 81.4428949,40.5703422 81.0555678,39.2807351 C80.5978175,37.6425856 80.3513366,35.865019 80.3513366,34.017744 C80.3513366,32.2401774 80.562606,30.3929024 80.9851446,28.4410646 C82.0414913,29.8003802 83.1682611,30.8460076 84.3654541,31.5779468 C85.562647,32.3098859 86.7598399,32.8326996 87.9218212,33.1463878 C87.9218212,33.9828897 87.8161866,35.0285171 87.6401288,36.2484157 C87.464071,37.4683143 87.147167,38.7230672 86.7598399,39.9429658 C86.0908203,41.8599493 85.5274354,42.8707224 85.0696852,43.0449937 C84.6119349,43.2192649 84.2950309,43.3238276 84.1189732,43.3238276 Z M121.196742,55 C122.077031,55 122.605204,54.860583 122.851685,54.5468948 C122.886897,54.4771863 122.922108,54.4423321 122.922108,54.3726236 C122.922108,54.0589354 122.429146,53.6406844 121.513646,53.152725 C120.422088,52.4904943 119.858703,51.6191381 119.823491,50.468948 C119.796104,49.5743557 119.790019,48.9749488 119.788666,48.6707271 L119.78828,48.482256 L119.78828,48.482256 C119.78828,46.4258555 120.069972,44.0557668 120.598145,41.3371356 C121.16153,38.409379 121.83055,35.4467681 122.569993,32.4144487 C122.992531,30.5671736 123.379858,28.8244613 123.767186,27.1514575 C124.048878,25.792142 124.189724,24.5025349 124.189724,23.3174905 C124.189724,21.5050697 123.87282,19.9017744 123.239012,18.5424588 C122.569993,16.869455 121.654492,15.6495564 120.527722,14.882763 C119.436164,14.1159696 118.168548,13.7325729 116.795297,13.7674271 C115.457258,13.7674271 114.119219,14.1856781 112.710757,15.0570342 C110.562852,16.3814956 108.767063,18.8910013 107.252966,22.6204056 C106.478311,24.7116603 105.879715,26.7332066 105.492388,28.7198986 C105.105061,30.7065906 104.823368,32.3098859 104.682522,33.4949303 C104.365618,33.3903676 104.224772,32.8326996 104.18956,31.891635 C104.154349,30.9157161 104.154349,30.2534854 104.154349,29.8352345 C104.154349,28.6501901 104.18956,27.3257288 104.295195,25.9664132 C104.436041,24.1191381 104.64731,22.6552598 104.893791,21.5747782 C104.893791,21.4702155 104.929003,21.400507 104.929003,21.3307985 C104.929003,20.5988593 104.436041,20.0760456 103.520541,19.7275032 C102.886733,19.4835234 102.217713,19.3789607 101.513482,19.3789607 C101.126155,19.3789607 100.738828,19.413815 100.316289,19.4835234 C99.1543077,19.6926489 98.4852881,20.2503169 98.2740188,21.1565272 C98.0627495,22.7249683 97.9571148,24.3631179 97.9571148,26.0361217 C97.9571148,29.207858 98.3444419,32.5538657 99.0838846,36.0392902 C100.245866,41.3719899 101.68954,45.2059569 103.450118,47.5760456 C103.837445,47.9942966 104.40083,48.2034221 105.140272,48.2034221 C105.281119,48.2034221 105.457176,48.2034221 105.633234,48.1685678 C106.583946,48.0640051 107.393812,47.7503169 108.062831,47.2972117 C108.731851,46.8441065 109.048755,46.356147 109.048755,45.8333333 C109.048755,45.7287706 109.048755,45.5893536 109.013543,45.4847909 C108.591005,44.1254753 108.379735,42.2782003 108.379735,39.9429658 C108.379735,39.4898606 108.414947,39.0367554 108.414947,38.5487959 C108.520582,35.5513308 108.907909,32.4493029 109.576928,29.2775665 C110.210736,26.1058302 111.091025,23.387199 112.217795,21.1913815 C113.344565,18.995564 114.682604,17.9150824 116.196701,17.8802281 C117.112201,18.0196451 117.53474,18.8910013 117.53474,20.4594423 C117.53474,20.7731305 117.53474,21.121673 117.499529,21.4702155 C117.288259,23.7357414 116.830509,26.5240811 116.091066,29.904943 C115.386835,33.1463878 114.858662,36.004436 114.506546,38.5487959 C114.154431,41.0583016 114.013584,43.0798479 114.013584,44.5785805 C114.013584,46.0773131 114.119219,47.4714829 114.330488,48.7959442 C114.788239,51.4448669 116.020643,53.292142 118.062913,54.3377693 C119.084049,54.7560203 119.823491,54.9651458 120.351665,55 L121.196742,55 L121.196742,55 Z M132.00669,21.400507 C132.710921,21.400507 133.239094,21.1565272 133.59121,20.6337136 C134.50671,18.995564 135.246153,17.008872 135.844749,14.743346 C135.879961,14.6387833 135.879961,14.4993663 135.879961,14.3948035 C135.879961,13.7325729 135.457422,13.1749049 134.612345,12.7217997 C133.661633,12.2338403 132.675709,11.9898606 131.619363,11.9898606 L131.478516,11.9898606 C130.351747,11.9898606 129.647515,12.338403 129.401035,13.0006337 C129.119342,14.1508238 128.943284,15.161597 128.83765,15.9980989 C128.732015,16.8346008 128.661592,17.6711027 128.661592,18.4727503 C128.661592,18.7864385 128.696803,19.134981 128.696803,19.4835234 C128.732015,20.0411914 129.084131,20.4942966 129.75315,20.842839 C130.42217,21.2262357 130.950343,21.400507 131.33767,21.400507 L132.00669,21.400507 L132.00669,21.400507 Z M131.408093,48.2382763 C132.851767,48.2382763 134.189806,47.5411914 135.422211,46.1818758 C136.654615,44.8225602 137.781385,43.1147022 138.732097,41.0931559 C139.682809,39.1064639 140.492675,37.1546261 141.161694,35.2724968 C141.795502,33.3903676 142.253253,31.9613435 142.499734,30.9854246 C142.534945,30.8808619 142.534945,30.7414449 142.534945,30.6368821 C142.534945,30.2534854 142.358887,29.9397972 142.041983,29.6609632 C141.654656,29.347275 141.196906,29.207858 140.668733,29.207858 L140.563098,29.207858 C140.034925,29.2427123 139.612386,29.5215463 139.365905,30.1140684 C137.746173,34.3662864 136.372923,37.5031686 135.281364,39.5247148 C134.189806,41.5462611 133.415152,42.5570342 132.957402,42.5570342 C132.077113,42.4873257 131.619363,41.8250951 131.54894,40.5703422 C131.443305,39.3155894 131.408093,38.409379 131.408093,37.8168568 C131.408093,36.28327 131.54894,34.6102662 131.830632,32.8326996 C132.217959,30.3580482 132.710921,28.3713561 133.37994,26.8377693 C133.450364,26.5937896 133.485575,26.3846641 133.485575,26.1755387 C133.485575,25.4784537 133.098248,24.9207858 132.288382,24.4328264 C131.408093,23.9100127 130.457381,23.6311787 129.436246,23.6311787 C129.224977,23.6311787 129.048919,23.6311787 128.83765,23.666033 C127.605245,23.7705957 126.795379,24.3979721 126.478475,25.5830165 C126.196783,26.8726236 125.950302,28.5107731 125.703821,30.5671736 C125.492552,32.5887199 125.386917,34.5057034 125.386917,36.28327 C125.386917,37.0500634 125.386917,37.7820025 125.422129,38.5487959 C125.527763,41.1280101 126.055937,43.3238276 126.936226,45.1711027 C127.816515,47.0183777 129.260188,48.0640051 131.33767,48.2382763 L131.408093,48.2382763 Z M147.39414,46.0424588 C149.084295,46.0076046 150.492757,45.4150824 151.654738,44.2997465 C152.182912,43.7072243 152.640662,42.7313054 153.027989,41.3719899 C153.380104,40.0126743 153.591374,38.8276299 153.697008,37.7820025 C153.767432,36.7712294 153.802643,35.9695817 153.802643,35.4467681 C153.802643,34.8193916 153.767432,34.2965779 153.697008,33.8434728 C153.520951,33.0766793 153.239258,32.6235741 152.851931,32.4493029 C152.429392,32.2750317 152.112488,32.1704689 151.830796,32.1704689 C151.584315,32.1704689 151.302623,32.2401774 151.056142,32.3447402 C150.527968,32.5538657 150.246276,32.9024081 150.140641,33.4252218 C150.10543,33.878327 149.929372,34.7845374 149.612468,36.0741445 C149.295564,37.3637516 148.908237,38.6185044 148.485698,39.838403 C148.063159,41.0583016 147.675832,41.7205323 147.323717,41.8599493 L147.288505,41.8599493 C146.689909,41.8599493 146.26737,41.0931559 145.985678,39.5595691 C145.739197,38.130545 145.59835,36.3529785 145.59835,34.2268695 L145.59835,33.7040558 C145.633562,31.3688213 145.80962,29.0335868 146.126524,26.7332066 C146.443428,24.4328264 146.93639,22.5506971 147.534986,21.0868188 C147.675832,20.7731305 147.816679,20.5988593 147.957525,20.5988593 C148.027948,20.5988593 148.063159,20.6337136 148.133583,20.6685678 C148.30964,20.842839 148.52091,21.1565272 148.732179,21.6793409 C148.908237,22.2021546 149.119506,22.7598226 149.295564,23.4220532 C149.612468,24.4328264 149.929372,25.2693283 150.246276,25.8967047 C150.457545,26.2103929 150.704026,26.4195184 151.02093,26.4543726 C151.302623,26.5240811 151.513892,26.5240811 151.68995,26.5240811 C151.971642,26.5240811 152.253335,26.4892269 152.535027,26.3498099 C152.922354,26.1755387 153.204047,25.8269962 153.309681,25.3390368 C153.415316,24.8510773 153.485739,24.2585551 153.485739,23.4569075 C153.485739,23.1432193 153.485739,22.7598226 153.450528,22.3764259 C153.344893,21.0519645 152.992777,19.7972117 152.358969,18.6121673 C151.68995,17.4619772 150.598391,16.730038 149.084295,16.4512041 C148.485698,16.3466413 147.922313,16.3117871 147.323717,16.3117871 C146.584274,16.3117871 145.80962,16.3814956 145.034966,16.5557668 C143.732138,16.869455 142.711003,17.6362484 141.97156,18.8910013 C140.351829,22.0278834 139.401117,24.9207858 139.119424,27.6045627 C138.837732,30.2883397 138.696885,32.2401774 138.696885,33.4949303 C138.696885,36.0741445 138.978578,38.4790875 139.577174,40.7446134 C140.140559,42.52218 141.126483,43.8814956 142.570157,44.7528517 C143.978619,45.6242079 145.492716,46.0424588 147.042024,46.0424588 L147.39414,46.0424588 Z M169.999959,48.3079848 C170.281651,48.3079848 170.563344,48.2731305 170.845036,48.2382763 C171.866171,48.0640051 172.535191,47.5760456 172.816884,46.7046895 C173.204211,45.1362484 173.626749,42.7661597 174.154923,39.5595691 C174.683096,36.3878327 174.929577,33.8434728 174.964788,31.9961977 C174.986457,30.8594131 174.994791,30.0394102 174.997997,29.5361892 L174.999567,29.21817 C174.999712,29.1750662 175,29.1369121 175,29.1037078 L175,28.9638783 L175,28.9638783 C175,25.6178707 174.507038,22.6901141 173.556326,20.1806084 C172.535191,17.5665399 170.70419,16.0329531 168.028112,15.6495564 C167.570362,15.6147022 167.112611,15.5798479 166.654861,15.5798479 C164.330898,15.5798479 162.288628,16.1723701 160.52805,17.3922687 C158.450569,18.856147 157.288587,20.9474018 157.112529,23.666033 L157.112529,23.8403042 C157.112529,24.8162231 157.499857,25.6178707 158.309722,26.1755387 C159.013953,26.6634981 159.929454,26.9074778 161.126647,26.9074778 C161.408339,26.9074778 161.690032,26.9074778 162.006936,26.8726236 C162.32384,26.8377693 162.535109,26.6983523 162.640744,26.4892269 C162.711167,26.3149556 162.746378,26.0709759 162.746378,25.792142 C162.746378,25.1996198 162.816802,24.3979721 162.992859,23.387199 C163.168917,22.3764259 163.45061,21.4702155 163.90836,20.5988593 C164.36611,19.7623574 164.999918,19.2395437 165.844995,18.995564 L166.021053,18.995564 C166.901342,18.995564 167.570362,19.6926489 168.028112,21.0519645 C168.485862,22.5158428 168.767555,23.9100127 168.802766,25.234474 C168.873189,26.5240811 168.908401,27.5348542 168.908401,28.1622307 C168.908401,29.1381496 168.837978,29.9746515 168.767555,30.6717364 C167.605573,29.2775665 166.302746,28.4410646 164.859072,28.1622307 C163.45061,27.8485425 162.429474,27.7091255 161.795666,27.7091255 C160.316781,27.7091255 158.908319,28.0925222 157.57028,28.7896071 C156.23224,29.6609632 155.422375,30.6368821 155.175894,31.752218 C154.894201,32.8326996 154.753355,33.7040558 154.753355,34.2617237 C154.753355,35.3422053 154.999836,36.4226869 155.457586,37.5380228 C156.126606,39.2110266 157.288587,40.4657795 158.908319,41.3022814 C160.492839,42.1736375 162.288628,42.5918885 164.260475,42.5918885 C165.140764,42.5918885 166.091476,42.52218 167.0774,42.382763 C167.042188,42.7661597 167.042188,43.0798479 167.006977,43.2889734 C166.971765,43.5329531 166.936554,43.7072243 166.901342,43.8117871 C166.86613,43.9512041 166.86613,44.090621 166.830919,44.1951838 C166.795707,44.3346008 166.725284,44.508872 166.690073,44.7528517 C166.654861,44.9968314 166.584438,45.3453739 166.549226,45.8333333 L166.549226,45.9727503 C166.549226,46.8092522 167.006977,47.4366286 167.887266,47.8548796 C168.556285,48.1685678 169.260516,48.3079848 169.999959,48.3079848 Z M167.042188,39.5247148 L166.584438,39.5247148 C164.894283,39.5247148 163.556244,39.0367554 162.570321,38.0259823 C161.478762,36.9455006 160.880166,35.9695817 160.73932,35.1679341 C160.563262,34.3662864 160.492839,33.7737643 160.492839,33.4949303 C160.492839,32.7629911 160.704108,32.2401774 161.091435,31.9613435 C161.408339,31.7870722 161.725243,31.6825095 162.077359,31.6825095 C162.816802,31.6825095 163.661879,32.1007605 164.542168,32.9024081 C165.880207,34.0874525 166.725284,36.28327 167.042188,39.5247148 Z" id="Monica"></path>
                <g id="r-splash" transform="translate(180.000000, 2.000000)">
                    <path d="M3.14867602,16.2695312 C3.80535804,16.2695312 4.49660228,15.9948531 5.29153316,15.4111622 C6.12102625,14.7244669 7.12333039,13.9004325 8.19475896,12.9390591 C9.26618754,11.9776858 10.2684917,11.0163124 11.2016714,10.0892737 C11.9620401,9.2652394 12.5495977,8.61287889 12.9643442,8.13219219 C13.3445285,7.6515055 13.7592751,7.10214928 14.1740216,6.51845829 C15.2800124,4.90472438 15.8330078,3.63433812 15.8330078,2.67296473 C15.8330078,2.46695614 15.8330078,2.26094756 15.7984456,2.08927374 C15.4182613,0.887557001 14.6233304,0.26953125 13.413653,0.26953125 C13.1371553,0.26953125 12.8952198,0.303866014 12.6187221,0.372535542 C12.1002889,0.44120507 11.6855424,0.578544126 11.305358,0.784552709 C10.8906115,0.990561293 10.4067405,1.29957417 9.78462072,1.81459563 C9.09337648,2.29528232 8.50581887,2.81030378 7.98738569,3.29099048 C7.46895251,3.77167717 6.8468327,4.42403769 6.15558846,5.21373726 C5.46434422,5.96910207 4.87678661,6.65579734 4.42747786,7.23948833 C3.9781691,7.82317932 3.49429814,8.47553983 3.04498938,9.2652394 C1.55881426,11.3939948 0.833007812,12.9733939 0.833007812,13.9691021 C0.833007812,14.2437802 0.867570024,14.5184583 0.97125666,14.7588016 C1.24775436,15.5485012 1.83531196,16.0635227 2.69936726,16.2351965 C2.83761611,16.2695312 2.97586496,16.2695312 3.14867602,16.2695312 Z" id="Path"></path>
                    <path d="M15.666627,29.2695312 C17.0354092,29.2352175 18.4762325,29.1665901 19.989097,29.0636489 C21.5019615,28.9607077 22.8347231,28.8234528 23.9513612,28.6518842 C24.9239169,28.5146293 25.6803492,28.2058058 26.1486167,27.7254136 C26.2566785,27.6224724 26.3287196,27.4852175 26.4367814,27.3479626 C26.6889255,26.9361979 26.8330078,26.5587469 26.8330078,26.1469822 C26.8330078,25.803845 26.7249461,25.426394 26.5448431,25.0832567 C26.4367814,24.8773744 26.2566785,24.671492 26.040555,24.4999234 C25.2841227,23.7793352 23.5551347,23.2303156 20.8896116,22.8185509 C19.9530764,22.6469822 19.0885824,22.5097273 18.3321502,22.4410999 C17.5757179,22.3724724 16.6391828,22.303845 15.5585653,22.2695312 L14.5139684,22.2695312 C13.8655979,22.2695312 13.2892685,22.2695312 12.7849804,22.303845 C12.0285481,22.3381587 11.2360953,22.4410999 10.3716013,22.5783548 C9.54312788,22.681296 8.93077797,22.8185509 8.49853097,22.9558058 C8.06628397,23.0930607 7.63403697,23.298943 7.23781056,23.6077665 C6.98566647,23.7793352 6.76954298,23.9509038 6.58944006,24.1224724 C6.08515189,24.6371783 5.83300781,25.1861979 5.83300781,25.7352175 C5.83300781,26.181296 5.97709015,26.6273744 6.26525481,27.0734528 C6.37331656,27.2450214 6.51739889,27.4165901 6.69750181,27.553845 C7.41791347,28.2058058 8.78669563,28.6861979 10.8038483,28.9607077 C11.5602805,29.0979626 12.2806922,29.1665901 12.9290627,29.2009038 C13.5774332,29.2352175 14.4779478,29.2695312 15.666627,29.2695312 Z" id="Path"></path>
                    <path d="M13.5173396,50.2695312 C13.6901507,50.2695312 13.8283995,50.2695312 14.0012106,50.2351965 C14.8652659,50.0635227 15.4182613,49.5485012 15.7293212,48.7588016 C15.7984456,48.5184583 15.8330078,48.2437802 15.8330078,47.9691021 C15.8330078,46.9733939 15.1072014,45.3939948 13.6555885,43.2652394 C13.1717175,42.4755398 12.7224087,41.8231793 12.2385378,41.2394883 C11.789229,40.6557973 11.2362336,39.9691021 10.5449894,39.2137373 C9.85374514,38.4240377 9.23162532,37.7716772 8.71319214,37.2909905 C8.16019675,36.8103038 7.57263915,36.2952823 6.91595712,35.8145956 C6.29383731,35.2995742 5.77540413,34.9905613 5.39521979,34.7845527 C5.01503546,34.5785441 4.56572671,34.4412051 4.08185574,34.3725355 C3.80535804,34.303866 3.52886035,34.2695312 3.28692486,34.2695312 C2.04268523,34.2695312 1.24775436,34.887557 0.902132236,36.0892737 C0.867570024,36.2609476 0.833007812,36.4669561 0.833007812,36.6729647 C0.833007812,37.6343381 1.3860032,38.9047244 2.5265562,40.5184583 C2.90674053,41.1021493 3.32148708,41.6515055 3.73623362,42.1321922 C4.11641795,42.6128789 4.70397555,43.2652394 5.49890643,44.0892737 C6.39752394,45.0163124 7.39982809,45.9776858 8.50581887,46.9390591 C9.57724744,47.9004325 10.5449894,48.7244669 11.4090447,49.4111622 C12.1694133,49.9948531 12.8952198,50.2695312 13.5173396,50.2695312 Z" id="Path"></path>
                </g>
            </g>
        </g>
    </g>
</svg>