<?xml version="1.0" encoding="UTF-8"?>
<svg width="88px" height="23px" viewBox="0 0 88 23" version="1.1" xmlns="http://www.w3.org/2000/svg" xmlns:xlink="http://www.w3.org/1999/xlink">
    <title>Monica</title>
    <g id="Page-1" stroke="none" stroke-width="1" fill="none" fill-rule="evenodd">
        <g id="desktop-todo" transform="translate(-99.000000, -107.000000)" fill="#00FFA2" fill-rule="nonzero">
            <path d="M101.410767,127.834979 C101.614085,127.961918 101.841607,128.015623 102.093333,127.996094 C102.61615,127.937507 102.964695,127.654335 103.138967,127.146578 C103.158331,127.048932 103.177694,126.941522 103.197058,126.824347 C103.216421,126.707173 103.226103,126.599763 103.226103,126.502117 C103.245467,124.90073 103.303558,123.289578 103.400376,121.668662 C103.400376,121.219492 103.405216,120.76544 103.414898,120.306506 C103.42458,119.847572 103.47783,119.39352 103.574648,118.94435 C103.807011,117.40155 104.228169,115.927102 104.838122,114.521006 C105.448075,113.11491 106.159687,111.747872 106.972958,110.419892 C106.992321,110.322247 107.089139,110.185543 107.263412,110.009781 C107.263412,110.185543 107.273093,110.341776 107.292457,110.47848 C107.311821,110.615183 107.302139,110.742123 107.263412,110.859297 C107.205321,111.542816 107.152071,112.231218 107.103662,112.924501 C107.055253,113.617785 106.98264,114.306186 106.885822,114.989705 C106.76964,116.005219 106.692186,117.020733 106.653459,118.036246 C106.614731,119.05176 106.614731,120.086803 106.653459,121.141375 C106.692186,121.727249 106.740595,122.318005 106.798685,122.913642 C106.856776,123.50928 106.972958,124.100036 107.14723,124.685909 C107.185957,124.90073 107.248889,125.100903 107.336025,125.28643 C107.423161,125.471956 107.515138,125.652601 107.611956,125.828363 C107.766865,126.10177 107.95566,126.301944 108.178341,126.428883 C108.401022,126.555822 108.633385,126.619292 108.87543,126.619292 C109.117475,126.619292 109.354679,126.560704 109.587042,126.44353 C109.819405,126.326355 110.022723,126.140828 110.196995,125.88695 C110.371268,125.574484 110.526176,125.22296 110.661721,124.832378 C110.835994,124.226975 111.010266,123.63622 111.184538,123.060111 C111.358811,122.484002 111.533083,121.903011 111.707355,121.317137 C112.191445,119.598576 112.801398,117.953248 113.537214,116.381154 C114.273031,114.809061 115.163756,113.300437 116.20939,111.855282 C116.26748,111.757637 116.330412,111.669756 116.398185,111.591639 L116.438267,111.543598 C116.490936,111.47798 116.540507,111.406113 116.58698,111.327996 C116.606343,111.347525 116.654752,111.376819 116.732207,111.415877 C116.693479,111.513523 116.669275,111.611168 116.659593,111.708814 C116.649911,111.806459 116.625707,111.904105 116.58698,112.001751 C116.490162,112.66574 116.378821,113.324848 116.252958,113.979073 C116.127094,114.633299 116.006072,115.292406 115.88989,115.956396 L115.88989,115.956396 L115.628482,117.567548 C115.589755,117.840955 115.546187,118.109481 115.497778,118.373124 C115.449369,118.636767 115.405801,118.915057 115.367074,119.207993 C115.270256,119.832925 115.202483,120.477386 115.163756,121.141375 C115.125029,121.805365 115.13471,122.47912 115.192801,123.162639 C115.231528,123.475104 115.29446,123.782688 115.381596,124.085389 C115.468732,124.388091 115.609118,124.676145 115.802754,124.949553 C116.151299,125.457309 116.591821,125.755128 117.124319,125.843009 C117.656818,125.93089 118.165112,125.77954 118.649202,125.388958 C118.881565,125.232725 119.094564,125.027669 119.2882,124.773791 C119.927199,124.031684 120.52747,123.265167 121.089014,122.474237 C121.650558,121.683308 122.173375,120.858203 122.657465,119.998922 C122.696192,119.920806 122.73976,119.842689 122.788169,119.764573 C122.836578,119.686457 122.880146,119.598576 122.918873,119.50093 C123.093146,118.954115 122.986646,118.534239 122.599374,118.241302 C122.212102,117.948365 121.795785,117.987424 121.350423,118.358477 C121.234241,118.436593 121.132582,118.519592 121.045446,118.607473 C120.95831,118.695354 120.866333,118.788117 120.769515,118.885763 C120.614606,119.061525 120.469379,119.247051 120.333834,119.442343 C120.198289,119.637634 120.053062,119.82316 119.898153,119.998922 C119.627063,120.311388 119.375336,120.609207 119.142973,120.892379 C118.91061,121.175551 118.658884,121.47337 118.387793,121.785836 C118.349066,121.785836 118.324862,121.780954 118.31518,121.771189 C118.305498,121.761425 118.281294,121.756543 118.242567,121.756543 L118.242567,121.756543 L118.242567,121.419665 C118.242567,121.312255 118.26193,121.199963 118.300657,121.082788 C118.397475,120.535973 118.489452,119.984276 118.576588,119.427696 C118.663725,118.871116 118.755702,118.309654 118.85252,117.74331 L118.85252,117.74331 L119.201064,115.692753 C119.278519,115.302171 119.346291,114.926235 119.404382,114.564947 C119.462473,114.203658 119.530245,113.827723 119.6077,113.43714 C119.704517,112.851267 119.796495,112.250747 119.883631,111.63558 C119.970767,111.020413 119.965926,110.390599 119.869108,109.746138 C119.830381,109.531318 119.77229,109.306733 119.694836,109.072384 C119.617381,108.838034 119.510882,108.613449 119.375336,108.398629 C119.142973,107.968989 118.813792,107.710228 118.387793,107.622347 C117.961794,107.534466 117.555159,107.627229 117.167887,107.900637 C116.993615,107.998282 116.829025,108.115457 116.674116,108.252161 C116.519207,108.388865 116.37398,108.535333 116.238435,108.691566 C115.8318,109.25791 115.420323,109.81449 115.004006,110.361305 C114.587689,110.90812 114.185895,111.4647 113.798623,112.031044 C112.985352,113.261378 112.268899,114.530771 111.649264,115.839221 C111.02963,117.147672 110.458404,118.485416 109.935587,119.852454 C109.89686,119.969629 109.853292,120.081921 109.804883,120.189331 C109.756474,120.296741 109.712906,120.409034 109.674178,120.526208 C109.635451,120.428563 109.611247,120.340682 109.601565,120.262565 C109.591883,120.184449 109.587042,120.106332 109.587042,120.028216 C109.606406,119.579046 109.625769,119.134759 109.645133,118.695354 C109.664497,118.255949 109.68386,117.811662 109.703224,117.362492 C109.858132,115.409581 109.974314,113.485963 110.051768,111.591639 C110.109859,110.849533 110.051768,110.107427 109.877496,109.36532 C109.780678,108.798976 109.57736,108.300984 109.267543,107.871343 C108.918998,107.344057 108.473636,107.056003 107.931455,107.00718 C107.389275,106.958357 106.895503,107.15853 106.450141,107.6077 C106.275869,107.802991 106.106437,108.003165 105.941847,108.20822 C105.777256,108.413276 105.627188,108.632978 105.491643,108.867328 C105.104371,109.47273 104.736463,110.083015 104.387919,110.698182 C104.039374,111.313349 103.690829,111.933399 103.342285,112.55833 C103.303558,112.636447 103.25999,112.719445 103.211581,112.807326 C103.163172,112.895207 103.090558,113.0075 102.99374,113.144204 C102.974377,113.0075 102.955013,112.90009 102.935649,112.821973 C102.916286,112.743857 102.906604,112.675505 102.906604,112.616918 C102.809786,112.187277 102.737173,111.757637 102.688764,111.327996 C102.640355,110.898356 102.567741,110.47848 102.470923,110.068368 C102.354742,109.521553 102.180469,109.004032 101.948106,108.515804 C101.773834,108.16428 101.531789,107.905519 101.221972,107.739522 C100.912154,107.573524 100.592655,107.529584 100.263474,107.6077 C99.9342932,107.666287 99.658362,107.832285 99.4356808,108.105692 C99.2129995,108.3791 99.0822953,108.711095 99.0435681,109.101677 C98.9854773,109.531318 98.9854773,109.951194 99.0435681,110.361305 C99.140386,111.201057 99.2275222,112.035926 99.3049765,112.865914 C99.3824309,113.695901 99.469567,114.5503 99.566385,115.42911 C99.7600209,117.284376 99.9584977,119.134759 100.161815,120.98026 C100.365133,122.825761 100.573292,124.676145 100.786291,126.531411 C100.786291,126.668114 100.805655,126.795054 100.844382,126.912228 C100.883109,127.029403 100.921836,127.136813 100.960563,127.234459 C101.057381,127.507866 101.207449,127.70804 101.410767,127.834979 Z M124.195374,127.493014 C125.41266,128.197161 126.569081,128.167822 127.664638,127.404995 C127.948671,127.228959 128.207344,127.033362 128.440657,126.818206 C128.67397,126.60305 128.902211,126.378114 129.12538,126.143398 C129.470278,125.791324 129.759383,125.400132 129.992696,124.969819 C130.226009,124.539507 130.423818,124.089635 130.586123,123.620204 C130.646987,123.502846 130.697707,123.414827 130.738284,123.356148 C131.448367,123.219231 132.112802,122.945396 132.731589,122.534643 C133.350375,122.12389 133.88801,121.698468 134.344492,121.258376 C134.800974,120.818284 135.161087,120.422201 135.424833,120.070127 C135.688578,119.718054 135.830594,119.522457 135.850883,119.483338 C135.992899,119.268182 136.033475,119.043246 135.972611,118.80853 C135.911747,118.573814 135.779874,118.387998 135.576993,118.25108 C135.353824,118.114162 135.120511,118.075043 134.877054,118.133722 C134.633597,118.192401 134.44086,118.319539 134.298844,118.515135 C134.217691,118.632493 134.116251,118.764521 133.994522,118.911218 C133.872794,119.057916 133.740921,119.219283 133.598904,119.395319 C133.375735,119.610476 133.13735,119.825632 132.883749,120.040788 C132.630148,120.255944 132.351187,120.441761 132.046865,120.598238 C131.945425,120.656917 131.838913,120.710706 131.727328,120.759605 C131.615744,120.808504 131.478799,120.872073 131.316494,120.950312 L131.316494,120.950312 L131.316494,119.89409 C131.25563,118.916108 131.057821,118.006584 130.723068,117.16552 C130.388314,116.324455 129.794887,115.590968 128.942788,114.965059 C128.861635,114.92594 128.800771,114.867261 128.760195,114.789022 C128.577602,114.534747 128.364577,114.35871 128.12112,114.260912 C127.877663,114.163113 127.603774,114.114214 127.299452,114.114214 L127.299452,114.114214 L127.101643,114.114214 C127.030635,114.114214 126.964699,114.104435 126.903834,114.084875 C125.930006,113.908838 124.956178,114.006636 123.982349,114.37827 C123.393995,114.593426 122.85636,114.93572 122.369446,115.405151 C121.882532,115.874583 121.517346,116.417363 121.273889,117.033492 C121.030432,117.649621 120.94928,118.309759 121.030432,119.013906 C121.111584,119.718054 121.42605,120.422201 121.973828,121.126348 C122.136133,121.302385 122.196997,121.56644 122.156421,121.918514 C122.115845,122.231468 122.075269,122.539533 122.034693,122.842707 C121.994116,123.145882 121.973828,123.453947 121.973828,123.766901 C122.014405,125.429471 122.75492,126.671509 124.195374,127.493014 Z M127.995063,122 C127.665935,122 127.320351,121.979036 126.95831,121.937107 C126.59627,121.895178 126.239715,121.832285 125.888645,121.748428 C125.537575,121.66457 125.24136,121.570231 125,121.465409 C125.065826,121.109015 125.175535,120.726415 125.329128,120.31761 C125.482721,119.908805 125.663741,119.5 125.872189,119.091195 C126.080636,118.68239 126.316511,118.294549 126.579813,117.927673 C126.843116,117.560797 127.106418,117.251572 127.36972,117 C127.698848,117.146751 127.984092,117.398323 128.225453,117.754717 C128.466813,118.111111 128.653319,118.519916 128.78497,118.981132 C128.916621,119.442348 128.987932,119.929769 128.998903,120.443396 C129.009874,120.957023 128.938563,121.444444 128.78497,121.90566 C128.587493,121.968553 128.324191,122 127.995063,122 Z M126.166922,125.996161 C125.973966,126.016635 125.781011,125.955214 125.588055,125.8119 C125.287902,125.586692 125.105666,125.315419 125.041348,124.998081 C124.977029,124.680742 124.987749,124.348049 125.073507,124 C125.566616,124.040947 126.054364,124.087012 126.536753,124.138196 C127.019142,124.189379 127.506891,124.235445 128,124.276392 C127.957121,124.440179 127.871363,124.619322 127.742726,124.81382 C127.614089,125.008317 127.464012,125.18746 127.292496,125.351248 C127.12098,125.515035 126.933384,125.658349 126.729709,125.78119 C126.526034,125.904031 126.338438,125.975688 126.166922,125.996161 Z M143.963357,129.93584 C144.321016,130.026139 144.688341,130.021123 145.065333,129.920791 C145.442325,129.820459 145.785485,129.599728 146.094811,129.2586 C146.48147,128.97767 146.955126,128.455944 147.515781,127.693422 C148.076435,126.930899 148.762754,125.767049 149.574736,124.201871 C149.903396,123.579813 150.207889,122.977821 150.488217,122.395896 C150.768544,121.813971 151.010206,121.297262 151.213201,120.845768 C151.416197,120.394274 151.580527,120.028063 151.706191,119.747133 C151.763311,119.619438 151.809446,119.518692 151.844597,119.444894 L151.864369,119.403849 C151.895126,119.340831 151.914898,119.304761 151.923686,119.29564 C152.02035,119.034777 152.025184,118.788963 151.938186,118.5582 C151.851187,118.327437 151.701357,118.161889 151.488695,118.061557 C151.237367,117.961225 151.000539,117.956209 150.77821,118.046507 C150.555882,118.136806 150.396385,118.29232 150.299721,118.513051 C149.855064,119.536436 149.40074,120.529722 148.93675,121.492909 C148.47276,122.456095 148.02327,123.339016 147.588279,124.141672 C147.153288,124.944327 146.742464,125.636617 146.355806,126.218543 C145.969147,126.800468 145.630821,127.241928 145.340827,127.542924 L145.340827,127.542924 L145.311828,127.542924 C145.331161,127.382393 145.340827,127.231895 145.340827,127.09143 C145.340827,126.950966 145.36016,126.800468 145.398826,126.639937 C145.572822,125.716883 145.737152,124.793829 145.891816,123.870775 C146.046479,122.947722 146.210809,122.024668 146.384805,121.101614 C146.48147,120.559822 146.558801,120.01803 146.6168,119.476237 C146.674799,118.934445 146.655466,118.372586 146.558801,117.790661 C146.462137,117.168603 146.28814,116.596711 146.036812,116.074985 C145.804817,115.573325 145.476158,115.247247 145.050834,115.096749 C144.62551,114.946251 144.161519,114.971334 143.658864,115.171998 C143.252872,115.332529 142.846881,115.563292 142.44089,115.864288 C142.015566,116.145217 141.628907,116.461263 141.280915,116.812425 C140.932922,117.163586 140.604263,117.549864 140.294936,117.971258 C139.908278,118.492984 139.531286,119.02976 139.16396,119.581586 C138.796635,120.133411 138.419643,120.68022 138.032985,121.222013 L138.032985,121.222013 L138.003985,121.222013 C137.965319,121.302278 137.92182,121.372511 137.873488,121.43271 C137.825156,121.492909 137.781657,121.563141 137.742991,121.643407 C137.646326,121.783871 137.559328,121.929353 137.481997,122.079851 C137.404665,122.230349 137.332166,122.365797 137.264501,122.486195 C137.196836,122.606593 137.138837,122.701909 137.090505,122.772141 C137.042173,122.842373 137.00834,122.867456 136.989007,122.84739 L136.989007,122.84739 L136.989007,117.88096 C136.989007,117.519765 136.960008,117.15857 136.902009,116.797375 C136.84401,116.476313 136.72318,116.220466 136.539517,116.029836 C136.355854,115.839205 136.128692,115.723823 135.858031,115.68369 C135.587371,115.643558 135.345709,115.703757 135.133047,115.864288 C134.920385,116.024819 134.746389,116.245549 134.611058,116.526479 C134.475728,116.767275 134.38873,117.028138 134.350064,117.309068 C134.098736,118.553183 133.982738,119.792283 134.002071,121.026365 C134.021404,122.260448 134.195401,123.499547 134.52406,124.743663 C134.582059,124.964393 134.654557,125.180107 134.741555,125.390804 C134.828554,125.601501 134.939718,125.797148 135.075048,125.977746 C135.384375,126.439273 135.7662,126.695119 136.220524,126.745285 C136.674847,126.795451 137.095338,126.629903 137.481997,126.248642 C137.810656,125.92758 138.081317,125.566385 138.293979,125.165057 C138.545307,124.76373 138.782135,124.347352 139.004464,123.915925 C139.226792,123.484498 139.444288,123.06812 139.65695,122.666792 C140.062941,121.924336 140.497932,121.206963 140.961922,120.514673 C141.425912,119.822382 141.928568,119.155175 142.469889,118.513051 C142.547221,118.452852 142.619719,118.382619 142.687385,118.302354 C142.75505,118.222088 142.856548,118.111723 142.991878,117.971258 C142.953212,118.131789 142.929046,118.262221 142.91938,118.362553 C142.909713,118.462885 142.895213,118.54315 142.87588,118.603349 C142.489222,119.907664 142.228228,121.211979 142.092897,122.516295 C141.957567,123.82061 141.928568,125.134958 142.005899,126.459339 C142.005899,126.780401 142.034899,127.10648 142.092897,127.437575 C142.150896,127.768671 142.237894,128.074683 142.353892,128.355613 C142.489222,128.777007 142.701884,129.123152 142.991878,129.394048 C143.281872,129.664944 143.605698,129.845542 143.963357,129.93584 Z M152.833956,114.99256 C153.282966,115.038439 153.610743,114.872129 153.817288,114.493629 C154.023832,114.115129 154.055263,113.662077 153.91158,113.134471 C153.875659,113.019774 153.848718,112.905078 153.830758,112.790381 C153.812797,112.675684 153.785857,112.549517 153.749936,112.411881 C153.660134,111.930154 153.47155,111.55739 153.184184,111.293587 C152.896817,111.029784 152.56455,110.943762 152.187382,111.035519 C151.828174,111.104337 151.536317,111.333731 151.311812,111.7237 C151.087307,112.113669 150.984035,112.549517 151.001996,113.031244 C151.037916,113.627668 151.22201,114.10366 151.554278,114.45922 C151.886545,114.81478 152.313104,114.99256 152.833956,114.99256 Z M150.632469,128.13633 C151.494179,129.08813 152.516206,129.253238 153.698552,128.631654 C154.019188,128.456834 154.314774,128.248021 154.585311,128.005214 C154.855848,127.762408 155.101335,127.505034 155.321772,127.233091 C155.902925,126.514385 156.423958,125.795679 156.884873,125.076973 C157.065231,124.882728 157.235569,124.639922 157.395887,124.348555 C157.736562,123.804669 158.057198,123.270496 158.357795,122.746034 C158.658391,122.221573 158.923918,121.750529 159.154375,121.332903 C159.384832,120.915276 159.56519,120.575348 159.695448,120.313117 C159.825707,120.050887 159.900856,119.910059 159.920896,119.890635 C160.021094,119.676965 160.026104,119.448728 159.935926,119.205922 C159.845747,118.963116 159.690439,118.793151 159.470001,118.696029 C159.249564,118.598906 159.019107,118.59405 158.77863,118.68146 C158.538153,118.768871 158.357795,118.91941 158.237556,119.13308 C158.017119,119.560418 157.786662,120.016894 157.546185,120.502506 C157.325747,120.91042 157.07525,121.366896 156.794694,121.871933 C156.514137,122.376969 156.203521,122.891718 155.862845,123.416179 C155.46205,124.037763 155.101335,124.547656 154.780699,124.945858 C154.460062,125.34406 154.169486,125.66942 153.908969,125.921938 L153.908969,125.921938 L153.548254,126.271579 C153.528214,126.271579 153.518194,126.276435 153.518194,126.286147 C153.518194,126.29586 153.498154,126.300716 153.458075,126.300716 C153.417995,126.339565 153.397955,126.358989 153.397955,126.358989 L153.367896,126.388126 L153.337836,126.388126 C153.03724,126.562946 152.831832,126.577515 152.721614,126.431831 C152.611395,126.286147 152.546266,126.155032 152.526226,126.038485 C152.486147,125.941363 152.466107,125.84424 152.466107,125.747118 L152.466107,125.747118 L152.466107,125.426614 C152.506186,125.096397 152.541256,124.761325 152.571316,124.421396 C152.601375,124.081468 152.626425,123.736683 152.646465,123.387043 C152.686544,122.765459 152.741653,122.153588 152.811793,121.551428 C152.881932,120.949269 152.937041,120.337398 152.977121,119.715814 C152.977121,119.288476 152.917001,118.851425 152.796763,118.404661 C152.696564,117.977323 152.516206,117.647106 152.255689,117.414013 C151.995173,117.180919 151.694576,117.044947 151.3539,117.006098 C150.59239,116.947825 150.021257,117.307178 149.640501,118.084157 C149.540303,118.258978 149.460144,118.44351 149.400024,118.637755 C149.339905,118.832 149.299826,119.016533 149.279786,119.191353 C149.059349,120.337398 148.96917,121.473731 149.009249,122.600351 C149.049329,123.726971 149.209647,124.843879 149.490203,125.951075 C149.590402,126.339565 149.73068,126.718342 149.911038,127.087407 C150.091396,127.456473 150.331873,127.806113 150.632469,128.13633 Z M162.435944,126.978712 C162.961386,127.01774 163.64345,127.003104 164.482136,126.934807 C165.320823,126.866509 166.154457,126.588438 166.983039,126.100596 C167.872248,125.59324 168.630097,124.939531 169.256586,124.139469 C169.883075,123.339408 170.39336,122.553981 170.787441,121.78319 C171.181523,121.012399 171.474558,120.339177 171.666546,119.763523 C171.858535,119.187869 171.964634,118.870771 171.984843,118.81223 C172.025262,118.597579 171.984843,118.387807 171.863587,118.182913 C171.742331,117.978019 171.550343,117.836545 171.287622,117.75849 C171.04511,117.699949 170.812703,117.734098 170.590401,117.860937 C170.368098,117.987776 170.226633,118.178035 170.166005,118.431713 C170.044749,118.861014 169.893179,119.309829 169.711296,119.778158 C169.549621,120.168432 169.347528,120.602612 169.105016,121.080697 C168.862505,121.558783 168.579574,122.03199 168.256225,122.500319 C167.589318,123.202812 166.831469,123.788223 165.982678,124.256552 C165.154096,124.763908 164.274991,124.939531 163.345363,124.783421 C162.880549,124.685853 162.506676,124.51023 162.223746,124.256552 C161.940816,124.002873 161.779141,123.651627 161.738722,123.202812 C161.637676,122.129558 161.693252,121.080697 161.905449,120.056228 C162.117647,119.031759 162.486467,118.051196 163.011909,117.114538 C163.193793,116.821833 163.395886,116.587668 163.618188,116.412045 C163.961747,116.197394 164.300253,116.143732 164.633706,116.251057 C164.96716,116.358382 165.204619,116.597425 165.346084,116.968185 C165.406712,117.182836 165.462288,117.392608 165.512811,117.597502 C165.563335,117.802396 165.639119,118.002411 165.740166,118.197548 C165.90184,118.509768 166.1393,118.695148 166.452544,118.753689 C166.765789,118.81223 167.043667,118.714661 167.286178,118.460983 C167.468062,118.304874 167.599423,118.124372 167.68026,117.919478 C167.761097,117.714584 167.801516,117.504812 167.801516,117.290161 C167.801516,117.036483 167.796463,116.782805 167.786359,116.529127 C167.776254,116.275449 167.750992,116.031528 167.710574,115.797364 C167.548899,115.09487 167.195236,114.519216 166.649585,114.070401 C165.760375,113.387422 164.845904,113.031297 163.906171,113.002026 C162.966438,112.972756 162.062071,113.260583 161.193071,113.865508 C160.849513,114.099672 160.546373,114.367985 160.283652,114.670448 C160.020931,114.97291 159.778419,115.290007 159.556117,115.62174 C159.17214,116.207151 158.879105,116.821833 158.677012,117.465785 C158.474919,118.109737 158.30314,118.763446 158.161674,119.426911 C158.161674,119.52448 158.15157,119.607413 158.131361,119.675711 C158.111151,119.744009 158.101047,119.807428 158.101047,119.86597 C158,120.60749 157.974738,121.334375 158.025262,122.046625 C158.075785,122.758875 158.242512,123.48576 158.525442,124.227281 C159.071093,125.671295 160.101768,126.549411 161.617467,126.86163 L161.617467,126.86163 L161.647781,126.86163 C161.647781,126.881144 161.657885,126.890901 161.678095,126.890901 L161.678095,126.890901 L161.890292,126.890901 L161.920606,126.949442 C162.041862,126.949442 162.153013,126.959199 162.25406,126.978712 L162.25406,126.978712 L162.435944,126.978712 Z M178.539443,128.936332 C178.87471,129.025939 179.224768,129.020961 179.589617,128.921397 C179.954466,128.821834 180.304524,128.622707 180.639791,128.324017 C181.014501,127.945677 181.339907,127.55738 181.616009,127.159127 C181.852668,126.820611 182.094258,126.482096 182.340777,126.143581 C182.587297,125.805066 182.819026,125.46655 183.035963,125.128035 C183.233179,124.849258 183.435325,124.565502 183.642401,124.276769 C183.849478,123.988035 184.061485,123.664454 184.278422,123.306026 C184.633411,122.748472 184.968677,122.205852 185.284223,121.678166 C185.599768,121.15048 185.87587,120.677555 186.112529,120.259389 C186.349188,119.841223 186.536543,119.502707 186.674594,119.243843 C186.812645,118.984978 186.881671,118.84559 186.881671,118.825677 C187,118.646463 187.029582,118.477205 186.970418,118.317904 C187.029582,118.13869 186.970418,117.979389 186.792923,117.84 C186.674594,117.720524 186.585847,117.640873 186.526682,117.601048 C186.309745,117.501485 186.078016,117.481572 185.831497,117.54131 C185.584977,117.601048 185.402552,117.740437 185.284223,117.959476 C184.613689,119.213974 183.933295,120.408734 183.243039,121.543755 C182.552784,122.678777 181.892111,123.664454 181.261021,124.500786 C181.044084,124.779563 180.822216,125.043406 180.595418,125.292314 C180.368619,125.541223 180.146752,125.805066 179.929814,126.083843 C179.850928,126.183406 179.767111,126.263057 179.678364,126.322795 C179.589617,126.382533 179.476218,126.462183 179.338167,126.561747 L179.338167,126.561747 L179.338167,126.188384 C179.338167,126.098777 179.357889,126.004192 179.397332,125.904629 C179.436775,125.566114 179.486079,125.232576 179.545244,124.904017 C179.604408,124.575459 179.683295,124.251878 179.781903,123.933275 C180.038283,123.077031 180.294664,122.225764 180.551044,121.379476 C180.807425,120.533188 181.073666,119.681921 181.349768,118.825677 C181.448376,118.467249 181.537123,118.108821 181.616009,117.750393 C181.694896,117.391965 181.763921,117.033537 181.823086,116.675109 C181.901972,116.356507 181.892111,116.027948 181.793503,115.689432 C181.655452,115.211528 181.330046,114.922795 180.817285,114.823231 C180.560905,114.783406 180.339037,114.813275 180.151682,114.912838 C179.964327,115.012402 179.801624,115.161747 179.663573,115.360873 C179.584687,115.440524 179.535383,115.510218 179.515661,115.569956 C179.49594,115.629694 179.466357,115.679476 179.426914,115.719301 C179.150812,115.520175 178.87964,115.311092 178.613399,115.092052 C178.347158,114.873013 178.075986,114.693799 177.799884,114.55441 C176.813805,114.096419 175.857309,113.922183 174.930394,114.031703 C174.00348,114.141223 173.12587,114.55441 172.297564,115.271266 C171.272042,116.167336 170.493039,117.167948 169.960557,118.2731 C169.428074,119.378253 169.112529,120.587948 169.013921,121.902183 C168.974478,122.439825 169.018852,122.972489 169.147042,123.500175 C169.275232,124.02786 169.4971,124.530655 169.812645,125.008559 C170.266241,125.725415 170.852958,126.17345 171.572796,126.352664 C172.292633,126.531878 173.017401,126.412402 173.7471,125.994236 C174.00348,125.854847 174.240139,125.700524 174.457077,125.531266 C174.674014,125.362009 174.88109,125.187773 175.078306,125.008559 C175.354408,124.729782 175.615719,124.446026 175.862239,124.157293 C176.108759,123.868559 176.350348,123.584803 176.587007,123.306026 C176.62645,123.226376 176.680684,123.156681 176.74971,123.096943 C176.818735,123.037205 176.902552,122.957555 177.00116,122.857991 C177.00116,123.037205 176.991299,123.181572 176.971578,123.291092 C176.951856,123.400611 176.932135,123.505153 176.912413,123.604716 C176.87297,124.002969 176.838457,124.396245 176.808875,124.784541 C176.779292,125.172838 176.75464,125.556157 176.734919,125.934498 C176.734919,126.452227 176.823666,126.930131 177.00116,127.36821 C177.139211,127.786376 177.346288,128.129869 177.62239,128.39869 C177.898492,128.667511 178.204176,128.846725 178.539443,128.936332 Z M172.224323,124 C172.006798,123.466019 171.947473,122.985437 172.046348,122.558252 C172.323199,120.97767 172.995551,119.674757 174.063404,118.649515 C174.201829,118.5 174.369917,118.377184 174.567668,118.281068 C174.765418,118.184951 174.953281,118.115534 175.131257,118.072816 C175.625633,117.966019 175.991472,117.976699 176.228773,118.104854 C176.466073,118.23301 176.723149,118.564078 177,119.098058 C176.307873,119.995146 175.571252,120.854854 174.790137,121.677184 C174.009022,122.499515 173.153751,123.273786 172.224323,124 Z" id="Monica"></path>
        </g>
    </g>
</svg>