<?xml version="1.0" encoding="UTF-8"?>
<svg width="466px" height="123px" viewBox="0 0 466 123" version="1.1" xmlns="http://www.w3.org/2000/svg" xmlns:xlink="http://www.w3.org/1999/xlink">
    <title>monica</title>
    <g id="Page-1" stroke="none" stroke-width="1" fill="none" fill-rule="evenodd">
        <g id="color-10" transform="translate(-490.000000, -235.000000)" fill="#00FFA2" fill-rule="nonzero">
            <path d="M502.4,353.2 L503,352.6 L503,352.6 C508,345.6 512.6,338.2 517.4,331 C522.2,323.8 527.4,316.8 532.6,309.8 C536.4,304.8 540.6,299.8 545.2,295.2 C547.4,293 549,291.6 551,290 C550.8,291.8 550.6,293.6 550.2,295.4 C549,300.4 547.6,305.4 546.4,310.4 C544,319.8 541.8,329.2 539.4,338.6 C538,343.6 538.8,349.6 545.2,350.2 C546.6,350.4 548.2,350.2 549.8,349.6 C551.6,349.2 553.4,348.2 554.6,347.2 C554.8,347 555,346.6 555.2,346.4 C556.2,345.4 557.2,344.4 558,343.4 C561.2,338.8 563.2,333 565.6,328.2 C568.4,322.8 571.4,317.4 574.6,312.4 C577.6,307.6 580,304.4 583.4,300.6 L587.6,295.8 L587.6,295.8 L587.6,297 L587.6,297 C587.6,297.2 587.2,298.6 587.2,298.8 C586.8,300 585.8,303.4 585.2,305.4 L582.2,313.8 L582.2,313.8 C579.4,322.6 574.4,335.8 579.4,344.8 C582.8,351 590.6,351.2 596.4,348.6 C599.8,347 602.4,344.2 604.8,341.4 C611.2,333.8 616.6,325.8 622,317.4 C627.8,308.4 634.2,298.8 637.8,288.6 C639.4,284.4 634,284.4 632.2,287.2 L631.4,286.4 L630.760841,287.440557 L630.760841,287.440557 L629.486696,289.524385 L629.486696,289.524385 L626.946994,293.696992 C618.908049,306.910025 610.808889,320.053333 600,331.2 C598.6,332.6 598.4,332.8 597,333.8 L595.8,334.4 L595.8,334.4 C595.8,334.2 595.8,334.2 595.6,334.4 C595.4,334.4 595.2,334.4 595,334.2 C594.828571,334.028571 594.510204,333.563265 594.296793,333.307872 L594.21,333.211 L594.200391,333.200391 L594.200391,333.200391 L594.2,332.4 L594.2,332.4 C594,330.8 594,332.2 594.2,330.6 C595.4,322 600.4,312.2 604,303 C606.2,297 608.6,290.6 608,284 C607.6,280.4 606.4,276.8 603.2,274.8 C599,272 594.6,273 590.6,275 C582,278.2 575.2,285.6 569.6,293.4 C571,282.6 571.2,265.6 558,269.4 C548.2,272.2 540,280.4 533.6,287.8 C529.4,292.6 525.6,297.6 522.2,302.8 C522.8,301.4 523.4,299.8 524,298.4 C526.6,292.4 531.2,285.8 531.4,279.2 C531.4,275.8 530.4,272.6 526.6,271.6 C522.6,270.6 519,272.8 516.2,275.4 C510.6,280.4 507.8,288.4 504.8,295.2 C502.2,301.4 499.8,307.6 497.8,314 C495.8,320.6 494,327.2 492.8,334 C491.6,340.2 490,347.2 491.6,353.4 C493.2,359.2 499.8,357 502.4,353.2 Z M658,345.6 C665.6,338 669.6,327.8 671.8,317.4 C672.8,312.6 673.2,307.6 673.2,302.6 C683,300.6 692.2,295.8 699.6,289.2 C702.6,286.4 699.8,281.6 696.2,284.4 L696.4,284.8 C689.8,289.8 681.2,291.8 672.6,292 C672.2,289.4 671.8,286.8 671.2,284.4 C669,275.2 665,265.4 655.4,262 C644.4,258.2 632.8,265 629,275.6 C627.2,280.4 627.6,285.2 629.6,289.4 C626.6,290.4 624.2,292.8 622.4,295.2 C615.2,304.6 613.2,317.6 614,329.2 C614.6,338.4 618.2,347.8 626.4,352.6 C637,359 650,353.6 658,345.6 Z M654.2,288.8 C649.8,287.2 645.8,284.6 643.8,280.2 C643.2,279 642.8,277.4 643,276.4 C644,276.6 645.2,276.4 646.4,277 L646.6,277.2 C651,279.2 653,284.2 654.2,288.8 Z M644.6,333 L643.6,333 L643.6,333 C642.6,333 642,332.8 640.6,332 C640.4,332 639.2,331.2 638.2,330.2 C637.6,329.6 637.2,328.8 636.4,327.2 C635.4,325.2 635.6,326 635.2,323.8 C634.8,322.2 634.6,320.6 634.6,319 C634.2,311.8 636.4,305.6 638.2,298.6 C638.6,298.8 639,299 639.4,299.2 C644.2,301.6 650,302.8 655.8,303.2 C655.8,307 655.6,310.8 655,314.6 L655.6,314.4 C654.6,320.4 652.8,327.2 649.4,331.6 C649.275862,331.765517 649.237337,331.853983 649.240141,331.897282 L649.242,331.907 L649.185674,331.928279 C649.062545,331.977646 648.875862,332.062069 648.6,332.2 C649.2,331.8 648.2,332 648,332.4 L646.8,332.4 L646.8,332.4 C646,332.6 645.4,332.8 644.6,333 Z M679.2,356.2 C680.2,356 681.2,355.6 682,355 C688.4,350 691.6,342.2 695.6,335.2 C699,329.4 702.4,323.6 706.2,318 C709.4,313.2 712.6,308.6 716.2,304.2 C718,302 719.8,299.8 721.8,297.6 C722.2,297.2 722.6,296.8 723,296.4 L723,298 L723,298 C723,298 722.8,298.6 722.4,300 C722,301.2 721.6,302.4 721.2,303.6 L718.2,312 L718.2,312 C715.2,321 709.8,334.4 714.4,343.8 C717.2,349.4 725.2,350.2 730.4,348.2 C734,346.8 736.6,344.4 739.2,341.6 C746.2,334.4 751.6,325.8 757,317.4 C762.8,308.4 769.2,298.8 773,288.6 C774.6,284.4 769.2,284.4 767.4,287.2 L768.2,286.4 C767.336,287.816 766.47488,289.23488 765.61353,290.654566 L763.8896,293.4944 C758.136,302.96 752.28,312.4 745.4,321.2 C742,325.6 737.8,331.2 733.8,334.4 C734,334.2 733,334.8 732.6,335 L732.4,335 L732.4,335 C732.2,335 732,335.2 731.4,335 C731.2,334.8 731.2,334.8 731,334.8 C731,334.6 730.6,334 730.4,333.2 C730.6,333.4 730.4,331.2 730.4,331.2 C730.8,324.8 734.2,318 736.8,311.6 C739.6,304.4 743.2,296.8 744,289 C744.4,284.8 744,279.6 740.8,276.2 C736.8,272 730.2,272 725.2,274.2 C722.4,275.4 720,277.2 718,279.4 L716.2,281.8 L716.2,281.8 C716.8,280.8 716.6,280.8 715.8,281.8 C715.4,282.2 715,282.8 714.6,283.4 C711.8,286.2 709.2,289.2 706.8,292.2 C706.4,292.6 706.2,293 705.8,293.4 C708,289 710.4,284.4 710.6,279.8 C710.6,276.4 709.6,273.2 705.8,272.2 C701.8,271.2 698.2,273.4 695.4,276 C689.8,281 687,289 684,295.8 C681.4,302 679,308.2 677,314.6 C675,321.2 673.2,327.8 672,334.6 C670.8,340.8 669.2,347.8 670.8,354 C672,358.4 676.2,358.2 679.2,356.2 Z M799.2,259.2 C800.2,258.8 801.2,258.4 802.2,257.6 L803.4,256.4 L803.4,256.4 C804.6,255.4 805.4,254.8 806.4,253.8 L807,253.2 L807,253.2 L808.2,251.4 L808.2,251.4 C809.4,250.4 810.2,249.2 810.8,247.8 C811.6,246.6 812,245.2 812.2,243.8 L812.2,241.4 L812.2,241.4 C812,239.8 811.4,238.4 810.2,237.2 C810.2,237.2 808.4,236 808.4,236 C807.2,235.4 806,235.2 804.8,235.4 C803.4,235.4 802.2,235.6 801,236.2 L798.6,237.4 L798.6,237.4 C796.8,238.6 795.4,240 794.2,241.8 L791.8,245.4 L791.8,245.4 C790.6,247.4 789.2,249.4 789,251.8 C789,252.6 789,253.6 789.2,254.4 C789.6,257.6 789.4,255.8 789.8,256.6 L789.6,256.4 C790,257 790.4,257.6 790.8,258 C791.8,259 793,259.6 794.4,259.8 C796,260.2 797.8,259.6 799.2,259.2 Z M779.6,347.2 C788.8,340.8 795,331.6 800.8,322.2 C804.4,316.6 808,311 811.2,305 C812.6,302.2 813.8,299.4 815.2,296.6 C816.6,293.8 818.6,290.8 818.2,287.6 C818,285.2 815.2,286.2 814.2,287.2 L813.6,286.4 C811.2,288.4 810,291.4 808.4,294 C806.8,296.8 804.8,299.4 802.8,302 C799,307 795.2,312 791.2,316.8 C787.8,321 784.2,325.4 780,329 C779,329.8 776.4,331.6 775.4,332.2 C775.2,332.4 773.4,333 773,333.2 C772.8,332.8 770.8,332.2 770.4,332 C770.2,331.8 770.2,331.8 770,331.8 L769.933984,331.733984 L769.933984,331.733984 L769.800391,331.600391 C769.8,331.6 769.8,331.6 769.8,331.6 L769.2,330.4 L769.2,330.4 C769.2,330.4 769.2,330.2 769,329.6 L769,327.4 L769,327.4 C769.4,320.6 770.4,316.6 772.6,310.6 C775.2,303.8 776.8,301 780,295.2 C783.2,289.6 786.6,284.2 790.2,278.8 C793,274.6 793.8,267.4 788.4,265 C782.8,262.6 776.4,267.2 773.4,271.6 C766.4,282 759.8,293 754.8,304.6 C752.2,310.6 750.2,316.8 749,323.2 C748,328.8 747.2,335.2 748.4,340.8 C749.8,347.4 754.4,353.2 761.6,353.6 C767.8,354 774.6,350.6 779.6,347.2 Z M825.8,355 C833.8,351.8 840.8,345.8 846.6,339.4 C860,324.6 871.2,306.4 878.6,287.8 C880.6,282.8 874,282.8 871.8,286 L872.2,286.8 C864.6,298.6 856.8,310.2 847.8,320.8 C841.8,327.8 832.6,340 822,338.8 C817.4,338.4 814.2,334.4 813.4,330.8 C812.2,325.8 814,318.2 815.2,314.2 C816,311.4 817,308.8 818.2,306.2 L820,302.6 L820,302.6 C820.2,302.4 820.4,302 820.4,302 L821.6,299.6 L821.6,299.6 C823.2,297 824.8,294.4 826.6,292 L827.2,290.8 L827.2,290.8 L827.451852,290.548148 C827.548148,290.451852 827.651852,290.348148 827.748148,290.251852 L828,290 L828,290 C829,288.8 830,287.6 831.2,286.4 C832.4,285 833.8,283.8 835.2,282.6 L837.6,280.8 L837.6,280.8 L838.8,280.2 L838.8,280.2 L838.2,280.8 L838.2,280.8 C836.2,285.4 834.4,291.2 838.8,295.2 C842.8,298.8 848.2,295.8 851.6,292.8 C855.4,289.4 857.6,284.2 859.2,279.4 C860.8,274.4 861.6,268.8 859,264 C853.4,253.8 840,257.4 832,262 C817,270.8 805.6,286.8 798.8,302.4 C792.4,316.8 785.4,341.2 799.2,353.4 C806.6,359.8 817.4,358.4 825.8,355 Z M854.2,356.8 C861.072727,355 865.535537,349.585124 869.669722,344.170248 L870.219182,343.448582 L870.219182,343.448582 L870.765843,342.72882 C871.311471,342.010645 871.854545,341.298182 872.4,340.6 C877.4,334.2 882,327.4 886.8,320.8 L887.4,320.2 L887.4,320.2 C887,321.6 886.6,323 886.4,324.4 C885.4,330 884.6,336.4 885.8,342 C887.4,348.6 892.2,354 899.4,354.4 C901.4,354.4 903.4,354.2 905.2,353.6 C906.4,353.2 907.4,352.8 908.6,352.2 C910.413953,351.223256 910.183559,351.414711 909.742616,351.687668 L909.652164,351.743024 C909.62144,351.761624 909.590323,351.780263 909.559357,351.798622 L909.467456,351.852529 C909.362034,351.913683 909.265116,351.967442 909.2,352 C912,350.8 914.8,349.2 917.4,347.4 C926.6,340.6 932.6,331.2 938.6,321.6 C942,316 945.6,310.4 948.6,304.6 C950,302 951.2,299.2 952.6,296.4 C954,293.8 955.8,291 955.4,288 C955.2,285.6 952.6,286.6 951.6,287.6 L951.6,286.4 C950.133333,287.733333 949.111111,289.511111 948.118519,291.318519 L947.622771,292.222771 C947.291358,292.824691 946.955556,293.422222 946.6,294 C945,296.6 943,299 941.2,301.6 C937.6,306.4 933.8,311.2 930,316 C926.4,320.4 922.8,324.8 918.6,328.6 C917.6,329.4 914.8,331.6 914,332 C913.2,332.6 912.2,333.2 911.2,333.6 C909,333 908.6,332.8 910,333.2 L908.2,332.6 L908.2,332.6 C908,332.4 908,332.4 907.8,332.4 L907.733984,332.333984 L907.733984,332.333984 L907.600391,332.200391 C907.6,332.2 907.6,332.2 907.6,332.2 L907,331 L907,331 C907,331 907,330.6 906.8,330 L906.8,327.8 L906.8,327.8 C907,324.8 907.4,321.8 908,318.8 L908.6,317 L908.6,317 C908.6,316.8 908.6,316.6 908.8,316 C909.2,314.6 909.6,313.2 910.2,311.8 C912.6,305.2 914.2,302.4 917.4,296.8 C920.6,291.4 924.2,286.2 927.6,281 C930.4,276.8 931,269.6 925.6,267.2 C920,264.8 913.6,269.4 910.6,273.8 C909.2,275.8 908,277.8 906.8,279.8 L906.2,278.6 L906.2,278.6 C901.6,272.8 893.8,270.2 886.6,271.8 C878.6,273.6 872.2,279.6 866.8,285.6 C857.2,296.4 850,309 844.8,322.4 C842.4,328.6 839.8,335.6 839.4,342.4 C838.8,351 845,359.2 854.2,356.8 Z M859.8,338.6 L859.8,338.2 L859.8,338.2 C860.292308,336.107692 861.087574,334.015385 861.906145,331.923077 L862.520073,330.353846 C862.824852,329.569231 863.123077,328.784615 863.4,328 C864.4,325.2 865.4,322.4 866.6,319.6 L868.4,315.4 L868.4,315.4 C868.4,315.2 868.8,314.4 869,314 C869.2,313.6 869.8,312.6 869.8,312.4 C871.4,309.6 873,307 874.8,304.4 C875.6,303.2 876.6,302 877.6,300.8 L877.6,300.799 L877.645697,300.753859 C877.662349,300.737355 877.679247,300.720556 877.69631,300.703559 L877.8,300.6 L877.626,300.6 L877.637318,300.578426 C877.665306,300.534694 877.714286,300.485714 877.8,300.4 L879.6,298 L879.6,298 C880.6,296.8 881.6,295.6 882.8,294.4 L884.2,293 L884.2,293 C884.377778,293.177778 885.977778,293.987654 885.909739,293.884499 L885.902,293.878 L886.1183,294.041525 C888.062,295.581 888.67,297.31 890,299.4 L891.2,301.2 L891.2,301.2 C888.4,304.8 885.6,308.4 882.8,311.8 L883.2,311.6 C878.6,317.2 874,322.8 869.2,328.4 C867,331 864.6,333.6 862.2,336.2 L859.8,338.6 L859.8,338.6 Z" id="monica"></path>
        </g>
    </g>
</svg>