<?xml version="1.0" encoding="UTF-8"?>
<svg width="51px" height="51px" viewBox="0 0 51 51" version="1.1" xmlns="http://www.w3.org/2000/svg" xmlns:xlink="http://www.w3.org/1999/xlink">
    <title>m</title>
    <g id="Page-1" stroke="none" stroke-width="1" fill="none" fill-rule="evenodd">
        <g id="monica-logo-design" transform="translate(-517.000000, -389.000000)" fill="#0E043B" fill-rule="nonzero">
            <path d="M553.113,438.33 C554.779,437.056 555.661,435.096 556.837,433.43 C558.111,431.862 559.091,429.902 559.875,427.942 C561.345,424.218 562.619,420.494 563.991,416.672 C565.069,413.634 565.951,410.498 567.029,407.362 C567.078,407.117 567.127,406.823 567.176,406.51675 L567.274,405.898806 C567.290333,405.796722 567.306667,405.696 567.323,405.598 C567.421,404.912 567.323,404.226 566.637,404.03 C565.951,403.834 565.559,404.52 565.363,405.206 C564.971,406.578 564.677,407.95 564.285,409.224 C563.109,412.36 562.031,415.496 560.855,418.632 C559.287,422.454 557.817,426.374 556.053,430.098 C555.269,431.764 554.191,433.332 553.015,434.802 C552.623,435.39 551.839,435.782 550.957,436.468 C550.663,429.804 551.643,423.826 552.525,417.26 C553.407,411.184 553.995,405.304 555.171,399.326 C555.465,397.856 556.053,396.386 555.465,394.916 C554.583,392.564 553.211,390.702 551.055,389.722 C549.879,389.232 548.703,389.134 547.723,390.114 C546.449,391.486 545.077,392.662 543.999,394.23 C541.059,398.346 539.589,403.442 538.119,408.44 C537.825,409.42 537.531,410.498 537.237,411.576 C537.041,411.478 536.943,411.478 536.747,411.478 C537.041,409.028 537.237,406.578 537.531,404.128 C537.629,403.246 537.825,402.462 537.825,401.678 C537.923,399.522 536.453,397.758 534.199,396.876 C532.533,396.288 531.651,396.778 530.377,398.738 C530.181,399.13 529.985,399.522 529.789,399.914 C528.025,403.148 526.849,406.676 525.869,410.302 C525.575,411.282 525.281,412.262 524.987,413.34 C524.693,413.046 524.693,412.752 524.693,412.556 C524.987,410.008 525.379,407.558 525.673,405.01 C525.967,403.344 526.163,401.776 526.457,400.11 C526.849,397.856 526.261,396.484 524.399,395.7 C523.321,395.308 522.243,395.21 521.067,394.916 C520.871,395.406 520.675,395.798 520.577,396.19 C519.891,398.542 519.205,400.894 518.813,403.344 C518.127,407.166 517.637,410.89 517.245,414.712 C517.049,417.162 517.245,419.71 517.343,422.258 C517.343,423.042 517.637,423.826 517.931,424.61 C518.127,425.1 518.519,425.688 518.911,425.786 C521.263,428.726 522.733,427.55 524.889,427.06 C525.379,425.982 525.967,425.198 526.163,424.218 C526.751,421.768 527.339,419.318 527.731,416.77 C528.221,413.046 529.691,409.812 530.769,406.284 C531.063,405.402 531.455,404.52 531.847,403.638 C531.945,403.736 531.945,403.736 532.043,403.736 C532.043,404.52 532.043,405.304 531.847,405.99 C531.259,409.812 531.553,413.634 531.651,417.554 C531.749,419.906 532.239,421.964 534.591,422.65 C534.689,422.748 534.787,422.846 534.983,422.944 C536.747,424.022 538.119,423.336 538.903,421.18 C540.275,417.652 540.863,413.83 542.235,410.302 C543.509,406.774 545.077,403.344 546.645,400.11 C546.792,399.914 546.89,399.718 546.97575,399.522 L547.141806,399.13 C547.170389,399.064667 547.200333,398.999333 547.233,398.934 C547.135,401.09 546.743,403.246 546.351,405.402 C545.077,412.948 544.195,420.592 544.489,428.334 C544.587,430.588 544.881,433.038 545.469,435.194 C546.645,439.8 550.271,440.486 553.113,438.33 Z" id="m"></path>
        </g>
    </g>
</svg>