<?xml version="1.0" encoding="UTF-8"?>
<svg width="795px" height="158px" viewBox="0 0 795 158" version="1.1" xmlns="http://www.w3.org/2000/svg" xmlns:xlink="http://www.w3.org/1999/xlink">
    <!-- Generator: Sketch 62 (91390) - https://sketch.com -->
    <title>Monica</title>
    <desc>Created with Sketch.</desc>
    <g id="Page-1" stroke="none" stroke-width="1" fill="none" fill-rule="evenodd">
        <g id="Desktop-HD-Copy-2" transform="translate(-321.000000, -433.000000)" fill="#E41300" fill-rule="nonzero">
            <path d="M400.9,588 L446.5,454.4 L446.5,562.2 C446.5,582.6 438.5,588 438.5,588 L510.7,588 C510.7,588 502.7,582.6 502.7,562.2 L502.7,474 C502.7,453.4 510.7,448 510.7,448 L446.5,448 L425.9,509.2 L412.3,472.2 C405.3,452.6 410.5,448 410.5,448 L329.9,448 C329.9,448 341.9,451 350.5,465.4 L350.5,539.8 L350.5,539.8 C350.5,564.4 342.7,579.8 321.5,588 L382.1,588 C360.9,579.8 352.9,564.4 352.9,539.8 L352.9,469.6 L352.9,469.6 C353.296,470.194 399.95272,585.65572 400.885815,587.964895 L400.9,588 Z M584.7,590.2 C626.9,590.2 649.3,566.6 649.5,537.6 C649.3,508.4 626.9,484.8 584.7,484.8 C542.3,484.8 519.9,508.4 519.7,537.6 C519.9,566.6 542.3,590.2 584.7,590.2 Z M584.7,588.6 C571.1,588.6 570.5,559.2 570.1,537.6 C570.5,515.8 571.1,486.4 584.7,486.4 C598.1,486.4 598.7,515.8 599.1,537.6 C598.7,559.2 598.1,588.6 584.7,588.6 Z M719.3,588 C719.3,588 711.3,582.6 711.3,562.2 L711.3,511.8 L711.3,511.8 C711.3,502 716.9,494.6 722.3,494.8 C731.9,495 732.5,510.4 732.5,522.2 L732.5,562.2 C732.5,582.6 724.5,588 724.5,588 L791.5,588 C791.5,588 783.3,582.6 783.3,562.2 L783.3,524 C783.3,502 771.3,484.8 743.1,484.8 C732.5,484.8 717.7,487.4 711.3,500.8 L705.9,487.2 L652.5,487.2 C652.5,487.2 660.5,492.6 660.5,513.2 L660.5,562.2 C660.5,582.6 652.5,588 652.5,588 L719.3,588 Z M831.9,482 C846.7,482 858.5,471.2 858.5,457.6 C858.5,444.2 846.7,433.4 831.9,433.4 C817.1,433.4 805.1,444.2 805.1,457.6 C805.1,471.2 817.1,482 831.9,482 Z M865.3,588 C865.3,588 857.3,582.6 857.3,562.2 L857.3,513 C857.3,492.6 865.3,487.2 865.3,487.2 L798.5,487.2 C798.5,487.2 806.5,492.6 806.5,513 L806.5,562.2 C806.5,582.6 798.5,588 798.5,588 L865.3,588 Z M930.1,590.2 C954.3,590 974.7,579.6 984.1,559.4 L982.1,559.4 C964.3,577.6 928.5,572.2 919.3,537.6 C913.1,513.6 919.1,486.2 936.1,486.2 C962.7,486.2 978.1,531.8 978.1,531.8 L974.5,484.4 C974.5,484.4 968.7,491.8 954.1,488 C940.1,484.6 934.9,484.8 933.1,484.8 C901.5,484.8 870.3,500 870.3,537.6 C870.3,572.8 898.5,590.2 930.1,590.2 Z M1056.7,574.2 C1058.3,583.8 1062.3,588 1073.5,588 L1115.5,588 L1115.5,588 C1115.5,588 1107.5,582.6 1107.5,562.2 L1107.5,528.6 L1107.5,528.6 C1107.5,489.2 1067.9,484.8 1043.9,484.8 C1023.5,484.8 1002.3,491 1001.5,511 C1000.9,526.6 1013.7,530 1024.3,528.2 C1032.9,526.6 1041.5,518.6 1034.5,502 C1029.1,489 1035.5,486.4 1042.7,486.4 C1053.3,486.4 1056.5,503.6 1056.7,520.6 C1028.5,538.4 989.1,536.2 989.1,567.2 C989.1,597.4 1045.9,595.8 1056.7,574.2 Z M1046.9,579.2 C1033.7,577 1030.1,535.2 1056.7,523.4 L1056.7,564.8 L1056.7,564.8 C1056.7,573.4 1052.3,580 1046.9,579.2 Z" id="Monica"></path>
        </g>
    </g>
</svg>