<?xml version="1.0" encoding="UTF-8"?>
<svg width="119px" height="27px" viewBox="0 0 119 27" version="1.1" xmlns="http://www.w3.org/2000/svg" xmlns:xlink="http://www.w3.org/1999/xlink">
    <title>monica</title>
    <g id="Page-1" stroke="none" stroke-width="1" fill="none" fill-rule="evenodd">
        <g id="desktop-todo" transform="translate(-98.000000, -98.000000)" fill="#00FFA2" fill-rule="nonzero">
            <path d="M103.154585,120.972443 C103.67525,121.045929 104.130832,120.972443 104.521331,120.751986 C104.911829,120.531529 105.237245,120.219215 105.497578,119.815043 C105.68353,119.521101 105.832291,119.227158 105.943862,118.933215 C106.055433,118.639272 106.185599,118.326958 106.334361,117.996272 C106.669074,117.077701 106.975895,116.140759 107.254823,115.185445 C107.53375,114.230131 107.859166,113.293188 108.23107,112.374617 L108.23107,112.374617 L110.685634,106.422276 C110.760014,106.238562 110.85299,106.073219 110.964561,105.926248 C111.076133,105.779277 111.224894,105.55882 111.410846,105.264877 C111.485227,105.55882 111.531715,105.806834 111.55031,106.008919 C111.568905,106.211005 111.615393,106.403905 111.689774,106.587619 C111.875725,107.395962 112.061677,108.185933 112.247629,108.957533 C112.433581,109.729132 112.638128,110.519104 112.86127,111.327446 C113.084412,112.062303 113.474911,112.79716 114.032767,113.532017 C114.665003,114.524074 115.427405,115.056845 116.319974,115.130331 C117.212543,115.203816 118.086517,114.818016 118.941895,113.972931 C119.350989,113.56876 119.722893,113.127846 120.057606,112.650189 C120.392319,112.172532 120.727033,111.694875 121.061746,111.217218 C121.50803,110.519104 121.963612,109.82099 122.428492,109.122876 C122.893371,108.424761 123.386144,107.745019 123.906809,107.083648 C124.092761,106.826448 124.260117,106.605991 124.408879,106.422276 C124.55764,106.238562 124.724997,106.054848 124.910949,105.871134 C124.948139,105.871134 124.985329,105.88032 125.02252,105.898691 C125.05971,105.917062 125.0969,105.926248 125.134091,105.926248 C125.0969,106.183448 125.050413,106.449834 124.994627,106.725405 C124.938841,107.000976 124.873758,107.267362 124.799378,107.524562 C124.501855,108.773819 124.278712,110.01389 124.129951,111.244775 C123.98119,112.47566 123.925404,113.734103 123.962594,115.020102 C123.962594,116.195873 124.241522,117.279787 124.799378,118.271844 C125.431614,119.227158 126.240504,119.796672 127.226049,119.980386 C128.211594,120.1641 129.169246,119.888529 130.099005,119.153672 C130.396528,118.896472 130.684753,118.611715 130.963681,118.299401 C131.242608,117.987087 131.475048,117.665587 131.661,117.334901 C131.846952,117.151187 132.005011,116.949101 132.135177,116.728644 C132.265343,116.508187 132.423403,116.306102 132.609354,116.122387 C133.16721,115.387531 133.70647,114.597559 134.227135,113.752474 C134.7478,112.907389 135.231275,112.053117 135.67756,111.189661 C136.123844,110.326204 136.532938,109.508675 136.904842,108.737076 C137.276745,107.965476 137.592863,107.304105 137.853196,106.752962 C138.039148,106.312048 138.048445,105.88032 137.881089,105.457777 C137.713732,105.035234 137.406912,104.732106 136.960627,104.548391 C136.551533,104.364677 136.133142,104.355491 135.705452,104.520834 C135.277763,104.686177 134.970943,104.989306 134.784991,105.43022 C133.966803,107.230619 133.092829,108.92079 132.16307,110.500732 C131.233311,112.080675 130.396528,113.366674 129.65272,114.358731 C129.61553,114.432217 129.503959,114.524074 129.318007,114.634302 C129.503959,113.715731 129.662018,112.852274 129.792184,112.043932 C129.92235,111.235589 130.043219,110.408875 130.15479,109.56379 C130.303552,108.571733 130.452313,107.57049 130.601075,106.560062 C130.749836,105.549634 130.861407,104.511649 130.935788,103.446106 C130.972978,102.637763 130.824217,101.792678 130.489504,100.91085 C130.191981,100.175993 129.717803,99.6707788 129.066972,99.3952075 C128.416141,99.1196361 127.718821,99.1288218 126.975014,99.4227646 C126.714681,99.4962503 126.463646,99.6064788 126.221909,99.7534502 C125.980172,99.9004216 125.766327,100.065764 125.580375,100.249479 C124.501855,100.947593 123.562798,101.737564 122.763205,102.619392 C121.963612,103.50122 121.191912,104.438163 120.448105,105.43022 C120.00182,106.054848 119.564834,106.688662 119.137144,107.331662 C118.709455,107.974662 118.291064,108.608476 117.88197,109.233104 C117.807589,109.380075 117.72391,109.49949 117.630935,109.591347 C117.623187,109.599002 117.615116,109.606975 117.606722,109.615268 L117.258062,109.959732 L117.258062,109.959732 L117.212543,110.004704 C117.100972,109.674018 117.045186,109.398447 117.045186,109.17799 C116.896425,108.185933 116.775556,107.175505 116.68258,106.146705 C116.589604,105.117905 116.487331,104.089106 116.37576,103.060306 C116.301379,102.545906 116.226998,102.049878 116.152618,101.572221 C116.078237,101.094564 115.948071,100.616907 115.762119,100.13925 C115.353025,99.0369647 114.6743,98.3572221 113.725946,98.1000222 C112.777592,97.8428223 111.838535,98.0816508 110.908776,98.8165077 C110.648443,99.0002219 110.425301,99.1931218 110.239349,99.3952075 C110.053398,99.5972931 109.867446,99.790193 109.681494,99.9739073 C108.677354,101.03945 107.821976,102.206035 107.115359,103.473663 C106.408742,104.741291 105.776505,106.036477 105.21865,107.359219 L105.21865,107.359219 L104.71658,108.351276 C104.530628,107.800133 104.391164,107.267362 104.298188,106.752962 C104.205213,106.238562 104.102939,105.724162 103.991368,105.209763 C103.805416,104.364677 103.610167,103.519592 103.40562,102.674506 C103.201073,101.829421 102.857062,101.03945 102.373587,100.304593 C102.187635,100.01065 101.983088,99.7258931 101.759946,99.4503217 C101.536804,99.1747504 101.276471,98.9451076 100.978948,98.7613934 C100.346712,98.3572221 99.7144759,98.3204793 99.0822396,98.6511649 C98.4500034,98.9818505 98.096695,99.5146217 98.0223142,100.249479 C97.9851239,100.433193 97.9944214,100.635278 98.050207,100.855736 C98.1059925,101.076193 98.1524805,101.278278 98.1896709,101.461992 C98.2640516,101.939649 98.3477299,102.398935 98.4407058,102.839849 C98.5336817,103.280763 98.6173601,103.75842 98.6917408,104.27282 C98.9520734,106.146705 99.2124059,108.029776 99.4727385,109.922032 C99.733071,111.814289 100.011999,113.715731 100.309522,115.626359 C100.421093,116.28773 100.551259,116.93073 100.700021,117.555358 C100.848782,118.179987 101.016139,118.804615 101.20209,119.429243 C101.350852,119.870158 101.583292,120.2284 101.89941,120.503972 C102.215528,120.779543 102.63392,120.9357 103.154585,120.972443 Z M137.834449,122.348161 C139.295192,123.253493 140.682897,123.215771 141.997565,122.234994 C142.338405,122.008661 142.648813,121.75718 142.928789,121.480551 C143.208764,121.203921 143.482654,120.914718 143.750456,120.612941 C144.164334,120.160274 144.51126,119.657312 144.791236,119.104053 C145.071211,118.550795 145.308582,117.972388 145.503348,117.368833 C145.576385,117.217944 145.637249,117.104778 145.68594,117.029333 C146.53804,116.853297 147.335362,116.501223 148.077906,115.973112 C148.82045,115.445002 149.465612,114.89803 150.01339,114.332198 C150.561169,113.766365 150.993305,113.257116 151.309799,112.804449 C151.626293,112.351783 151.796713,112.100302 151.821059,112.050006 C151.991479,111.773377 152.04017,111.484173 151.967133,111.182396 C151.894096,110.880618 151.735849,110.641711 151.492392,110.465674 C151.224589,110.289637 150.944614,110.239341 150.652465,110.314786 C150.360316,110.39023 150.129032,110.553693 149.958612,110.805174 C149.861229,110.956063 149.739501,111.125812 149.593427,111.314423 C149.447352,111.503034 149.289105,111.710506 149.118685,111.936839 C148.850883,112.213469 148.56482,112.490098 148.260499,112.766727 C147.956178,113.043357 147.621424,113.282264 147.256239,113.483449 C147.13451,113.558893 147.006695,113.62805 146.872794,113.690921 C146.738892,113.753791 146.574559,113.835522 146.379793,113.936115 L146.379793,113.936115 L146.379793,112.578116 C146.306756,111.32071 146.069385,110.151323 145.667681,109.069954 C145.265977,107.988585 144.553865,107.04553 143.531345,106.24079 C143.433962,106.190494 143.360925,106.11505 143.312234,106.014457 C143.093122,105.687532 142.837492,105.461199 142.545344,105.335458 C142.253195,105.209717 141.924528,105.146847 141.559343,105.146847 L141.559343,105.146847 L141.321972,105.146847 C141.236762,105.146847 141.157638,105.134273 141.084601,105.109125 C139.916007,104.882792 138.747413,105.008532 137.578819,105.486347 C136.872794,105.762976 136.227632,106.203068 135.643335,106.806623 C135.059038,107.410178 134.620816,108.108038 134.328667,108.900204 C134.036519,109.69237 133.939136,110.541119 134.036519,111.446451 C134.133901,112.351783 134.51126,113.257116 135.168594,114.162448 C135.36336,114.388781 135.436397,114.728281 135.387705,115.180947 C135.339014,115.583317 135.290323,115.979399 135.241631,116.369195 C135.19294,116.758991 135.168594,117.155074 135.168594,117.557444 C135.217285,119.695034 136.105904,121.29194 137.834449,122.348161 Z M143.743829,115 C143.332419,115 142.900439,114.974843 142.447888,114.924528 C141.995337,114.874214 141.549643,114.798742 141.110806,114.698113 C140.671969,114.597484 140.3017,114.484277 140,114.358491 C140.082282,113.930818 140.219419,113.471698 140.41141,112.981132 C140.603401,112.490566 140.829676,112 141.090236,111.509434 C141.350795,111.018868 141.645639,110.553459 141.974767,110.113208 C142.303895,109.672956 142.633022,109.301887 142.96215,109 C143.37356,109.176101 143.730115,109.477987 144.031816,109.90566 C144.333516,110.333333 144.566648,110.823899 144.731212,111.377358 C144.895776,111.930818 144.984915,112.515723 144.998629,113.132075 C145.012342,113.748428 144.923204,114.333333 144.731212,114.886792 C144.484366,114.962264 144.155239,115 143.743829,115 Z M140.555896,118.996161 C140.298622,119.016635 140.041348,118.955214 139.784074,118.8119 C139.383869,118.586692 139.140888,118.315419 139.05513,117.998081 C138.969372,117.680742 138.983665,117.348049 139.098009,117 C139.755487,117.040947 140.405819,117.087012 141.049005,117.138196 C141.69219,117.189379 142.342522,117.235445 143,117.276392 C142.942828,117.440179 142.828484,117.619322 142.656968,117.81382 C142.485452,118.008317 142.28535,118.18746 142.056662,118.351248 C141.827973,118.515035 141.577846,118.658349 141.306279,118.78119 C141.034712,118.904031 140.784584,118.975688 140.555896,118.996161 Z M162.730956,124.918731 C163.187965,125.03311 163.657325,125.026755 164.139037,124.899668 C164.620749,124.772581 165.05923,124.492989 165.454481,124.060893 C165.948544,123.705049 166.553772,123.044196 167.270164,122.078334 C167.986556,121.112472 168.863519,119.638262 169.901052,117.655703 C170.321006,116.867763 170.710081,116.10524 171.068277,115.368135 C171.426473,114.63103 171.735263,113.976531 171.994646,113.404639 C172.254029,112.832747 172.464006,112.36888 172.624577,112.013036 C172.697563,111.851288 172.756514,111.723676 172.801429,111.630199 L172.826694,111.578209 C172.865994,111.498385 172.891259,111.452697 172.902487,111.441144 C173.026003,111.110717 173.032179,110.799354 172.921015,110.507053 C172.809851,110.214753 172.618401,110.005059 172.346666,109.877972 C172.025525,109.750885 171.722911,109.744531 171.438825,109.858909 C171.154738,109.973288 170.950937,110.170273 170.827421,110.449864 C170.259248,111.746153 169.678723,113.004315 169.085847,114.224351 C168.492971,115.444387 167.918622,116.562754 167.362801,117.579451 C166.80698,118.596148 166.282037,119.473049 165.787974,120.210154 C165.29391,120.947259 164.861605,121.506442 164.491057,121.887704 L164.491057,121.887704 L164.454003,121.887704 C164.478706,121.684364 164.491057,121.493734 164.491057,121.315812 C164.491057,121.13789 164.51576,120.947259 164.565167,120.74392 C164.787495,119.574718 164.997472,118.405517 165.195098,117.236316 C165.392723,116.067114 165.6027,114.897913 165.825029,113.728712 C165.948544,113.042441 166.047357,112.356171 166.121467,111.6699 C166.195576,110.98363 166.170873,110.271942 166.047357,109.534837 C165.923841,108.746897 165.701513,108.022501 165.380372,107.361648 C165.083933,106.726212 164.66398,106.313179 164.12051,106.122548 C163.57704,105.931918 162.984164,105.963689 162.341881,106.217864 C161.823115,106.421203 161.304348,106.713503 160.785581,107.094765 C160.242112,107.450609 159.748048,107.850933 159.303391,108.295738 C158.858734,108.740543 158.43878,109.229828 158.043529,109.763594 C157.549466,110.424447 157.067754,111.104363 156.598394,111.803342 C156.129033,112.502321 155.647322,113.194946 155.153258,113.881216 L155.153258,113.881216 L155.116203,113.881216 C155.066797,113.982886 155.011215,114.071847 154.949457,114.148099 L154.913143,114.195375 C154.865713,114.260444 154.822236,114.333646 154.782711,114.414982 C154.659195,114.592904 154.54803,114.77718 154.449218,114.967811 C154.350405,115.158441 154.257768,115.330009 154.171307,115.482514 C154.084846,115.635018 154.010736,115.755751 153.948979,115.844712 C153.887221,115.933673 153.84399,115.965445 153.819287,115.940027 L153.819287,115.940027 L153.819287,109.649215 C153.819287,109.191702 153.782232,108.734188 153.708123,108.276675 C153.634013,107.869996 153.479618,107.545924 153.244938,107.304458 C153.010258,107.062993 152.719996,106.916843 152.374151,106.866008 C152.028307,106.815173 151.719517,106.891425 151.447782,107.094765 C151.176047,107.298104 150.953719,107.577696 150.780797,107.93354 C150.607874,108.238549 150.49671,108.568975 150.447304,108.924819 C150.126163,110.500699 149.977944,112.070225 150.002647,113.633396 C150.02735,115.196568 150.249678,116.766093 150.669632,118.341973 C150.743742,118.621565 150.836379,118.894802 150.947543,119.161685 C151.058707,119.428568 151.200751,119.676388 151.373673,119.905145 C151.768924,120.489746 152.256811,120.813818 152.837336,120.877361 C153.41786,120.940905 153.955154,120.731211 154.449218,120.24828 C154.869172,119.841601 155.215016,119.384088 155.486751,118.875739 C155.807892,118.367391 156.110506,117.839979 156.394593,117.293505 C156.678679,116.74703 156.95659,116.219619 157.228325,115.71127 C157.747091,114.770826 158.302913,113.862153 158.895789,112.985252 C159.488665,112.108351 160.130947,111.263222 160.822636,110.449864 C160.921449,110.373612 161.014086,110.284651 161.100547,110.182981 C161.187008,110.081312 161.3167,109.941516 161.489622,109.763594 C161.440216,109.966933 161.409337,110.132146 161.396985,110.259234 C161.384633,110.386321 161.366106,110.48799 161.341403,110.564243 C160.847339,112.216375 160.513847,113.868507 160.340924,115.52064 C160.168002,117.172772 160.130947,118.837613 160.22976,120.515163 C160.22976,120.921842 160.266815,121.334875 160.340924,121.754262 C160.415034,122.17365 160.526198,122.561265 160.674417,122.917109 C160.847339,123.450875 161.119074,123.889326 161.489622,124.232461 C161.860169,124.575596 162.273948,124.804353 162.730956,124.918731 Z M175.056593,105.9907 C175.804943,106.048049 176.351238,105.840161 176.695479,105.367036 C177.03972,104.893912 177.092105,104.327596 176.852633,103.668089 C176.792765,103.524718 176.747864,103.381347 176.71793,103.237976 C176.687996,103.094605 176.643095,102.936897 176.583227,102.764851 C176.433557,102.162693 176.11925,101.696737 175.640306,101.366984 C175.161362,101.03723 174.607583,100.929702 173.978969,101.044399 C173.38029,101.130421 172.893862,101.417164 172.519687,101.904625 C172.145512,102.392087 171.973392,102.936897 172.003326,103.539055 C172.063194,104.284585 172.370017,104.879575 172.923796,105.324025 C173.477575,105.768475 174.188507,105.9907 175.056593,105.9907 Z M172.077688,122.920412 C173.174409,124.110162 174.475172,124.316547 175.979975,123.539568 C176.388057,123.321042 176.764258,123.060026 177.108578,122.756518 C177.452897,122.45301 177.765335,122.131292 178.045892,121.791364 C178.785541,120.892981 179.448674,119.994599 180.035293,119.096216 C180.264839,118.85341 180.481633,118.549902 180.685674,118.185693 C181.119261,117.505836 181.527344,116.83812 181.909921,116.182543 C182.292498,115.526967 182.630441,114.938162 182.92375,114.416129 C183.217059,113.894096 183.446606,113.469185 183.612389,113.141397 C183.778172,112.813609 183.873817,112.637574 183.899322,112.613293 C184.026848,112.346207 184.033224,112.06091 183.918451,111.757402 C183.803678,111.453894 183.606013,111.241439 183.325456,111.120036 C183.0449,110.998633 182.75159,110.992563 182.445529,111.101826 C182.139467,111.211088 181.909921,111.399263 181.75689,111.66635 C181.476333,112.200523 181.183024,112.771117 180.876962,113.378133 C180.596406,113.888025 180.277592,114.45862 179.92052,115.089916 C179.563448,115.721211 179.168118,116.364648 178.73453,117.020224 C178.224428,117.797204 177.765335,118.43457 177.357253,118.932322 C176.94917,119.430075 176.579346,119.836775 176.247779,120.152423 L176.247779,120.152423 L175.788686,120.589474 C175.763181,120.589474 175.750429,120.595544 175.750429,120.607684 C175.750429,120.619824 175.724924,120.625895 175.673913,120.625895 C175.622903,120.674456 175.597398,120.698736 175.597398,120.698736 L175.55914,120.735157 L175.520882,120.735157 C175.138305,120.953683 174.876878,120.971893 174.736599,120.789789 C174.596321,120.607684 174.513429,120.44379 174.487924,120.298106 C174.436914,120.176703 174.411409,120.0553 174.411409,119.933897 L174.411409,119.933897 L174.411409,119.533267 C174.462419,119.120497 174.507053,118.701656 174.545311,118.276746 C174.583568,117.851835 174.61545,117.420854 174.640955,116.983803 C174.691965,116.206824 174.762104,115.441984 174.851372,114.689286 C174.94064,113.936587 175.01078,113.171747 175.06179,112.394768 C175.06179,111.860595 174.985274,111.314281 174.832244,110.755827 C174.704718,110.221653 174.475172,109.808883 174.143605,109.517516 C173.812038,109.226148 173.429461,109.056184 172.995873,109.007623 C172.026678,108.934781 171.299781,109.383972 170.815184,110.355197 C170.687658,110.573722 170.585637,110.804388 170.509122,111.047194 C170.432606,111.29 170.381596,111.520666 170.356091,111.739192 C170.075534,113.171747 169.960761,114.592163 170.011772,116.000438 C170.062782,117.408714 170.266823,118.804849 170.623895,120.188844 C170.751421,120.674456 170.929957,121.147928 171.159503,121.609259 C171.389049,122.070591 171.695111,122.507642 172.077688,122.920412 Z M186.386503,121.97263 C187.02454,122.022808 187.852761,122.003991 188.871166,121.91618 C189.889571,121.828368 190.90184,121.470849 191.907975,120.843623 C192.98773,120.191308 193.907975,119.350825 194.668712,118.322175 C195.429448,117.293524 196.04908,116.28369 196.527607,115.292673 C197.006135,114.301656 197.361963,113.436084 197.595092,112.695958 C197.828221,111.955831 197.957055,111.548134 197.981595,111.472867 C198.030675,111.196888 197.981595,110.92718 197.834356,110.663745 C197.687117,110.400311 197.453988,110.218415 197.134969,110.118059 C196.840491,110.042792 196.558282,110.086698 196.288344,110.249776 C196.018405,110.412855 195.846626,110.657473 195.773006,110.983631 C195.625767,111.53559 195.441718,112.112638 195.220859,112.714774 C195.02454,113.216555 194.779141,113.774786 194.484663,114.389468 C194.190184,115.004149 193.846626,115.612559 193.453988,116.214696 C192.644172,117.117901 191.723926,117.870572 190.693252,118.472709 C189.687117,119.125024 188.619632,119.350825 187.490798,119.150113 C186.92638,119.024668 186.472393,118.798867 186.128834,118.472709 C185.785276,118.146552 185.588957,117.694949 185.539877,117.117901 C185.417178,115.738004 185.484663,114.389468 185.742331,113.072293 C186,111.755119 186.447853,110.494394 187.08589,109.290121 C187.306748,108.913785 187.552147,108.612716 187.822086,108.386915 C188.239264,108.110936 188.650307,108.041941 189.055215,108.179931 C189.460123,108.31792 189.748466,108.625261 189.920245,109.101953 C189.993865,109.377932 190.06135,109.647639 190.122699,109.911074 C190.184049,110.174509 190.276074,110.431672 190.398773,110.682562 C190.595092,111.083987 190.883436,111.322333 191.263804,111.3976 C191.644172,111.472867 191.981595,111.347422 192.276074,111.021264 C192.496933,110.820552 192.656442,110.588478 192.754601,110.325043 C192.852761,110.061609 192.90184,109.791901 192.90184,109.515922 C192.90184,109.189764 192.895706,108.863607 192.883436,108.537449 C192.871166,108.211292 192.840491,107.897679 192.791411,107.59661 C192.595092,106.693405 192.165644,105.953278 191.503067,105.37623 C190.423313,104.498114 189.312883,104.040239 188.171779,104.002605 C187.030675,103.964972 185.932515,104.335035 184.877301,105.112795 C184.460123,105.413864 184.092025,105.758838 183.773006,106.147718 C183.453988,106.536598 183.159509,106.944295 182.889571,107.370809 C182.423313,108.12348 182.067485,108.913785 181.822086,109.741723 C181.576687,110.569662 181.368098,111.410144 181.196319,112.263172 C181.196319,112.388617 181.184049,112.495245 181.159509,112.583057 C181.134969,112.670869 181.122699,112.752408 181.122699,112.827675 C181,113.781059 180.969325,114.715625 181.030675,115.631375 C181.092025,116.547125 181.294479,117.481692 181.638037,118.435076 C182.300613,120.291664 183.552147,121.420671 185.392638,121.822096 L185.392638,121.822096 L185.429448,121.822096 C185.429448,121.847185 185.441718,121.859729 185.466258,121.859729 L185.466258,121.859729 L185.723926,121.859729 L185.760736,121.934997 C185.907975,121.934997 186.042945,121.947541 186.165644,121.97263 L186.165644,121.97263 L186.386503,121.97263 Z M206.189288,123.919354 C206.617685,124.032856 207.064981,124.02655 207.531177,123.900437 C207.997374,123.774323 208.44467,123.522096 208.873067,123.143755 C209.351863,122.664524 209.767659,122.172681 210.120456,121.668227 C210.422854,121.239441 210.731551,120.810655 211.046549,120.381869 C211.361546,119.953083 211.657644,119.524297 211.934841,119.095511 C212.186839,118.742393 212.445137,118.382969 212.709735,118.01724 C212.974333,117.651511 213.245231,117.241642 213.522428,116.787633 C213.976025,116.081397 214.404421,115.394079 214.807618,114.725677 C215.210815,114.057275 215.563612,113.458236 215.866009,112.928559 C216.168407,112.398882 216.407805,111.970096 216.584203,111.642201 C216.760602,111.314306 216.848801,111.137747 216.848801,111.112524 C217,110.88552 217.0378,110.671127 216.9622,110.469345 C217.0378,110.242341 216.9622,110.040559 216.735402,109.864 C216.584203,109.712664 216.470804,109.611773 216.395205,109.561328 C216.118007,109.435214 215.82191,109.409991 215.506912,109.485659 C215.191915,109.561328 214.958817,109.737886 214.807618,110.015336 C213.950825,111.604367 213.081432,113.117729 212.199439,114.555424 C211.317447,115.993118 210.473253,117.241642 209.66686,118.300996 C209.389662,118.654114 209.106165,118.988314 208.816367,119.303598 C208.526569,119.618882 208.243072,119.953083 207.965874,120.306201 C207.865075,120.432314 207.757976,120.533205 207.644577,120.608873 C207.531177,120.684541 207.386279,120.785432 207.20988,120.911546 L207.20988,120.911546 L207.20988,120.43862 C207.20988,120.325118 207.23508,120.20531 207.28548,120.079197 C207.335879,119.65041 207.398879,119.22793 207.474478,118.811755 C207.550077,118.395581 207.650877,117.985712 207.776875,117.582148 C208.104473,116.497572 208.43207,115.419301 208.759667,114.347336 C209.087265,113.275371 209.427462,112.1971 209.780259,111.112524 C209.906258,110.658515 210.019657,110.204507 210.120456,109.750498 C210.221255,109.296489 210.309455,108.84248 210.385054,108.388472 C210.485853,107.984908 210.473253,107.568734 210.347254,107.139948 C210.170856,106.534603 209.755059,106.168873 209.099865,106.04276 C208.772267,105.992314 208.48877,106.030148 208.249372,106.156262 C208.009974,106.282376 207.802075,106.471546 207.625677,106.723773 C207.524878,106.824664 207.461878,106.912943 207.436678,106.988611 C207.411478,107.064279 207.373679,107.127336 207.323279,107.177782 C206.970482,106.925555 206.623985,106.660716 206.283788,106.383266 C205.94359,106.105817 205.597093,105.878812 205.244296,105.702253 C203.984307,105.122131 202.762117,104.901432 201.577726,105.040157 C200.393336,105.178882 199.271945,105.702253 198.213554,106.610271 C196.903164,107.745293 195.907773,109.012734 195.227378,110.412594 C194.546984,111.812454 194.143787,113.344734 194.017788,115.009432 C193.967389,115.690445 194.024088,116.365153 194.187887,117.033555 C194.351685,117.701956 194.635183,118.33883 195.03838,118.944175 C195.617975,119.852192 196.367669,120.419703 197.287461,120.646707 C198.207254,120.873712 199.133346,120.722376 200.065739,120.192699 C200.393336,120.01614 200.695733,119.820664 200.972931,119.606271 C201.250129,119.391878 201.514727,119.171179 201.766725,118.944175 C202.119522,118.591057 202.453419,118.231633 202.768416,117.865904 C203.083414,117.500175 203.392111,117.140751 203.694509,116.787633 C203.744908,116.686742 203.814208,116.598463 203.902407,116.522795 C203.990606,116.447127 204.097706,116.346236 204.223705,116.220122 C204.223705,116.447127 204.211105,116.629991 204.185905,116.768716 C204.160705,116.907441 204.135505,117.03986 204.110305,117.165974 C204.059906,117.670428 204.015806,118.168576 203.978007,118.660419 C203.940207,119.152262 203.908707,119.637799 203.883507,120.117031 C203.883507,120.772821 203.996906,121.378166 204.223705,121.933066 C204.400103,122.462742 204.664701,122.897834 205.017498,123.238341 C205.370295,123.578847 205.760892,123.805852 206.189288,123.919354 Z M199.269188,117 C199.008157,116.377023 198.936967,115.816343 199.055617,115.317961 C199.387838,113.473948 200.194661,111.953883 201.476085,110.757767 C201.642195,110.583333 201.843901,110.440049 202.081201,110.327913 C202.318502,110.215777 202.543938,110.13479 202.757508,110.084951 C203.35076,109.960356 203.789766,109.972816 204.074527,110.12233 C204.359288,110.271845 204.667779,110.658091 205,111.281068 C204.169448,112.32767 203.285502,113.330663 202.348165,114.290049 C201.410827,115.249434 200.384501,116.152751 199.269188,117 Z" id="monica"></path>
        </g>
    </g>
</svg>