<?xml version="1.0" encoding="UTF-8"?>
<svg width="211px" height="111px" viewBox="0 0 211 111" version="1.1" xmlns="http://www.w3.org/2000/svg" xmlns:xlink="http://www.w3.org/1999/xlink">
    <!-- Generator: Sketch 62 (91390) - https://sketch.com -->
    <title>m</title>
    <desc>Created with Sketch.</desc>
    <g id="Page-1" stroke="none" stroke-width="1" fill="none" fill-rule="evenodd">
        <g id="Desktop-HD-Copy-4" transform="translate(-610.000000, -480.000000)" fill="#004466" fill-rule="nonzero">
            <path d="M744,590.4 C748.933333,590.4 753.6,589.066667 758,586.4 C762.4,583.733333 766.733333,579.2 771,572.8 L771,572.8 L782.2,555.8 L775,551.6 L757,574.4 L753.4,572.8 L769,517.8 C769.8,514.866667 770.433333,512.1 770.9,509.5 C771.366667,506.9 771.6,504.4 771.6,502 C771.6,495.6 770.033333,490.466667 766.9,486.6 C763.766667,482.733333 758.6,480.8 751.4,480.8 C746.733333,480.8 742.566667,481.666667 738.9,483.4 C735.233333,485.133333 731.866667,487.466667 728.8,490.4 C725.733333,493.333333 722.9,496.833333 720.3,500.9 C717.7,504.966667 715.133333,509.266667 712.6,513.8 L712.6,513.8 L710.2,513 L710.8,509.8 C711.066667,508.2 711.266667,506.666667 711.4,505.2 C711.533333,503.733333 711.6,502.333333 711.6,501 C711.6,494.466667 710.266667,489.466667 707.6,486 C704.933333,482.533333 700.666667,480.8 694.8,480.8 C690.4,480.8 686.433333,481.666667 682.9,483.4 C679.366667,485.133333 676.1,487.466667 673.1,490.4 C670.1,493.333333 667.333333,496.833333 664.8,500.9 C662.266667,504.966667 659.733333,509.266667 657.2,513.8 L657.2,513.8 L654.8,513 L662.8,480.8 L618.4,489.8 L615.4,501.8 L631.6,501.8 L610,588 L638.8,588 L645.2,562.4 C647.466667,553.2 650.133333,544.733333 653.2,537 C656.266667,529.266667 659.433333,522.6 662.7,517 C665.966667,511.4 669.266667,507.033333 672.6,503.9 C675.933333,500.766667 679,499.2 681.8,499.2 C684.733333,499.2 686.2,500.933333 686.2,504.4 C686.2,505.466667 686,506.866667 685.6,508.6 L685.6,508.6 L665.8,588 L694.6,588 L701,562.4 C703.4,553.066667 706.133333,544.5 709.2,536.7 C712.266667,528.9 715.466667,522.233333 718.8,516.7 C722.133333,511.166667 725.5,506.866667 728.9,503.8 C732.3,500.733333 735.4,499.2 738.2,499.2 C741.133333,499.2 742.6,500.933333 742.6,504.4 C742.6,505.6 742.4,507 742,508.6 L742,508.6 L726.8,563 C726.4,564.6 726,566.433333 725.6,568.5 C725.2,570.566667 725,572.466667 725,574.2 C725,576.066667 725.3,577.966667 725.9,579.9 C726.5,581.833333 727.566667,583.566667 729.1,585.1 C730.633333,586.633333 732.6,587.9 735,588.9 C737.4,589.9 740.4,590.4 744,590.4 Z M800,590.4 C805.066667,590.4 809.333333,589.033333 812.8,586.3 C816.266667,583.566667 818.533333,579.933333 819.6,575.4 C820,573.8 820.2,572.066667 820.2,570.2 C820.2,566.333333 818.766667,562.966667 815.9,560.1 C813.033333,557.233333 809.066667,555.8 804,555.8 C798.933333,555.8 794.666667,557.166667 791.2,559.9 C787.733333,562.633333 785.466667,566.266667 784.4,570.8 C784,572.4 783.8,574.133333 783.8,576 C783.8,579.866667 785.233333,583.233333 788.1,586.1 C790.966667,588.966667 794.933333,590.4 800,590.4 Z" id="m."></path>
        </g>
    </g>
</svg>