<?xml version="1.0" encoding="UTF-8"?>
<svg width="694px" height="157px" viewBox="0 0 694 157" version="1.1" xmlns="http://www.w3.org/2000/svg" xmlns:xlink="http://www.w3.org/1999/xlink">
    <title>monica</title>
    <g id="Page-1" stroke="none" stroke-width="1" fill="none" fill-rule="evenodd">
        <g id="Desktop-HD-Copy-4" transform="translate(-368.000000, -434.000000)" fill="#040921" fill-rule="nonzero">
            <path d="M502.7,590.4 C507.633333,590.4 512.3,589.066667 516.7,586.4 C521.1,583.733333 525.433333,579.2 529.7,572.8 L529.7,572.8 L540.9,555.8 L533.7,551.6 L515.7,574.4 L512.1,572.8 L527.7,517.8 C528.5,514.866667 529.133333,512.1 529.6,509.5 C530.066667,506.9 530.3,504.4 530.3,502 C530.3,495.6 528.733333,490.466667 525.6,486.6 C522.466667,482.733333 517.3,480.8 510.1,480.8 C505.433333,480.8 501.266667,481.666667 497.6,483.4 C493.933333,485.133333 490.566667,487.466667 487.5,490.4 C484.433333,493.333333 481.6,496.833333 479,500.9 C476.4,504.966667 473.833333,509.266667 471.3,513.8 L471.3,513.8 L468.9,513 L469.5,509.8 C469.766667,508.2 469.966667,506.666667 470.1,505.2 C470.233333,503.733333 470.3,502.333333 470.3,501 C470.3,494.466667 468.966667,489.466667 466.3,486 C463.633333,482.533333 459.366667,480.8 453.5,480.8 C449.1,480.8 445.133333,481.666667 441.6,483.4 C438.066667,485.133333 434.8,487.466667 431.8,490.4 C428.8,493.333333 426.033333,496.833333 423.5,500.9 C420.966667,504.966667 418.433333,509.266667 415.9,513.8 L415.9,513.8 L413.5,513 L421.5,480.8 L377.1,489.8 L374.1,501.8 L390.3,501.8 L368.7,588 L397.5,588 L403.9,562.4 C406.166667,553.2 408.833333,544.733333 411.9,537 C414.966667,529.266667 418.133333,522.6 421.4,517 C424.666667,511.4 427.966667,507.033333 431.3,503.9 C434.633333,500.766667 437.7,499.2 440.5,499.2 C443.433333,499.2 444.9,500.933333 444.9,504.4 C444.9,505.466667 444.7,506.866667 444.3,508.6 L444.3,508.6 L424.5,588 L453.3,588 L459.7,562.4 C462.1,553.066667 464.833333,544.5 467.9,536.7 C470.966667,528.9 474.166667,522.233333 477.5,516.7 C480.833333,511.166667 484.2,506.866667 487.6,503.8 C491,500.733333 494.1,499.2 496.9,499.2 C499.833333,499.2 501.3,500.933333 501.3,504.4 C501.3,505.6 501.1,507 500.7,508.6 L500.7,508.6 L485.5,563 C485.1,564.6 484.7,566.433333 484.3,568.5 C483.9,570.566667 483.7,572.466667 483.7,574.2 C483.7,576.066667 484,577.966667 484.6,579.9 C485.2,581.833333 486.266667,583.566667 487.8,585.1 C489.333333,586.633333 491.3,587.9 493.7,588.9 C496.1,589.9 499.1,590.4 502.7,590.4 Z M580.5,590.4 C590.1,590.4 598.633333,588.2 606.1,583.8 C613.566667,579.4 619.866667,573.766667 625,566.9 C630.133333,560.033333 634.033333,552.466667 636.7,544.2 C639.366667,535.933333 640.7,527.866667 640.7,520 C640.7,507.866667 637.6,498.3 631.4,491.3 C625.2,484.3 616.033333,480.8 603.9,480.8 C594.3,480.8 585.766667,483 578.3,487.4 C570.833333,491.8 564.533333,497.433333 559.4,504.3 C554.266667,511.166667 550.366667,518.766667 547.7,527.1 C545.033333,535.433333 543.7,543.466667 543.7,551.2 C543.7,563.333333 546.8,572.9 553,579.9 C559.2,586.9 568.366667,590.4 580.5,590.4 Z M581.9,579.2 C577.766667,579.2 574.8,577.966667 573,575.5 C571.2,573.033333 570.3,570.066667 570.3,566.6 C570.3,565.4 570.466667,563.8 570.8,561.8 C571.133333,559.8 571.733333,556.9 572.6,553.1 C573.466667,549.3 574.7,544.366667 576.3,538.3 C577.9,532.233333 579.9,524.533333 582.3,515.2 C584.033333,508.266667 586.533333,502.666667 589.8,498.4 C593.066667,494.133333 597.3,492 602.5,492 C606.633333,492 609.6,493.233333 611.4,495.7 C613.2,498.166667 614.1,501.133333 614.1,504.6 C614.1,505.8 613.933333,507.4 613.6,509.4 C613.266667,511.4 612.666667,514.3 611.8,518.1 C610.933333,521.9 609.7,526.833333 608.1,532.9 C606.5,538.966667 604.5,546.666667 602.1,556 C600.366667,562.933333 597.866667,568.533333 594.6,572.8 C591.333333,577.066667 587.1,579.2 581.9,579.2 Z M724.1,590.4 C729.166667,590.4 733.9,589.066667 738.3,586.4 C742.7,583.733333 747.033333,579.2 751.3,572.8 L751.3,572.8 L762.5,555.8 L755.3,551.6 L737.3,574.4 L733.7,572.8 L749.3,517.8 C750.1,514.866667 750.733333,512.066667 751.2,509.4 C751.666667,506.733333 751.9,504.2 751.9,501.8 C751.9,495.4 750.3,490.3 747.1,486.5 C743.9,482.7 738.7,480.8 731.5,480.8 C726.833333,480.8 722.666667,481.666667 719,483.4 C715.333333,485.133333 712,487.466667 709,490.4 C706,493.333333 703.233333,496.833333 700.7,500.9 C698.166667,504.966667 695.633333,509.266667 693.1,513.8 L693.1,513.8 L690.7,513 L698.7,480.8 L654.3,489.8 L651.3,501.8 L667.5,501.8 L645.9,588 L674.7,588 L681.1,562.4 C683.5,553.066667 686.233333,544.533333 689.3,536.8 C692.366667,529.066667 695.6,522.4 699,516.8 C702.4,511.2 705.766667,506.866667 709.1,503.8 C712.433333,500.733333 715.5,499.2 718.3,499.2 C721.366667,499.2 722.9,500.933333 722.9,504.4 C722.9,505.6 722.7,507 722.3,508.6 L722.3,508.6 L707.1,563 C706.7,564.6 706.3,566.433333 705.9,568.5 C705.5,570.566667 705.3,572.466667 705.3,574.2 C705.3,576.066667 705.6,577.966667 706.2,579.9 C706.8,581.833333 707.833333,583.566667 709.3,585.1 C710.766667,586.633333 712.7,587.9 715.1,588.9 C717.5,589.9 720.5,590.4 724.1,590.4 Z M809.1,466.4 C813.766667,466.4 817.766667,465.2 821.1,462.8 C824.433333,460.4 826.633333,457.066667 827.7,452.8 C828.1,451.2 828.3,449.466667 828.3,447.6 C828.3,444.133333 827,441.133333 824.4,438.6 C821.8,436.066667 818.033333,434.8 813.1,434.8 C808.433333,434.8 804.433333,436 801.1,438.4 C797.766667,440.8 795.566667,444.133333 794.5,448.4 C794.1,450 793.9,451.733333 793.9,453.6 C793.9,457.066667 795.2,460.066667 797.8,462.6 C800.4,465.133333 804.166667,466.4 809.1,466.4 Z M786.5,590.4 C790.366667,590.4 794.633333,589.233333 799.3,586.9 C803.966667,584.566667 808.633333,579.866667 813.3,572.8 L813.3,572.8 L824.5,555.8 L817.3,551.6 L799.3,574.4 L795.7,572.8 L818.7,480.8 L771.3,489.8 L768.3,501.8 L784.5,501.8 L769.3,562.8 C768.9,564.266667 768.5,566.1 768.1,568.3 C767.7,570.5 767.5,572.4 767.5,574 C767.5,576 767.8,577.966667 768.4,579.9 C769,581.833333 770.066667,583.566667 771.6,585.1 C773.133333,586.633333 775.1,587.9 777.5,588.9 C779.9,589.9 782.9,590.4 786.5,590.4 Z M857.1,590.4 C863.233333,590.4 868.666667,589.5 873.4,587.7 C878.133333,585.9 882.4,583.233333 886.2,579.7 C890,576.166667 893.5,571.866667 896.7,566.8 C899.9,561.733333 903.033333,555.933333 906.1,549.4 L906.1,549.4 L898.3,546 C893.633333,555.2 888.9,562.266667 884.1,567.2 C879.3,572.133333 873.9,574.6 867.9,574.6 C864.033333,574.6 861.033333,573.4 858.9,571 C856.766667,568.6 855.7,564.533333 855.7,558.8 C855.7,554.933333 856.166667,550.133333 857.1,544.4 C858.033333,538.666667 859.5,532.133333 861.5,524.8 C863.366667,517.733333 865.233333,511.966667 867.1,507.5 C868.966667,503.033333 870.9,499.533333 872.9,497 C874.9,494.466667 877,492.733333 879.2,491.8 C881.4,490.866667 883.766667,490.4 886.3,490.4 C888.566667,490.4 890.8,490.7 893,491.3 C895.2,491.9 897.1,492.8 898.7,494 L898.7,494 L898.7,496 C895.9,496.266667 893.466667,496.933333 891.4,498 C889.333333,499.066667 887.6,500.333333 886.2,501.8 C884.8,503.266667 883.766667,504.9 883.1,506.7 C882.433333,508.5 882.1,510.266667 882.1,512 C882.1,515.2 883.133333,518.166667 885.2,520.9 C887.266667,523.633333 890.3,525 894.3,525 C897.1,525 899.6,524.433333 901.8,523.3 C904,522.166667 905.866667,520.633333 907.4,518.7 C908.933333,516.766667 910.1,514.566667 910.9,512.1 C911.7,509.633333 912.1,507 912.1,504.2 C912.1,497.4 909.466667,491.8 904.2,487.4 C898.933333,483 891.366667,480.8 881.5,480.8 C872.033333,480.8 863.833333,483.2 856.9,488 C849.966667,492.8 844.166667,498.866667 839.5,506.2 C834.833333,513.533333 831.366667,521.6 829.1,530.4 C826.833333,539.2 825.7,547.6 825.7,555.6 C825.7,566.4 828.233333,574.9 833.3,581.1 C838.366667,587.3 846.3,590.4 857.1,590.4 Z M988.1,590.4 C992.366667,590.4 996.533333,589.033333 1000.6,586.3 C1004.66667,583.566667 1008.76667,579.066667 1012.9,572.8 L1012.9,572.8 L1024.1,555.8 L1016.9,551.6 L998.9,574.4 L995.3,572.8 L1017.7,483.2 L1003.5,483.2 L990.5,501.6 L988.1,501.6 C986.766667,494 984,488.633333 979.8,485.5 C975.6,482.366667 970.566667,480.8 964.7,480.8 C959.233333,480.8 954.133333,481.933333 949.4,484.2 C944.666667,486.466667 940.366667,489.566667 936.5,493.5 C932.633333,497.433333 929.166667,502 926.1,507.2 C923.033333,512.4 920.433333,517.9 918.3,523.7 C916.166667,529.5 914.566667,535.433333 913.5,541.5 C912.433333,547.566667 911.9,553.4 911.9,559 C911.9,568.733333 913.666667,576.4 917.2,582 C920.733333,587.6 926.7,590.4 935.1,590.4 C939.633333,590.4 943.733333,589.566667 947.4,587.9 C951.066667,586.233333 954.333333,583.966667 957.2,581.1 C960.066667,578.233333 962.666667,574.9 965,571.1 C967.333333,567.3 969.433333,563.333333 971.3,559.2 L971.3,559.2 L973.7,559.6 L972.9,562.8 C972.5,564.266667 972.1,566.1 971.7,568.3 C971.3,570.5 971.1,572.6 971.1,574.6 C971.1,576.466667 971.366667,578.366667 971.9,580.3 C972.433333,582.233333 973.333333,583.933333 974.6,585.4 C975.866667,586.866667 977.6,588.066667 979.8,589 C982,589.933333 984.766667,590.4 988.1,590.4 Z M947.7,572 C945.433333,572 943.866667,571.066667 943,569.2 C942.133333,567.333333 941.7,564.866667 941.7,561.8 C941.7,557.533333 942.233333,552.3 943.3,546.1 C944.366667,539.9 945.633333,534.266667 947.1,529.2 C950.433333,517.333333 954.4,508.8 959,503.6 C963.6,498.4 968.233333,495.8 972.9,495.8 C977.566667,495.8 980.433333,497.666667 981.5,501.4 C982.566667,505.133333 982.366667,510.2 980.9,516.6 L980.9,516.6 L979.5,522.4 C978.433333,526.933333 976.8,532.066667 974.6,537.8 C972.4,543.533333 969.866667,548.933333 967,554 C964.133333,559.066667 961,563.333333 957.6,566.8 C954.2,570.266667 950.9,572 947.7,572 Z M1041.3,590.4 C1046.36667,590.4 1050.63333,589.033333 1054.1,586.3 C1057.56667,583.566667 1059.83333,579.933333 1060.9,575.4 C1061.3,573.8 1061.5,572.066667 1061.5,570.2 C1061.5,566.333333 1060.06667,562.966667 1057.2,560.1 C1054.33333,557.233333 1050.36667,555.8 1045.3,555.8 C1040.23333,555.8 1035.96667,557.166667 1032.5,559.9 C1029.03333,562.633333 1026.76667,566.266667 1025.7,570.8 C1025.3,572.4 1025.1,574.133333 1025.1,576 C1025.1,579.866667 1026.53333,583.233333 1029.4,586.1 C1032.26667,588.966667 1036.23333,590.4 1041.3,590.4 Z" id="monica."></path>
        </g>
    </g>
</svg>